<?xml version="1.0" encoding="UTF-8"?>
<!DOCTYPE svg PUBLIC "-//W3C//DTD SVG 1.1//EN" "http://www.w3.org/Graphics/SVG/1.1/DTD/svg11.dtd">
<svg xmlns="http://www.w3.org/2000/svg" version="1.1" width="430px" height="430px" style="shape-rendering:geometricPrecision; text-rendering:geometricPrecision; image-rendering:optimizeQuality; fill-rule:evenodd; clip-rule:evenodd" xmlns:xlink="http://www.w3.org/1999/xlink">
<g><path style="opacity:1" fill="#f9f9f9" d="M -0.5,-0.5 C 142.833,-0.5 286.167,-0.5 429.5,-0.5C 429.5,142.833 429.5,286.167 429.5,429.5C 286.167,429.5 142.833,429.5 -0.5,429.5C -0.5,286.167 -0.5,142.833 -0.5,-0.5 Z"/></g>
<g><path style="opacity:1" fill="#000000" d="M 29.5,29.5 C 52.8333,29.5 76.1667,29.5 99.5,29.5C 99.5,52.8333 99.5,76.1667 99.5,99.5C 76.1667,99.5 52.8333,99.5 29.5,99.5C 29.5,76.1667 29.5,52.8333 29.5,29.5 Z"/></g>
<g><path style="opacity:1" fill="#000000" d="M 119.5,39.5 C 116.167,39.5 112.833,39.5 109.5,39.5C 109.5,36.1667 109.5,32.8333 109.5,29.5C 112.833,29.5 116.167,29.5 119.5,29.5C 119.5,32.8333 119.5,36.1667 119.5,39.5 Z"/></g>
<g><path style="opacity:1" fill="#000000" d="M 239.5,39.5 C 229.5,39.5 219.5,39.5 209.5,39.5C 209.5,42.8333 209.5,46.1667 209.5,49.5C 212.833,49.5 216.167,49.5 219.5,49.5C 219.5,52.8333 219.5,56.1667 219.5,59.5C 212.833,59.5 206.167,59.5 199.5,59.5C 199.5,62.8333 199.5,66.1667 199.5,69.5C 202.833,69.5 206.167,69.5 209.5,69.5C 209.5,72.8333 209.5,76.1667 209.5,79.5C 202.833,79.5 196.167,79.5 189.5,79.5C 189.5,82.8333 189.5,86.1667 189.5,89.5C 186.167,89.5 182.833,89.5 179.5,89.5C 179.5,86.1667 179.5,82.8333 179.5,79.5C 176.167,79.5 172.833,79.5 169.5,79.5C 169.5,76.1667 169.5,72.8333 169.5,69.5C 166.167,69.5 162.833,69.5 159.5,69.5C 159.5,56.1667 159.5,42.8333 159.5,29.5C 186.167,29.5 212.833,29.5 239.5,29.5C 239.5,32.8333 239.5,36.1667 239.5,39.5 Z"/></g>
<g><path style="opacity:1" fill="#000000" d="M 329.5,29.5 C 352.833,29.5 376.167,29.5 399.5,29.5C 399.5,52.8333 399.5,76.1667 399.5,99.5C 376.167,99.5 352.833,99.5 329.5,99.5C 329.5,76.1667 329.5,52.8333 329.5,29.5 Z"/></g>
<g><path style="opacity:1" fill="#f9f9f9" d="M 39.5,39.5 C 56.1667,39.5 72.8333,39.5 89.5,39.5C 89.5,56.1667 89.5,72.8333 89.5,89.5C 72.8333,89.5 56.1667,89.5 39.5,89.5C 39.5,72.8333 39.5,56.1667 39.5,39.5 Z"/></g>
<g><path style="opacity:1" fill="#000000" d="M 119.5,39.5 C 129.5,39.5 139.5,39.5 149.5,39.5C 149.5,46.1667 149.5,52.8333 149.5,59.5C 142.833,59.5 136.167,59.5 129.5,59.5C 129.5,56.1667 129.5,52.8333 129.5,49.5C 126.167,49.5 122.833,49.5 119.5,49.5C 119.5,46.1667 119.5,42.8333 119.5,39.5 Z"/></g>
<g><path style="opacity:1" fill="#f9f9f9" d="M 169.5,69.5 C 169.5,59.5 169.5,49.5 169.5,39.5C 172.833,39.5 176.167,39.5 179.5,39.5C 179.5,46.1667 179.5,52.8333 179.5,59.5C 182.833,59.5 186.167,59.5 189.5,59.5C 189.5,62.8333 189.5,66.1667 189.5,69.5C 182.833,69.5 176.167,69.5 169.5,69.5 Z"/></g>
<g><path style="opacity:1" fill="#f9f9f9" d="M 239.5,39.5 C 239.5,46.1667 239.5,52.8333 239.5,59.5C 232.833,59.5 226.167,59.5 219.5,59.5C 219.5,56.1667 219.5,52.8333 219.5,49.5C 216.167,49.5 212.833,49.5 209.5,49.5C 209.5,46.1667 209.5,42.8333 209.5,39.5C 219.5,39.5 229.5,39.5 239.5,39.5 Z"/></g>
<g><path style="opacity:1" fill="#000000" d="M 239.5,39.5 C 242.833,39.5 246.167,39.5 249.5,39.5C 249.5,42.8333 249.5,46.1667 249.5,49.5C 252.833,49.5 256.167,49.5 259.5,49.5C 259.5,46.1667 259.5,42.8333 259.5,39.5C 276.167,39.5 292.833,39.5 309.5,39.5C 309.5,42.8333 309.5,46.1667 309.5,49.5C 296.167,49.5 282.833,49.5 269.5,49.5C 269.5,52.8333 269.5,56.1667 269.5,59.5C 272.833,59.5 276.167,59.5 279.5,59.5C 279.5,62.8333 279.5,66.1667 279.5,69.5C 276.167,69.5 272.833,69.5 269.5,69.5C 269.5,72.8333 269.5,76.1667 269.5,79.5C 266.167,79.5 262.833,79.5 259.5,79.5C 259.5,76.1667 259.5,72.8333 259.5,69.5C 256.167,69.5 252.833,69.5 249.5,69.5C 249.5,66.1667 249.5,62.8333 249.5,59.5C 246.167,59.5 242.833,59.5 239.5,59.5C 239.5,52.8333 239.5,46.1667 239.5,39.5 Z"/></g>
<g><path style="opacity:1" fill="#f9f9f9" d="M 339.5,39.5 C 356.167,39.5 372.833,39.5 389.5,39.5C 389.5,56.1667 389.5,72.8333 389.5,89.5C 372.833,89.5 356.167,89.5 339.5,89.5C 339.5,72.8333 339.5,56.1667 339.5,39.5 Z"/></g>
<g><path style="opacity:1" fill="#000000" d="M 49.5,49.5 C 59.5,49.5 69.5,49.5 79.5,49.5C 79.5,59.5 79.5,69.5 79.5,79.5C 69.5,79.5 59.5,79.5 49.5,79.5C 49.5,69.5 49.5,59.5 49.5,49.5 Z"/></g>
<g><path style="opacity:1" fill="#000000" d="M 349.5,49.5 C 359.5,49.5 369.5,49.5 379.5,49.5C 379.5,59.5 379.5,69.5 379.5,79.5C 369.5,79.5 359.5,79.5 349.5,79.5C 349.5,69.5 349.5,59.5 349.5,49.5 Z"/></g>
<g><path style="opacity:1" fill="#000000" d="M 129.5,59.5 C 129.5,62.8333 129.5,66.1667 129.5,69.5C 136.167,69.5 142.833,69.5 149.5,69.5C 149.5,72.8333 149.5,76.1667 149.5,79.5C 156.167,79.5 162.833,79.5 169.5,79.5C 169.5,82.8333 169.5,86.1667 169.5,89.5C 166.167,89.5 162.833,89.5 159.5,89.5C 159.5,92.8333 159.5,96.1667 159.5,99.5C 156.167,99.5 152.833,99.5 149.5,99.5C 149.5,96.1667 149.5,92.8333 149.5,89.5C 146.167,89.5 142.833,89.5 139.5,89.5C 139.5,86.1667 139.5,82.8333 139.5,79.5C 136.167,79.5 132.833,79.5 129.5,79.5C 129.5,82.8333 129.5,86.1667 129.5,89.5C 126.167,89.5 122.833,89.5 119.5,89.5C 119.5,92.8333 119.5,96.1667 119.5,99.5C 116.167,99.5 112.833,99.5 109.5,99.5C 109.5,89.5 109.5,79.5 109.5,69.5C 112.833,69.5 116.167,69.5 119.5,69.5C 119.5,66.1667 119.5,62.8333 119.5,59.5C 122.833,59.5 126.167,59.5 129.5,59.5 Z"/></g>
<g><path style="opacity:1" fill="#f9f9f9" d="M 219.5,59.5 C 219.5,66.1667 219.5,72.8333 219.5,79.5C 222.833,79.5 226.167,79.5 229.5,79.5C 229.5,96.1667 229.5,112.833 229.5,129.5C 226.167,129.5 222.833,129.5 219.5,129.5C 219.5,126.167 219.5,122.833 219.5,119.5C 216.167,119.5 212.833,119.5 209.5,119.5C 209.5,116.167 209.5,112.833 209.5,109.5C 206.167,109.5 202.833,109.5 199.5,109.5C 199.5,102.833 199.5,96.1667 199.5,89.5C 196.167,89.5 192.833,89.5 189.5,89.5C 189.5,86.1667 189.5,82.8333 189.5,79.5C 196.167,79.5 202.833,79.5 209.5,79.5C 209.5,76.1667 209.5,72.8333 209.5,69.5C 206.167,69.5 202.833,69.5 199.5,69.5C 199.5,66.1667 199.5,62.8333 199.5,59.5C 206.167,59.5 212.833,59.5 219.5,59.5 Z"/></g>
<g><path style="opacity:1" fill="#000000" d="M 219.5,59.5 C 226.167,59.5 232.833,59.5 239.5,59.5C 239.5,62.8333 239.5,66.1667 239.5,69.5C 236.167,69.5 232.833,69.5 229.5,69.5C 229.5,72.8333 229.5,76.1667 229.5,79.5C 226.167,79.5 222.833,79.5 219.5,79.5C 219.5,72.8333 219.5,66.1667 219.5,59.5 Z"/></g>
<g><path style="opacity:1" fill="#f9f9f9" d="M 239.5,59.5 C 242.833,59.5 246.167,59.5 249.5,59.5C 249.5,62.8333 249.5,66.1667 249.5,69.5C 252.833,69.5 256.167,69.5 259.5,69.5C 259.5,72.8333 259.5,76.1667 259.5,79.5C 249.5,79.5 239.5,79.5 229.5,79.5C 229.5,76.1667 229.5,72.8333 229.5,69.5C 232.833,69.5 236.167,69.5 239.5,69.5C 239.5,66.1667 239.5,62.8333 239.5,59.5 Z"/></g>
<g><path style="opacity:1" fill="#000000" d="M 309.5,119.5 C 309.5,109.5 309.5,99.5 309.5,89.5C 306.167,89.5 302.833,89.5 299.5,89.5C 299.5,92.8333 299.5,96.1667 299.5,99.5C 296.167,99.5 292.833,99.5 289.5,99.5C 289.5,102.833 289.5,106.167 289.5,109.5C 286.167,109.5 282.833,109.5 279.5,109.5C 279.5,112.833 279.5,116.167 279.5,119.5C 269.5,119.5 259.5,119.5 249.5,119.5C 249.5,116.167 249.5,112.833 249.5,109.5C 246.167,109.5 242.833,109.5 239.5,109.5C 239.5,116.167 239.5,122.833 239.5,129.5C 246.167,129.5 252.833,129.5 259.5,129.5C 259.5,132.833 259.5,136.167 259.5,139.5C 256.167,139.5 252.833,139.5 249.5,139.5C 249.5,142.833 249.5,146.167 249.5,149.5C 246.167,149.5 242.833,149.5 239.5,149.5C 239.5,146.167 239.5,142.833 239.5,139.5C 232.833,139.5 226.167,139.5 219.5,139.5C 219.5,136.167 219.5,132.833 219.5,129.5C 222.833,129.5 226.167,129.5 229.5,129.5C 229.5,112.833 229.5,96.1667 229.5,79.5C 239.5,79.5 249.5,79.5 259.5,79.5C 259.5,86.1667 259.5,92.8333 259.5,99.5C 262.833,99.5 266.167,99.5 269.5,99.5C 269.5,92.8333 269.5,86.1667 269.5,79.5C 272.833,79.5 276.167,79.5 279.5,79.5C 279.5,76.1667 279.5,72.8333 279.5,69.5C 282.833,69.5 286.167,69.5 289.5,69.5C 289.5,66.1667 289.5,62.8333 289.5,59.5C 299.5,59.5 309.5,59.5 319.5,59.5C 319.5,79.5 319.5,99.5 319.5,119.5C 316.167,119.5 312.833,119.5 309.5,119.5 Z"/></g>
<g><path style="opacity:1" fill="#f9f9f9" d="M 279.5,69.5 C 279.5,72.8333 279.5,76.1667 279.5,79.5C 276.167,79.5 272.833,79.5 269.5,79.5C 269.5,76.1667 269.5,72.8333 269.5,69.5C 272.833,69.5 276.167,69.5 279.5,69.5 Z"/></g>
<g><path style="opacity:1" fill="#f9faf9" d="M 299.5,69.5 C 302.833,69.5 306.167,69.5 309.5,69.5C 309.5,72.8333 309.5,76.1667 309.5,79.5C 306.167,79.5 302.833,79.5 299.5,79.5C 299.5,76.1667 299.5,72.8333 299.5,69.5 Z"/></g>
<g><path style="opacity:1" fill="#f9faf9" d="M 139.5,89.5 C 136.167,89.5 132.833,89.5 129.5,89.5C 129.5,86.1667 129.5,82.8333 129.5,79.5C 132.833,79.5 136.167,79.5 139.5,79.5C 139.5,82.8333 139.5,86.1667 139.5,89.5 Z"/></g>
<g><path style="opacity:1" fill="#f9f9f9" d="M 169.5,79.5 C 172.833,79.5 176.167,79.5 179.5,79.5C 179.5,82.8333 179.5,86.1667 179.5,89.5C 176.167,89.5 172.833,89.5 169.5,89.5C 169.5,86.1667 169.5,82.8333 169.5,79.5 Z"/></g>
<g><path style="opacity:1" fill="#f9f9f9" d="M 259.5,79.5 C 262.833,79.5 266.167,79.5 269.5,79.5C 269.5,86.1667 269.5,92.8333 269.5,99.5C 266.167,99.5 262.833,99.5 259.5,99.5C 259.5,92.8333 259.5,86.1667 259.5,79.5 Z"/></g>
<g><path style="opacity:1" fill="#f9f9f9" d="M 129.5,89.5 C 129.5,92.8333 129.5,96.1667 129.5,99.5C 126.167,99.5 122.833,99.5 119.5,99.5C 119.5,96.1667 119.5,92.8333 119.5,89.5C 122.833,89.5 126.167,89.5 129.5,89.5 Z"/></g>
<g><path style="opacity:1" fill="#000000" d="M 129.5,89.5 C 132.833,89.5 136.167,89.5 139.5,89.5C 139.5,92.8333 139.5,96.1667 139.5,99.5C 136.167,99.5 132.833,99.5 129.5,99.5C 129.5,96.1667 129.5,92.8333 129.5,89.5 Z"/></g>
<g><path style="opacity:1" fill="#f9f9f9" d="M 139.5,89.5 C 142.833,89.5 146.167,89.5 149.5,89.5C 149.5,92.8333 149.5,96.1667 149.5,99.5C 146.167,99.5 142.833,99.5 139.5,99.5C 139.5,96.1667 139.5,92.8333 139.5,89.5 Z"/></g>
<g><path style="opacity:1" fill="#f9f9f9" d="M 169.5,89.5 C 169.5,92.8333 169.5,96.1667 169.5,99.5C 172.833,99.5 176.167,99.5 179.5,99.5C 179.5,102.833 179.5,106.167 179.5,109.5C 169.5,109.5 159.5,109.5 149.5,109.5C 149.5,106.167 149.5,102.833 149.5,99.5C 152.833,99.5 156.167,99.5 159.5,99.5C 159.5,96.1667 159.5,92.8333 159.5,89.5C 162.833,89.5 166.167,89.5 169.5,89.5 Z"/></g>
<g><path style="opacity:1" fill="#000000" d="M 169.5,89.5 C 172.833,89.5 176.167,89.5 179.5,89.5C 179.5,92.8333 179.5,96.1667 179.5,99.5C 176.167,99.5 172.833,99.5 169.5,99.5C 169.5,96.1667 169.5,92.8333 169.5,89.5 Z"/></g>
<g><path style="opacity:1" fill="#f9f9f9" d="M 179.5,89.5 C 182.833,89.5 186.167,89.5 189.5,89.5C 189.5,92.8333 189.5,96.1667 189.5,99.5C 186.167,99.5 182.833,99.5 179.5,99.5C 179.5,96.1667 179.5,92.8333 179.5,89.5 Z"/></g>
<g><path style="opacity:1" fill="#000000" d="M 189.5,89.5 C 192.833,89.5 196.167,89.5 199.5,89.5C 199.5,96.1667 199.5,102.833 199.5,109.5C 192.833,109.5 186.167,109.5 179.5,109.5C 179.5,106.167 179.5,102.833 179.5,99.5C 182.833,99.5 186.167,99.5 189.5,99.5C 189.5,96.1667 189.5,92.8333 189.5,89.5 Z"/></g>
<g><path style="opacity:1" fill="#000000" d="M 209.5,89.5 C 212.833,89.5 216.167,89.5 219.5,89.5C 219.5,92.8333 219.5,96.1667 219.5,99.5C 216.167,99.5 212.833,99.5 209.5,99.5C 209.5,96.1667 209.5,92.8333 209.5,89.5 Z"/></g>
<g><path style="opacity:1" fill="#f9f9f9" d="M 239.5,89.5 C 242.833,89.5 246.167,89.5 249.5,89.5C 249.5,92.8333 249.5,96.1667 249.5,99.5C 246.167,99.5 242.833,99.5 239.5,99.5C 239.5,96.1667 239.5,92.8333 239.5,89.5 Z"/></g>
<g><path style="opacity:1" fill="#f9f9f9" d="M 289.5,99.5 C 286.167,99.5 282.833,99.5 279.5,99.5C 279.5,96.1667 279.5,92.8333 279.5,89.5C 282.833,89.5 286.167,89.5 289.5,89.5C 289.5,92.8333 289.5,96.1667 289.5,99.5 Z"/></g>
<g><path style="opacity:1" fill="#f9f9f9" d="M 309.5,119.5 C 306.167,119.5 302.833,119.5 299.5,119.5C 299.5,116.167 299.5,112.833 299.5,109.5C 296.167,109.5 292.833,109.5 289.5,109.5C 289.5,106.167 289.5,102.833 289.5,99.5C 292.833,99.5 296.167,99.5 299.5,99.5C 299.5,96.1667 299.5,92.8333 299.5,89.5C 302.833,89.5 306.167,89.5 309.5,89.5C 309.5,99.5 309.5,109.5 309.5,119.5 Z"/></g>
<g><path style="opacity:1" fill="#000000" d="M 119.5,99.5 C 122.833,99.5 126.167,99.5 129.5,99.5C 129.5,106.167 129.5,112.833 129.5,119.5C 126.167,119.5 122.833,119.5 119.5,119.5C 119.5,112.833 119.5,106.167 119.5,99.5 Z"/></g>
<g><path style="opacity:1" fill="#f9f9f9" d="M 129.5,99.5 C 132.833,99.5 136.167,99.5 139.5,99.5C 139.5,102.833 139.5,106.167 139.5,109.5C 142.833,109.5 146.167,109.5 149.5,109.5C 149.5,112.833 149.5,116.167 149.5,119.5C 142.833,119.5 136.167,119.5 129.5,119.5C 129.5,112.833 129.5,106.167 129.5,99.5 Z"/></g>
<g><path style="opacity:1" fill="#000000" d="M 139.5,99.5 C 142.833,99.5 146.167,99.5 149.5,99.5C 149.5,102.833 149.5,106.167 149.5,109.5C 146.167,109.5 142.833,109.5 139.5,109.5C 139.5,106.167 139.5,102.833 139.5,99.5 Z"/></g>
<g><path style="opacity:1" fill="#000000" d="M 109.5,119.5 C 99.5,119.5 89.5,119.5 79.5,119.5C 79.5,122.833 79.5,126.167 79.5,129.5C 89.5,129.5 99.5,129.5 109.5,129.5C 109.5,132.833 109.5,136.167 109.5,139.5C 99.5,139.5 89.5,139.5 79.5,139.5C 79.5,142.833 79.5,146.167 79.5,149.5C 76.1667,149.5 72.8333,149.5 69.5,149.5C 69.5,139.5 69.5,129.5 69.5,119.5C 62.8333,119.5 56.1667,119.5 49.5,119.5C 49.5,122.833 49.5,126.167 49.5,129.5C 52.8333,129.5 56.1667,129.5 59.5,129.5C 59.5,132.833 59.5,136.167 59.5,139.5C 52.8333,139.5 46.1667,139.5 39.5,139.5C 39.5,136.167 39.5,132.833 39.5,129.5C 36.1667,129.5 32.8333,129.5 29.5,129.5C 29.5,126.167 29.5,122.833 29.5,119.5C 32.8333,119.5 36.1667,119.5 39.5,119.5C 39.5,116.167 39.5,112.833 39.5,109.5C 62.8333,109.5 86.1667,109.5 109.5,109.5C 109.5,112.833 109.5,116.167 109.5,119.5 Z"/></g>
<g><path style="opacity:1" fill="#000000" d="M 149.5,109.5 C 159.5,109.5 169.5,109.5 179.5,109.5C 179.5,112.833 179.5,116.167 179.5,119.5C 186.167,119.5 192.833,119.5 199.5,119.5C 199.5,122.833 199.5,126.167 199.5,129.5C 189.5,129.5 179.5,129.5 169.5,129.5C 169.5,132.833 169.5,136.167 169.5,139.5C 172.833,139.5 176.167,139.5 179.5,139.5C 179.5,142.833 179.5,146.167 179.5,149.5C 186.167,149.5 192.833,149.5 199.5,149.5C 199.5,152.833 199.5,156.167 199.5,159.5C 196.167,159.5 192.833,159.5 189.5,159.5C 189.5,161.5 189.5,163.5 189.5,165.5C 186.167,165.5 182.833,165.5 179.5,165.5C 179.5,163.5 179.5,161.5 179.5,159.5C 176.167,159.5 172.833,159.5 169.5,159.5C 169.665,163.182 169.499,166.848 169,170.5C 166.95,173.148 165.784,176.148 165.5,179.5C 163.5,179.5 161.5,179.5 159.5,179.5C 159.5,182.833 159.5,186.167 159.5,189.5C 161.5,189.5 163.5,189.5 165.5,189.5C 165.5,192.833 165.5,196.167 165.5,199.5C 163.5,199.5 161.5,199.5 159.5,199.5C 159.5,206.167 159.5,212.833 159.5,219.5C 156.167,219.5 152.833,219.5 149.5,219.5C 149.5,212.833 149.5,206.167 149.5,199.5C 146.167,199.5 142.833,199.5 139.5,199.5C 139.5,212.833 139.5,226.167 139.5,239.5C 142.833,239.5 146.167,239.5 149.5,239.5C 149.5,236.167 149.5,232.833 149.5,229.5C 154.833,229.5 160.167,229.5 165.5,229.5C 165.5,236.167 165.5,242.833 165.5,249.5C 160.167,249.5 154.833,249.5 149.5,249.5C 149.5,252.833 149.5,256.167 149.5,259.5C 146.167,259.5 142.833,259.5 139.5,259.5C 139.5,256.167 139.5,252.833 139.5,249.5C 136.167,249.5 132.833,249.5 129.5,249.5C 129.5,239.5 129.5,229.5 129.5,219.5C 126.167,219.5 122.833,219.5 119.5,219.5C 119.5,216.167 119.5,212.833 119.5,209.5C 116.167,209.5 112.833,209.5 109.5,209.5C 109.5,206.167 109.5,202.833 109.5,199.5C 112.833,199.5 116.167,199.5 119.5,199.5C 119.5,196.167 119.5,192.833 119.5,189.5C 122.833,189.5 126.167,189.5 129.5,189.5C 129.5,182.833 129.5,176.167 129.5,169.5C 126.167,169.5 122.833,169.5 119.5,169.5C 119.5,166.167 119.5,162.833 119.5,159.5C 122.833,159.5 126.167,159.5 129.5,159.5C 129.5,156.167 129.5,152.833 129.5,149.5C 132.833,149.5 136.167,149.5 139.5,149.5C 139.5,146.167 139.5,142.833 139.5,139.5C 136.167,139.5 132.833,139.5 129.5,139.5C 129.5,132.833 129.5,126.167 129.5,119.5C 136.167,119.5 142.833,119.5 149.5,119.5C 149.5,116.167 149.5,112.833 149.5,109.5 Z"/></g>
<g><path style="opacity:1" fill="#f9faf9" d="M 179.5,109.5 C 186.167,109.5 192.833,109.5 199.5,109.5C 199.5,112.833 199.5,116.167 199.5,119.5C 192.833,119.5 186.167,119.5 179.5,119.5C 179.5,116.167 179.5,112.833 179.5,109.5 Z"/></g>
<g><path style="opacity:1" fill="#000000" d="M 199.5,109.5 C 202.833,109.5 206.167,109.5 209.5,109.5C 209.5,112.833 209.5,116.167 209.5,119.5C 206.167,119.5 202.833,119.5 199.5,119.5C 199.5,116.167 199.5,112.833 199.5,109.5 Z"/></g>
<g><path style="opacity:1" fill="#f9f9f9" d="M 289.5,109.5 C 292.833,109.5 296.167,109.5 299.5,109.5C 299.5,112.833 299.5,116.167 299.5,119.5C 299.5,122.833 299.5,126.167 299.5,129.5C 292.833,129.5 286.167,129.5 279.5,129.5C 279.5,132.833 279.5,136.167 279.5,139.5C 282.833,139.5 286.167,139.5 289.5,139.5C 289.5,142.833 289.5,146.167 289.5,149.5C 282.833,149.5 276.167,149.5 269.5,149.5C 269.5,146.167 269.5,142.833 269.5,139.5C 266.167,139.5 262.833,139.5 259.5,139.5C 259.5,136.167 259.5,132.833 259.5,129.5C 252.833,129.5 246.167,129.5 239.5,129.5C 239.5,122.833 239.5,116.167 239.5,109.5C 242.833,109.5 246.167,109.5 249.5,109.5C 249.5,112.833 249.5,116.167 249.5,119.5C 259.5,119.5 269.5,119.5 279.5,119.5C 279.5,116.167 279.5,112.833 279.5,109.5C 282.833,109.5 286.167,109.5 289.5,109.5 Z"/></g>
<g><path style="opacity:1" fill="#000000" d="M 289.5,109.5 C 292.833,109.5 296.167,109.5 299.5,109.5C 299.5,112.833 299.5,116.167 299.5,119.5C 296.167,119.5 292.833,119.5 289.5,119.5C 289.5,116.167 289.5,112.833 289.5,109.5 Z"/></g>
<g><path style="opacity:1" fill="#000000" d="M 369.5,139.5 C 369.5,136.167 369.5,132.833 369.5,129.5C 376.167,129.5 382.833,129.5 389.5,129.5C 389.5,122.833 389.5,116.167 389.5,109.5C 392.833,109.5 396.167,109.5 399.5,109.5C 399.5,126.167 399.5,142.833 399.5,159.5C 396.167,159.5 392.833,159.5 389.5,159.5C 389.5,162.833 389.5,166.167 389.5,169.5C 392.833,169.5 396.167,169.5 399.5,169.5C 399.5,179.5 399.5,189.5 399.5,199.5C 396.167,199.5 392.833,199.5 389.5,199.5C 389.5,196.167 389.5,192.833 389.5,189.5C 386.167,189.5 382.833,189.5 379.5,189.5C 379.5,182.833 379.5,176.167 379.5,169.5C 376.167,169.5 372.833,169.5 369.5,169.5C 369.5,172.833 369.5,176.167 369.5,179.5C 362.833,179.5 356.167,179.5 349.5,179.5C 349.5,176.167 349.5,172.833 349.5,169.5C 352.833,169.5 356.167,169.5 359.5,169.5C 359.5,162.833 359.5,156.167 359.5,149.5C 352.833,149.5 346.167,149.5 339.5,149.5C 339.5,152.833 339.5,156.167 339.5,159.5C 336.167,159.5 332.833,159.5 329.5,159.5C 329.5,146.167 329.5,132.833 329.5,119.5C 332.833,119.5 336.167,119.5 339.5,119.5C 339.5,116.167 339.5,112.833 339.5,109.5C 346.167,109.5 352.833,109.5 359.5,109.5C 359.5,119.5 359.5,129.5 359.5,139.5C 362.833,139.5 366.167,139.5 369.5,139.5 Z"/></g>
<g><path style="opacity:1" fill="#f9f9f9" d="M 79.5,149.5 C 79.5,152.833 79.5,156.167 79.5,159.5C 72.8333,159.5 66.1667,159.5 59.5,159.5C 59.5,156.167 59.5,152.833 59.5,149.5C 52.8333,149.5 46.1667,149.5 39.5,149.5C 39.5,146.167 39.5,142.833 39.5,139.5C 46.1667,139.5 52.8333,139.5 59.5,139.5C 59.5,136.167 59.5,132.833 59.5,129.5C 56.1667,129.5 52.8333,129.5 49.5,129.5C 49.5,126.167 49.5,122.833 49.5,119.5C 56.1667,119.5 62.8333,119.5 69.5,119.5C 69.5,129.5 69.5,139.5 69.5,149.5C 72.8333,149.5 76.1667,149.5 79.5,149.5 Z"/></g>
<g><path style="opacity:1" fill="#f9faf9" d="M 109.5,119.5 C 109.5,122.833 109.5,126.167 109.5,129.5C 99.5,129.5 89.5,129.5 79.5,129.5C 79.5,126.167 79.5,122.833 79.5,119.5C 89.5,119.5 99.5,119.5 109.5,119.5 Z"/></g>
<g><path style="opacity:1" fill="#000000" d="M 109.5,119.5 C 112.833,119.5 116.167,119.5 119.5,119.5C 119.5,122.833 119.5,126.167 119.5,129.5C 116.167,129.5 112.833,129.5 109.5,129.5C 109.5,126.167 109.5,122.833 109.5,119.5 Z"/></g>
<g><path style="opacity:1" fill="#f9f9f9" d="M 119.5,119.5 C 122.833,119.5 126.167,119.5 129.5,119.5C 129.5,126.167 129.5,132.833 129.5,139.5C 122.833,139.5 116.167,139.5 109.5,139.5C 109.5,136.167 109.5,132.833 109.5,129.5C 112.833,129.5 116.167,129.5 119.5,129.5C 119.5,126.167 119.5,122.833 119.5,119.5 Z"/></g>
<g><path style="opacity:1" fill="#f9f9f9" d="M 199.5,119.5 C 202.833,119.5 206.167,119.5 209.5,119.5C 209.5,122.833 209.5,126.167 209.5,129.5C 206.167,129.5 202.833,129.5 199.5,129.5C 199.5,126.167 199.5,122.833 199.5,119.5 Z"/></g>
<g><path style="opacity:1" fill="#000000" d="M 209.5,119.5 C 212.833,119.5 216.167,119.5 219.5,119.5C 219.5,122.833 219.5,126.167 219.5,129.5C 216.167,129.5 212.833,129.5 209.5,129.5C 209.5,126.167 209.5,122.833 209.5,119.5 Z"/></g>
<g><path style="opacity:1" fill="#000000" d="M 299.5,119.5 C 302.833,119.5 306.167,119.5 309.5,119.5C 309.5,122.833 309.5,126.167 309.5,129.5C 312.833,129.5 316.167,129.5 319.5,129.5C 319.5,132.833 319.5,136.167 319.5,139.5C 316.167,139.5 312.833,139.5 309.5,139.5C 309.5,142.833 309.5,146.167 309.5,149.5C 312.833,149.5 316.167,149.5 319.5,149.5C 319.5,152.833 319.5,156.167 319.5,159.5C 322.833,159.5 326.167,159.5 329.5,159.5C 329.5,169.5 329.5,179.5 329.5,189.5C 332.833,189.5 336.167,189.5 339.5,189.5C 339.5,192.833 339.5,196.167 339.5,199.5C 342.833,199.5 346.167,199.5 349.5,199.5C 349.5,202.833 349.5,206.167 349.5,209.5C 352.833,209.5 356.167,209.5 359.5,209.5C 359.5,212.833 359.5,216.167 359.5,219.5C 362.833,219.5 366.167,219.5 369.5,219.5C 369.5,222.833 369.5,226.167 369.5,229.5C 376.167,229.5 382.833,229.5 389.5,229.5C 389.5,232.833 389.5,236.167 389.5,239.5C 382.833,239.5 376.167,239.5 369.5,239.5C 369.5,242.833 369.5,246.167 369.5,249.5C 379.5,249.5 389.5,249.5 399.5,249.5C 399.5,256.167 399.5,262.833 399.5,269.5C 392.833,269.5 386.167,269.5 379.5,269.5C 379.5,266.167 379.5,262.833 379.5,259.5C 372.833,259.5 366.167,259.5 359.5,259.5C 359.5,252.833 359.5,246.167 359.5,239.5C 356.167,239.5 352.833,239.5 349.5,239.5C 349.5,242.833 349.5,246.167 349.5,249.5C 346.167,249.5 342.833,249.5 339.5,249.5C 339.5,246.167 339.5,242.833 339.5,239.5C 336.167,239.5 332.833,239.5 329.5,239.5C 329.5,242.833 329.5,246.167 329.5,249.5C 326.167,249.5 322.833,249.5 319.5,249.5C 319.5,242.833 319.5,236.167 319.5,229.5C 316.167,229.5 312.833,229.5 309.5,229.5C 309.5,226.167 309.5,222.833 309.5,219.5C 306.167,219.5 302.833,219.5 299.5,219.5C 299.5,216.167 299.5,212.833 299.5,209.5C 302.833,209.5 306.167,209.5 309.5,209.5C 309.5,206.167 309.5,202.833 309.5,199.5C 302.833,199.5 296.167,199.5 289.5,199.5C 289.5,202.833 289.5,206.167 289.5,209.5C 282.833,209.5 276.167,209.5 269.5,209.5C 269.5,206.167 269.5,202.833 269.5,199.5C 272.833,199.5 276.167,199.5 279.5,199.5C 279.5,196.167 279.5,192.833 279.5,189.5C 276.167,189.5 272.833,189.5 269.5,189.5C 269.5,182.833 269.5,176.167 269.5,169.5C 263.362,170.268 257.695,169.101 252.5,166C 248.179,165.501 243.846,165.334 239.5,165.5C 239.5,163.5 239.5,161.5 239.5,159.5C 246.167,159.5 252.833,159.5 259.5,159.5C 259.5,152.833 259.5,146.167 259.5,139.5C 262.833,139.5 266.167,139.5 269.5,139.5C 269.5,142.833 269.5,146.167 269.5,149.5C 276.167,149.5 282.833,149.5 289.5,149.5C 289.5,146.167 289.5,142.833 289.5,139.5C 286.167,139.5 282.833,139.5 279.5,139.5C 279.5,136.167 279.5,132.833 279.5,129.5C 286.167,129.5 292.833,129.5 299.5,129.5C 299.5,126.167 299.5,122.833 299.5,119.5 Z"/></g>
<g><path style="opacity:1" fill="#f9f9f9" d="M 159.5,139.5 C 156.167,139.5 152.833,139.5 149.5,139.5C 149.5,136.167 149.5,132.833 149.5,129.5C 152.833,129.5 156.167,129.5 159.5,129.5C 159.5,132.833 159.5,136.167 159.5,139.5 Z"/></g>
<g><path style="opacity:1" fill="#f9f9f9" d="M 339.5,129.5 C 342.833,129.5 346.167,129.5 349.5,129.5C 349.5,132.833 349.5,136.167 349.5,139.5C 346.167,139.5 342.833,139.5 339.5,139.5C 339.5,136.167 339.5,132.833 339.5,129.5 Z"/></g>
<g><path style="opacity:1" fill="#000000" d="M 39.5,139.5 C 39.5,142.833 39.5,146.167 39.5,149.5C 46.1667,149.5 52.8333,149.5 59.5,149.5C 59.5,152.833 59.5,156.167 59.5,159.5C 56.1667,159.5 52.8333,159.5 49.5,159.5C 49.5,162.833 49.5,166.167 49.5,169.5C 46.1667,169.5 42.8333,169.5 39.5,169.5C 39.5,172.833 39.5,176.167 39.5,179.5C 36.1667,179.5 32.8333,179.5 29.5,179.5C 29.5,166.167 29.5,152.833 29.5,139.5C 32.8333,139.5 36.1667,139.5 39.5,139.5 Z"/></g>
<g><path style="opacity:1" fill="#f9f9f9" d="M 109.5,139.5 C 109.5,142.833 109.5,146.167 109.5,149.5C 116.167,149.5 122.833,149.5 129.5,149.5C 129.5,152.833 129.5,156.167 129.5,159.5C 126.167,159.5 122.833,159.5 119.5,159.5C 119.5,162.833 119.5,166.167 119.5,169.5C 116.167,169.5 112.833,169.5 109.5,169.5C 109.5,166.167 109.5,162.833 109.5,159.5C 106.167,159.5 102.833,159.5 99.5,159.5C 99.5,156.167 99.5,152.833 99.5,149.5C 92.8333,149.5 86.1667,149.5 79.5,149.5C 79.5,146.167 79.5,142.833 79.5,139.5C 89.5,139.5 99.5,139.5 109.5,139.5 Z"/></g>
<g><path style="opacity:1" fill="#000000" d="M 109.5,139.5 C 116.167,139.5 122.833,139.5 129.5,139.5C 129.5,142.833 129.5,146.167 129.5,149.5C 122.833,149.5 116.167,149.5 109.5,149.5C 109.5,146.167 109.5,142.833 109.5,139.5 Z"/></g>
<g><path style="opacity:1" fill="#f9f9f9" d="M 129.5,139.5 C 132.833,139.5 136.167,139.5 139.5,139.5C 139.5,142.833 139.5,146.167 139.5,149.5C 136.167,149.5 132.833,149.5 129.5,149.5C 129.5,146.167 129.5,142.833 129.5,139.5 Z"/></g>
<g><path style="opacity:1" fill="#f9f9f9" d="M 159.5,139.5 C 162.833,139.5 166.167,139.5 169.5,139.5C 169.5,142.833 169.5,146.167 169.5,149.5C 166.167,149.5 162.833,149.5 159.5,149.5C 159.5,146.167 159.5,142.833 159.5,139.5 Z"/></g>
<g><path style="opacity:1" fill="#f9f9f9" d="M 369.5,139.5 C 372.833,139.5 376.167,139.5 379.5,139.5C 379.5,146.167 379.5,152.833 379.5,159.5C 376.167,159.5 372.833,159.5 369.5,159.5C 369.5,152.833 369.5,146.167 369.5,139.5 Z"/></g>
<g><path style="opacity:1" fill="#000000" d="M 79.5,149.5 C 86.1667,149.5 92.8333,149.5 99.5,149.5C 99.5,152.833 99.5,156.167 99.5,159.5C 96.1667,159.5 92.8333,159.5 89.5,159.5C 89.5,162.833 89.5,166.167 89.5,169.5C 79.5,169.5 69.5,169.5 59.5,169.5C 59.5,166.167 59.5,162.833 59.5,159.5C 66.1667,159.5 72.8333,159.5 79.5,159.5C 79.5,156.167 79.5,152.833 79.5,149.5 Z"/></g>
<g><path style="opacity:1" fill="#f9faf9" d="M 349.5,169.5 C 349.5,166.167 349.5,162.833 349.5,159.5C 346.167,159.5 342.833,159.5 339.5,159.5C 339.5,156.167 339.5,152.833 339.5,149.5C 346.167,149.5 352.833,149.5 359.5,149.5C 359.5,156.167 359.5,162.833 359.5,169.5C 356.167,169.5 352.833,169.5 349.5,169.5 Z"/></g>
<g><path style="opacity:1" fill="#f9f9f9" d="M 59.5,159.5 C 59.5,162.833 59.5,166.167 59.5,169.5C 69.5,169.5 79.5,169.5 89.5,169.5C 89.5,172.833 89.5,176.167 89.5,179.5C 86.1667,179.5 82.8333,179.5 79.5,179.5C 79.5,182.833 79.5,186.167 79.5,189.5C 72.8333,189.5 66.1667,189.5 59.5,189.5C 59.5,192.833 59.5,196.167 59.5,199.5C 56.1667,199.5 52.8333,199.5 49.5,199.5C 49.5,192.833 49.5,186.167 49.5,179.5C 46.1667,179.5 42.8333,179.5 39.5,179.5C 39.5,176.167 39.5,172.833 39.5,169.5C 42.8333,169.5 46.1667,169.5 49.5,169.5C 49.5,166.167 49.5,162.833 49.5,159.5C 52.8333,159.5 56.1667,159.5 59.5,159.5 Z"/></g>
<g><path style="opacity:1" fill="#f9f9f9" d="M 99.5,159.5 C 99.5,162.833 99.5,166.167 99.5,169.5C 96.1667,169.5 92.8333,169.5 89.5,169.5C 89.5,166.167 89.5,162.833 89.5,159.5C 92.8333,159.5 96.1667,159.5 99.5,159.5 Z"/></g>
<g><path style="opacity:1" fill="#000000" d="M 99.5,159.5 C 102.833,159.5 106.167,159.5 109.5,159.5C 109.5,162.833 109.5,166.167 109.5,169.5C 106.167,169.5 102.833,169.5 99.5,169.5C 99.5,166.167 99.5,162.833 99.5,159.5 Z"/></g>
<g><path style="opacity:1" fill="#f9f9f9" d="M 269.5,169.5 C 269.5,166.167 269.5,162.833 269.5,159.5C 272.833,159.5 276.167,159.5 279.5,159.5C 279.5,162.833 279.5,166.167 279.5,169.5C 276.167,169.5 272.833,169.5 269.5,169.5 Z"/></g>
<g><path style="opacity:1" fill="#f9f9f9" d="M 309.5,169.5 C 302.833,169.5 296.167,169.5 289.5,169.5C 289.5,166.167 289.5,162.833 289.5,159.5C 296.167,159.5 302.833,159.5 309.5,159.5C 309.5,162.833 309.5,166.167 309.5,169.5 Z"/></g>
<g><path style="opacity:1" fill="#f9f9f9" d="M 329.5,159.5 C 332.833,159.5 336.167,159.5 339.5,159.5C 342.833,159.5 346.167,159.5 349.5,159.5C 349.5,162.833 349.5,166.167 349.5,169.5C 349.5,172.833 349.5,176.167 349.5,179.5C 356.167,179.5 362.833,179.5 369.5,179.5C 369.5,176.167 369.5,172.833 369.5,169.5C 372.833,169.5 376.167,169.5 379.5,169.5C 379.5,176.167 379.5,182.833 379.5,189.5C 376.167,189.5 372.833,189.5 369.5,189.5C 369.5,192.833 369.5,196.167 369.5,199.5C 366.167,199.5 362.833,199.5 359.5,199.5C 359.5,196.167 359.5,192.833 359.5,189.5C 356.167,189.5 352.833,189.5 349.5,189.5C 349.5,192.833 349.5,196.167 349.5,199.5C 346.167,199.5 342.833,199.5 339.5,199.5C 339.5,196.167 339.5,192.833 339.5,189.5C 336.167,189.5 332.833,189.5 329.5,189.5C 329.5,179.5 329.5,169.5 329.5,159.5 Z"/></g>
<g><path style="opacity:1" fill="#000000" d="M 339.5,159.5 C 342.833,159.5 346.167,159.5 349.5,159.5C 349.5,162.833 349.5,166.167 349.5,169.5C 346.167,169.5 342.833,169.5 339.5,169.5C 339.5,166.167 339.5,162.833 339.5,159.5 Z"/></g>
<g><path style="opacity:1" fill="#000000" d="M 89.5,169.5 C 92.8333,169.5 96.1667,169.5 99.5,169.5C 99.5,172.833 99.5,176.167 99.5,179.5C 96.1667,179.5 92.8333,179.5 89.5,179.5C 89.5,176.167 89.5,172.833 89.5,169.5 Z"/></g>
<g><path style="opacity:1" fill="#f9f9f9" d="M 99.5,169.5 C 102.833,169.5 106.167,169.5 109.5,169.5C 109.5,176.167 109.5,182.833 109.5,189.5C 102.833,189.5 96.1667,189.5 89.5,189.5C 89.5,186.167 89.5,182.833 89.5,179.5C 92.8333,179.5 96.1667,179.5 99.5,179.5C 99.5,176.167 99.5,172.833 99.5,169.5 Z"/></g>
<g><path style="opacity:1" fill="#000000" d="M 109.5,169.5 C 112.833,169.5 116.167,169.5 119.5,169.5C 119.5,176.167 119.5,182.833 119.5,189.5C 116.167,189.5 112.833,189.5 109.5,189.5C 109.5,182.833 109.5,176.167 109.5,169.5 Z"/></g>
<g><path style="opacity:1" fill="#f9f9f9" d="M 119.5,169.5 C 122.833,169.5 126.167,169.5 129.5,169.5C 129.5,176.167 129.5,182.833 129.5,189.5C 126.167,189.5 122.833,189.5 119.5,189.5C 119.5,182.833 119.5,176.167 119.5,169.5 Z"/></g>
<g><path style="opacity:1" fill="#f9f9f9" d="M 309.5,169.5 C 312.833,169.5 316.167,169.5 319.5,169.5C 319.5,176.167 319.5,182.833 319.5,189.5C 312.833,189.5 306.167,189.5 299.5,189.5C 299.5,186.167 299.5,182.833 299.5,179.5C 302.833,179.5 306.167,179.5 309.5,179.5C 309.5,176.167 309.5,172.833 309.5,169.5 Z"/></g>
<g><path style="opacity:1" fill="#000000" d="M 39.5,179.5 C 42.8333,179.5 46.1667,179.5 49.5,179.5C 49.5,186.167 49.5,192.833 49.5,199.5C 46.1667,199.5 42.8333,199.5 39.5,199.5C 39.5,192.833 39.5,186.167 39.5,179.5 Z"/></g>
<g><path style="opacity:1" fill="#000000" d="M 89.5,179.5 C 89.5,182.833 89.5,186.167 89.5,189.5C 86.1667,189.5 82.8333,189.5 79.5,189.5C 79.5,186.167 79.5,182.833 79.5,179.5C 82.8333,179.5 86.1667,179.5 89.5,179.5 Z"/></g>
<g><path style="opacity:1" fill="#f8f8f8" d="M 199.5,129.5 C 199.5,132.833 199.5,136.167 199.5,139.5C 202.833,139.5 206.167,139.5 209.5,139.5C 209.5,136.167 209.5,132.833 209.5,129.5C 212.833,129.5 216.167,129.5 219.5,129.5C 219.5,132.833 219.5,136.167 219.5,139.5C 226.167,139.5 232.833,139.5 239.5,139.5C 239.5,142.833 239.5,146.167 239.5,149.5C 242.833,149.5 246.167,149.5 249.5,149.5C 249.5,146.167 249.5,142.833 249.5,139.5C 252.833,139.5 256.167,139.5 259.5,139.5C 259.5,146.167 259.5,152.833 259.5,159.5C 252.833,159.5 246.167,159.5 239.5,159.5C 239.5,161.5 239.5,163.5 239.5,165.5C 243.846,165.334 248.179,165.501 252.5,166C 257.695,169.101 263.362,170.268 269.5,169.5C 269.5,176.167 269.5,182.833 269.5,189.5C 267.5,189.5 265.5,189.5 263.5,189.5C 263.5,192.833 263.5,196.167 263.5,199.5C 265.5,199.5 267.5,199.5 269.5,199.5C 269.5,202.833 269.5,206.167 269.5,209.5C 276.167,209.5 282.833,209.5 289.5,209.5C 289.5,206.167 289.5,202.833 289.5,199.5C 296.167,199.5 302.833,199.5 309.5,199.5C 309.5,202.833 309.5,206.167 309.5,209.5C 306.167,209.5 302.833,209.5 299.5,209.5C 299.5,212.833 299.5,216.167 299.5,219.5C 302.833,219.5 306.167,219.5 309.5,219.5C 309.5,222.833 309.5,226.167 309.5,229.5C 312.833,229.5 316.167,229.5 319.5,229.5C 319.5,236.167 319.5,242.833 319.5,249.5C 312.833,249.5 306.167,249.5 299.5,249.5C 299.5,252.833 299.5,256.167 299.5,259.5C 302.833,259.5 306.167,259.5 309.5,259.5C 309.5,262.833 309.5,266.167 309.5,269.5C 316.167,269.5 322.833,269.5 329.5,269.5C 329.5,272.833 329.5,276.167 329.5,279.5C 316.167,279.5 302.833,279.5 289.5,279.5C 289.5,289.5 289.5,299.5 289.5,309.5C 286.167,309.5 282.833,309.5 279.5,309.5C 279.5,292.833 279.5,276.167 279.5,259.5C 276.167,259.5 272.833,259.5 269.5,259.5C 269.5,266.167 269.5,272.833 269.5,279.5C 266.167,279.5 262.833,279.5 259.5,279.5C 259.666,272.825 259.5,266.158 259,259.5C 257.2,261.317 255.034,262.484 252.5,263C 248.179,263.499 243.846,263.666 239.5,263.5C 236.167,263.5 232.833,263.5 229.5,263.5C 226.167,263.5 222.833,263.5 219.5,263.5C 212.833,263.5 206.167,263.5 199.5,263.5C 196.167,263.5 192.833,263.5 189.5,263.5C 189.5,265.5 189.5,267.5 189.5,269.5C 182.833,269.5 176.167,269.5 169.5,269.5C 169.5,266.167 169.5,262.833 169.5,259.5C 166.167,259.5 162.833,259.5 159.5,259.5C 159.5,262.833 159.5,266.167 159.5,269.5C 156.167,269.5 152.833,269.5 149.5,269.5C 149.5,272.833 149.5,276.167 149.5,279.5C 146.167,279.5 142.833,279.5 139.5,279.5C 139.5,272.833 139.5,266.167 139.5,259.5C 142.833,259.5 146.167,259.5 149.5,259.5C 149.5,256.167 149.5,252.833 149.5,249.5C 154.833,249.5 160.167,249.5 165.5,249.5C 165.5,242.833 165.5,236.167 165.5,229.5C 160.167,229.5 154.833,229.5 149.5,229.5C 149.5,232.833 149.5,236.167 149.5,239.5C 146.167,239.5 142.833,239.5 139.5,239.5C 139.5,226.167 139.5,212.833 139.5,199.5C 142.833,199.5 146.167,199.5 149.5,199.5C 149.5,206.167 149.5,212.833 149.5,219.5C 152.833,219.5 156.167,219.5 159.5,219.5C 159.5,212.833 159.5,206.167 159.5,199.5C 161.5,199.5 163.5,199.5 165.5,199.5C 165.5,196.167 165.5,192.833 165.5,189.5C 163.5,189.5 161.5,189.5 159.5,189.5C 159.5,186.167 159.5,182.833 159.5,179.5C 161.5,179.5 163.5,179.5 165.5,179.5C 165.784,176.148 166.95,173.148 169,170.5C 169.499,166.848 169.665,163.182 169.5,159.5C 172.833,159.5 176.167,159.5 179.5,159.5C 179.5,161.5 179.5,163.5 179.5,165.5C 182.833,165.5 186.167,165.5 189.5,165.5C 189.5,163.5 189.5,161.5 189.5,159.5C 192.833,159.5 196.167,159.5 199.5,159.5C 199.5,156.167 199.5,152.833 199.5,149.5C 192.833,149.5 186.167,149.5 179.5,149.5C 179.5,146.167 179.5,142.833 179.5,139.5C 176.167,139.5 172.833,139.5 169.5,139.5C 169.5,136.167 169.5,132.833 169.5,129.5C 179.5,129.5 189.5,129.5 199.5,129.5 Z"/></g>
<g><path style="opacity:1" fill="#e9f5f5" d="M 258.5,229.5 C 258.167,229.5 257.833,229.5 257.5,229.5C 252.833,229.5 248.167,229.5 243.5,229.5C 242.196,216.755 238.196,204.922 231.5,194C 230.5,193.333 229.5,193.333 228.5,194C 225.92,197.158 223.587,200.492 221.5,204C 218.5,204.667 215.5,204.667 212.5,204C 210.787,200.07 208.453,196.57 205.5,193.5C 201.593,198.302 198.426,203.635 196,209.5C 194.926,210.618 193.76,211.618 192.5,212.5C 193.167,213.167 193.833,213.833 194.5,214.5C 193.118,219.457 192.284,224.457 192,229.5C 194.978,231.382 198.145,232.882 201.5,234C 199.142,237.548 197.475,241.381 196.5,245.5C 196.196,246.15 195.863,246.817 195.5,247.5C 191.555,248.491 187.555,248.824 183.5,248.5C 183.5,245.5 183.5,242.5 183.5,239.5C 180.757,239.077 179.424,240.244 179.5,243C 180.074,244.607 180.74,246.107 181.5,247.5C 178.167,247.5 174.833,247.5 171.5,247.5C 171.667,224.498 171.5,201.498 171,178.5C 170.5,198.497 170.333,218.497 170.5,238.5C 169.498,218.935 168.998,199.268 169,179.5C 168.572,184.498 167.739,184.665 166.5,180C 167.337,178.989 167.67,177.822 167.5,176.5C 170.731,176.441 173.065,174.941 174.5,172C 175.5,171.667 176.5,171.333 177.5,171C 203.254,170.019 228.921,170.352 254.5,172C 256.041,173.579 257.208,175.413 258,177.5C 258.5,194.83 258.667,212.163 258.5,229.5 Z"/></g>
<g><path style="opacity:1" fill="#070707" d="M 219.5,159.5 C 222.833,159.5 226.167,159.5 229.5,159.5C 229.5,161.5 229.5,163.5 229.5,165.5C 226.167,165.5 222.833,165.5 219.5,165.5C 219.5,163.5 219.5,161.5 219.5,159.5 Z"/></g>
<g><path style="opacity:1" fill="#000000" d="M 199.5,129.5 C 202.833,129.5 206.167,129.5 209.5,129.5C 209.5,132.833 209.5,136.167 209.5,139.5C 206.167,139.5 202.833,139.5 199.5,139.5C 199.5,136.167 199.5,132.833 199.5,129.5 Z"/></g>
<g><path style="opacity:1" fill="#f9f9f9" d="M 279.5,189.5 C 279.5,186.167 279.5,182.833 279.5,179.5C 282.833,179.5 286.167,179.5 289.5,179.5C 289.5,182.833 289.5,186.167 289.5,189.5C 286.167,189.5 282.833,189.5 279.5,189.5 Z"/></g>
<g><path style="opacity:1" fill="#aeb5b6" d="M 181.5,247.5 C 178.038,248.482 174.371,248.815 170.5,248.5C 170.5,245.167 170.5,241.833 170.5,238.5C 170.333,218.497 170.5,198.497 171,178.5C 171.5,201.498 171.667,224.498 171.5,247.5C 174.833,247.5 178.167,247.5 181.5,247.5 Z"/></g>
<g><path style="opacity:1" fill="#000000" d="M 79.5,189.5 C 79.5,192.833 79.5,196.167 79.5,199.5C 72.8333,199.5 66.1667,199.5 59.5,199.5C 59.5,196.167 59.5,192.833 59.5,189.5C 66.1667,189.5 72.8333,189.5 79.5,189.5 Z"/></g>
<g><path style="opacity:1" fill="#f9faf9" d="M 79.5,189.5 C 82.8333,189.5 86.1667,189.5 89.5,189.5C 89.5,192.833 89.5,196.167 89.5,199.5C 86.1667,199.5 82.8333,199.5 79.5,199.5C 79.5,196.167 79.5,192.833 79.5,189.5 Z"/></g>
<g><path style="opacity:1" fill="#000000" d="M 89.5,189.5 C 96.1667,189.5 102.833,189.5 109.5,189.5C 109.5,192.833 109.5,196.167 109.5,199.5C 102.833,199.5 96.1667,199.5 89.5,199.5C 89.5,196.167 89.5,192.833 89.5,189.5 Z"/></g>
<g><path style="opacity:1" fill="#f9faf9" d="M 109.5,189.5 C 112.833,189.5 116.167,189.5 119.5,189.5C 119.5,192.833 119.5,196.167 119.5,199.5C 116.167,199.5 112.833,199.5 109.5,199.5C 109.5,196.167 109.5,192.833 109.5,189.5 Z"/></g>
<g><path style="opacity:1" fill="#060706" d="M 269.5,189.5 C 269.5,192.833 269.5,196.167 269.5,199.5C 267.5,199.5 265.5,199.5 263.5,199.5C 263.5,196.167 263.5,192.833 263.5,189.5C 265.5,189.5 267.5,189.5 269.5,189.5 Z"/></g>
<g><path style="opacity:1" fill="#f9f9f9" d="M 269.5,189.5 C 272.833,189.5 276.167,189.5 279.5,189.5C 279.5,192.833 279.5,196.167 279.5,199.5C 276.167,199.5 272.833,199.5 269.5,199.5C 269.5,196.167 269.5,192.833 269.5,189.5 Z"/></g>
<g><path style="opacity:1" fill="#000000" d="M 359.5,199.5 C 356.167,199.5 352.833,199.5 349.5,199.5C 349.5,196.167 349.5,192.833 349.5,189.5C 352.833,189.5 356.167,189.5 359.5,189.5C 359.5,192.833 359.5,196.167 359.5,199.5 Z"/></g>
<g><path style="opacity:1" fill="#000000" d="M 379.5,189.5 C 379.5,192.833 379.5,196.167 379.5,199.5C 376.167,199.5 372.833,199.5 369.5,199.5C 369.5,196.167 369.5,192.833 369.5,189.5C 372.833,189.5 376.167,189.5 379.5,189.5 Z"/></g>
<g><path style="opacity:1" fill="#000000" d="M 49.5,199.5 C 52.8333,199.5 56.1667,199.5 59.5,199.5C 59.5,202.833 59.5,206.167 59.5,209.5C 56.1667,209.5 52.8333,209.5 49.5,209.5C 49.5,206.167 49.5,202.833 49.5,199.5 Z"/></g>
<g><path style="opacity:1" fill="#f9f9f9" d="M 59.5,199.5 C 66.1667,199.5 72.8333,199.5 79.5,199.5C 79.5,202.833 79.5,206.167 79.5,209.5C 82.8333,209.5 86.1667,209.5 89.5,209.5C 89.5,212.833 89.5,216.167 89.5,219.5C 96.1667,219.5 102.833,219.5 109.5,219.5C 109.5,216.167 109.5,212.833 109.5,209.5C 112.833,209.5 116.167,209.5 119.5,209.5C 119.5,212.833 119.5,216.167 119.5,219.5C 122.833,219.5 126.167,219.5 129.5,219.5C 129.5,229.5 129.5,239.5 129.5,249.5C 132.833,249.5 136.167,249.5 139.5,249.5C 139.5,252.833 139.5,256.167 139.5,259.5C 132.833,259.5 126.167,259.5 119.5,259.5C 119.5,249.5 119.5,239.5 119.5,229.5C 109.5,229.5 99.5,229.5 89.5,229.5C 89.5,232.833 89.5,236.167 89.5,239.5C 92.8333,239.5 96.1667,239.5 99.5,239.5C 99.5,242.833 99.5,246.167 99.5,249.5C 92.8333,249.5 86.1667,249.5 79.5,249.5C 79.5,252.833 79.5,256.167 79.5,259.5C 76.1667,259.5 72.8333,259.5 69.5,259.5C 69.5,252.833 69.5,246.167 69.5,239.5C 72.8333,239.5 76.1667,239.5 79.5,239.5C 79.5,232.833 79.5,226.167 79.5,219.5C 72.8333,219.5 66.1667,219.5 59.5,219.5C 59.5,226.167 59.5,232.833 59.5,239.5C 52.8333,239.5 46.1667,239.5 39.5,239.5C 39.5,236.167 39.5,232.833 39.5,229.5C 42.8333,229.5 46.1667,229.5 49.5,229.5C 49.5,222.833 49.5,216.167 49.5,209.5C 52.8333,209.5 56.1667,209.5 59.5,209.5C 59.5,206.167 59.5,202.833 59.5,199.5 Z"/></g>
<g><path style="opacity:1" fill="#000000" d="M 79.5,199.5 C 82.8333,199.5 86.1667,199.5 89.5,199.5C 89.5,202.833 89.5,206.167 89.5,209.5C 86.1667,209.5 82.8333,209.5 79.5,209.5C 79.5,206.167 79.5,202.833 79.5,199.5 Z"/></g>
<g><path style="opacity:1" fill="#f9f9f9" d="M 89.5,199.5 C 96.1667,199.5 102.833,199.5 109.5,199.5C 109.5,202.833 109.5,206.167 109.5,209.5C 102.833,209.5 96.1667,209.5 89.5,209.5C 89.5,206.167 89.5,202.833 89.5,199.5 Z"/></g>
<g><path style="opacity:1" fill="#f9faf9" d="M 339.5,199.5 C 339.5,202.833 339.5,206.167 339.5,209.5C 332.833,209.5 326.167,209.5 319.5,209.5C 319.5,206.167 319.5,202.833 319.5,199.5C 326.167,199.5 332.833,199.5 339.5,199.5 Z"/></g>
<g><path style="opacity:1" fill="#f9f9f9" d="M 349.5,199.5 C 352.833,199.5 356.167,199.5 359.5,199.5C 359.5,202.833 359.5,206.167 359.5,209.5C 356.167,209.5 352.833,209.5 349.5,209.5C 349.5,206.167 349.5,202.833 349.5,199.5 Z"/></g>
<g><path style="opacity:1" fill="#000000" d="M 359.5,199.5 C 362.833,199.5 366.167,199.5 369.5,199.5C 369.5,202.833 369.5,206.167 369.5,209.5C 366.167,209.5 362.833,209.5 359.5,209.5C 359.5,206.167 359.5,202.833 359.5,199.5 Z"/></g>
<g><path style="opacity:1" fill="#6a7784" d="M 257.5,229.5 C 257.423,230.75 256.756,231.583 255.5,232C 247.507,232.5 239.507,232.666 231.5,232.5C 231.5,231.5 231.5,230.5 231.5,229.5C 234.518,229.665 237.518,229.498 240.5,229C 241.097,227.938 241.43,226.772 241.5,225.5C 239.526,216.553 236.693,207.886 233,199.5C 232.346,198.304 231.846,198.304 231.5,199.5C 232.577,201.729 233.244,204.063 233.5,206.5C 229.959,206.394 226.792,205.394 224,203.5C 222.24,205.569 219.907,206.569 217,206.5C 214.698,206.4 212.698,205.733 211,204.5C 208.583,206.128 206.083,207.461 203.5,208.5C 200.685,209.324 198.518,210.991 197,213.5C 195.894,217.867 194.728,222.2 193.5,226.5C 193.64,228.03 194.307,229.03 195.5,229.5C 199.573,231.21 203.573,232.877 207.5,234.5C 210.448,237.312 214.448,239.312 219.5,240.5C 219.895,243.523 218.895,244.523 216.5,243.5C 215.246,245.259 215.579,246.759 217.5,248C 216.627,249.045 215.627,249.878 214.5,250.5C 214.08,244.914 211.08,242.414 205.5,243C 204.707,244.085 204.04,245.252 203.5,246.5C 205.394,247.945 207.06,249.612 208.5,251.5C 204.894,251.061 202.728,249.061 202,245.5C 201.092,247.439 199.592,248.439 197.5,248.5C 197.737,247.209 197.404,246.209 196.5,245.5C 197.475,241.381 199.142,237.548 201.5,234C 198.145,232.882 194.978,231.382 192,229.5C 192.284,224.457 193.118,219.457 194.5,214.5C 193.833,213.833 193.167,213.167 192.5,212.5C 193.76,211.618 194.926,210.618 196,209.5C 198.426,203.635 201.593,198.302 205.5,193.5C 208.453,196.57 210.787,200.07 212.5,204C 215.5,204.667 218.5,204.667 221.5,204C 223.587,200.492 225.92,197.158 228.5,194C 229.5,193.333 230.5,193.333 231.5,194C 238.196,204.922 242.196,216.755 243.5,229.5C 248.167,229.5 252.833,229.5 257.5,229.5 Z"/></g>
<g><path style="opacity:1" fill="#f3f6f6" d="M 231.5,229.5 C 231.167,229.5 230.833,229.5 230.5,229.5C 229.834,232.028 229.168,234.694 228.5,237.5C 226.651,238.593 224.984,239.926 223.5,241.5C 218.342,238.78 213.009,236.447 207.5,234.5C 203.573,232.877 199.573,231.21 195.5,229.5C 196.01,224.789 196.844,220.122 198,215.5C 199.316,212.692 201.15,210.359 203.5,208.5C 206.083,207.461 208.583,206.128 211,204.5C 212.698,205.733 214.698,206.4 217,206.5C 219.907,206.569 222.24,205.569 224,203.5C 226.792,205.394 229.959,206.394 233.5,206.5C 233.244,204.063 232.577,201.729 231.5,199.5C 231.846,198.304 232.346,198.304 233,199.5C 236.693,207.886 239.526,216.553 241.5,225.5C 241.43,226.772 241.097,227.938 240.5,229C 237.518,229.498 234.518,229.665 231.5,229.5 Z"/></g>
<g><path style="opacity:1" fill="#000000" d="M 49.5,209.5 C 49.5,216.167 49.5,222.833 49.5,229.5C 46.1667,229.5 42.8333,229.5 39.5,229.5C 39.5,232.833 39.5,236.167 39.5,239.5C 36.1667,239.5 32.8333,239.5 29.5,239.5C 29.5,229.5 29.5,219.5 29.5,209.5C 36.1667,209.5 42.8333,209.5 49.5,209.5 Z"/></g>
<g><path style="opacity:1" fill="#000000" d="M 89.5,209.5 C 96.1667,209.5 102.833,209.5 109.5,209.5C 109.5,212.833 109.5,216.167 109.5,219.5C 102.833,219.5 96.1667,219.5 89.5,219.5C 89.5,216.167 89.5,212.833 89.5,209.5 Z"/></g>
<g><path style="opacity:1" fill="#000000" d="M 379.5,209.5 C 386.167,209.5 392.833,209.5 399.5,209.5C 399.5,212.833 399.5,216.167 399.5,219.5C 392.833,219.5 386.167,219.5 379.5,219.5C 379.5,216.167 379.5,212.833 379.5,209.5 Z"/></g>
<g><path style="opacity:1" fill="#a3b0c0" d="M 203.5,208.5 C 201.15,210.359 199.316,212.692 198,215.5C 196.844,220.122 196.01,224.789 195.5,229.5C 194.307,229.03 193.64,228.03 193.5,226.5C 194.728,222.2 195.894,217.867 197,213.5C 198.518,210.991 200.685,209.324 203.5,208.5 Z"/></g>
<g><path style="opacity:1" fill="#000000" d="M 69.5,259.5 C 66.1667,259.5 62.8333,259.5 59.5,259.5C 59.5,256.167 59.5,252.833 59.5,249.5C 56.1667,249.5 52.8333,249.5 49.5,249.5C 49.5,252.833 49.5,256.167 49.5,259.5C 46.1667,259.5 42.8333,259.5 39.5,259.5C 39.5,252.833 39.5,246.167 39.5,239.5C 46.1667,239.5 52.8333,239.5 59.5,239.5C 59.5,232.833 59.5,226.167 59.5,219.5C 66.1667,219.5 72.8333,219.5 79.5,219.5C 79.5,226.167 79.5,232.833 79.5,239.5C 76.1667,239.5 72.8333,239.5 69.5,239.5C 69.5,246.167 69.5,252.833 69.5,259.5 Z"/></g>
<g><path style="opacity:1" fill="#000000" d="M 299.5,249.5 C 296.167,249.5 292.833,249.5 289.5,249.5C 289.5,246.167 289.5,242.833 289.5,239.5C 282.833,239.5 276.167,239.5 269.5,239.5C 269.5,232.833 269.5,226.167 269.5,219.5C 272.833,219.5 276.167,219.5 279.5,219.5C 279.5,222.833 279.5,226.167 279.5,229.5C 286.167,229.5 292.833,229.5 299.5,229.5C 299.5,236.167 299.5,242.833 299.5,249.5 Z"/></g>
<g><path style="opacity:1" fill="#f9f9f9" d="M 359.5,219.5 C 359.5,222.833 359.5,226.167 359.5,229.5C 352.833,229.5 346.167,229.5 339.5,229.5C 339.5,226.167 339.5,222.833 339.5,219.5C 346.167,219.5 352.833,219.5 359.5,219.5 Z"/></g>
<g><path style="opacity:1" fill="#52606e" d="M 212.5,216.5 C 214.017,216.511 215.184,217.177 216,218.5C 216.499,222.152 216.665,225.818 216.5,229.5C 214.833,229.5 213.167,229.5 211.5,229.5C 209.897,224.959 210.23,220.626 212.5,216.5 Z"/></g>
<g><path style="opacity:1" fill="#565f6e" d="M 226.5,215.5 C 227.75,215.577 228.583,216.244 229,217.5C 229.667,220.833 229.667,224.167 229,227.5C 227.989,228.337 226.822,228.67 225.5,228.5C 223.864,223.969 224.198,219.636 226.5,215.5 Z"/></g>
<g><path style="opacity:1" fill="#000000" d="M 139.5,259.5 C 139.5,266.167 139.5,272.833 139.5,279.5C 136.167,279.5 132.833,279.5 129.5,279.5C 129.5,289.5 129.5,299.5 129.5,309.5C 136.167,309.5 142.833,309.5 149.5,309.5C 149.5,312.833 149.5,316.167 149.5,319.5C 146.167,319.5 142.833,319.5 139.5,319.5C 139.5,322.833 139.5,326.167 139.5,329.5C 132.833,329.5 126.167,329.5 119.5,329.5C 119.5,332.833 119.5,336.167 119.5,339.5C 122.833,339.5 126.167,339.5 129.5,339.5C 129.5,342.833 129.5,346.167 129.5,349.5C 126.167,349.5 122.833,349.5 119.5,349.5C 119.5,352.833 119.5,356.167 119.5,359.5C 122.833,359.5 126.167,359.5 129.5,359.5C 129.5,362.833 129.5,366.167 129.5,369.5C 126.167,369.5 122.833,369.5 119.5,369.5C 119.5,376.167 119.5,382.833 119.5,389.5C 116.167,389.5 112.833,389.5 109.5,389.5C 109.5,366.167 109.5,342.833 109.5,319.5C 112.833,319.5 116.167,319.5 119.5,319.5C 119.5,316.167 119.5,312.833 119.5,309.5C 112.833,309.5 106.167,309.5 99.5,309.5C 99.5,312.833 99.5,316.167 99.5,319.5C 92.8333,319.5 86.1667,319.5 79.5,319.5C 79.5,316.167 79.5,312.833 79.5,309.5C 76.1667,309.5 72.8333,309.5 69.5,309.5C 69.5,306.167 69.5,302.833 69.5,299.5C 72.8333,299.5 76.1667,299.5 79.5,299.5C 79.5,296.167 79.5,292.833 79.5,289.5C 76.1667,289.5 72.8333,289.5 69.5,289.5C 69.5,279.5 69.5,269.5 69.5,259.5C 72.8333,259.5 76.1667,259.5 79.5,259.5C 79.5,262.833 79.5,266.167 79.5,269.5C 86.1667,269.5 92.8333,269.5 99.5,269.5C 99.5,266.167 99.5,262.833 99.5,259.5C 102.833,259.5 106.167,259.5 109.5,259.5C 109.5,256.167 109.5,252.833 109.5,249.5C 106.167,249.5 102.833,249.5 99.5,249.5C 99.5,246.167 99.5,242.833 99.5,239.5C 96.1667,239.5 92.8333,239.5 89.5,239.5C 89.5,236.167 89.5,232.833 89.5,229.5C 99.5,229.5 109.5,229.5 119.5,229.5C 119.5,239.5 119.5,249.5 119.5,259.5C 126.167,259.5 132.833,259.5 139.5,259.5 Z"/></g>
<g><path style="opacity:1" fill="#585b66" d="M 230.5,229.5 C 230.833,229.5 231.167,229.5 231.5,229.5C 231.5,230.5 231.5,231.5 231.5,232.5C 239.507,232.666 247.507,232.5 255.5,232C 256.756,231.583 257.423,230.75 257.5,229.5C 257.833,229.5 258.167,229.5 258.5,229.5C 258.666,236.841 258.5,244.174 258,251.5C 256.5,254.333 254.333,256.5 251.5,258C 227.169,258.5 202.836,258.667 178.5,258.5C 185.313,257.509 192.313,257.175 199.5,257.5C 211.171,257.667 222.838,257.5 234.5,257C 232.602,256.36 232.268,255.027 233.5,253C 233.198,250.6 232.532,248.434 231.5,246.5C 231.537,240.887 231.203,235.22 230.5,229.5 Z"/></g>
<g><path style="opacity:1" fill="#f9f9f9" d="M 339.5,249.5 C 336.167,249.5 332.833,249.5 329.5,249.5C 329.5,246.167 329.5,242.833 329.5,239.5C 332.833,239.5 336.167,239.5 339.5,239.5C 339.5,242.833 339.5,246.167 339.5,249.5 Z"/></g>
<g><path style="opacity:1" fill="#f9f9f9" d="M 379.5,269.5 C 372.833,269.5 366.167,269.5 359.5,269.5C 359.5,272.833 359.5,276.167 359.5,279.5C 362.833,279.5 366.167,279.5 369.5,279.5C 369.5,282.833 369.5,286.167 369.5,289.5C 366.167,289.5 362.833,289.5 359.5,289.5C 359.5,292.833 359.5,296.167 359.5,299.5C 362.833,299.5 366.167,299.5 369.5,299.5C 369.5,302.833 369.5,306.167 369.5,309.5C 352.833,309.5 336.167,309.5 319.5,309.5C 319.5,306.167 319.5,302.833 319.5,299.5C 316.167,299.5 312.833,299.5 309.5,299.5C 309.5,306.167 309.5,312.833 309.5,319.5C 306.167,319.5 302.833,319.5 299.5,319.5C 299.5,309.5 299.5,299.5 299.5,289.5C 312.833,289.5 326.167,289.5 339.5,289.5C 339.5,286.167 339.5,282.833 339.5,279.5C 342.833,279.5 346.167,279.5 349.5,279.5C 349.5,272.833 349.5,266.167 349.5,259.5C 346.167,259.5 342.833,259.5 339.5,259.5C 339.5,256.167 339.5,252.833 339.5,249.5C 342.833,249.5 346.167,249.5 349.5,249.5C 349.5,246.167 349.5,242.833 349.5,239.5C 352.833,239.5 356.167,239.5 359.5,239.5C 359.5,246.167 359.5,252.833 359.5,259.5C 366.167,259.5 372.833,259.5 379.5,259.5C 379.5,262.833 379.5,266.167 379.5,269.5 Z"/></g>
<g><path style="opacity:1" fill="#e5f2f5" d="M 214.5,250.5 C 212.621,251.341 210.621,251.675 208.5,251.5C 207.06,249.612 205.394,247.945 203.5,246.5C 204.04,245.252 204.707,244.085 205.5,243C 211.08,242.414 214.08,244.914 214.5,250.5 Z"/></g>
<g><path style="opacity:1" fill="#f9f9f9" d="M 59.5,259.5 C 56.1667,259.5 52.8333,259.5 49.5,259.5C 49.5,256.167 49.5,252.833 49.5,249.5C 52.8333,249.5 56.1667,249.5 59.5,249.5C 59.5,252.833 59.5,256.167 59.5,259.5 Z"/></g>
<g><path style="opacity:1" fill="#000000" d="M 99.5,249.5 C 99.5,252.833 99.5,256.167 99.5,259.5C 92.8333,259.5 86.1667,259.5 79.5,259.5C 79.5,256.167 79.5,252.833 79.5,249.5C 86.1667,249.5 92.8333,249.5 99.5,249.5 Z"/></g>
<g><path style="opacity:1" fill="#f9f9f9" d="M 99.5,249.5 C 102.833,249.5 106.167,249.5 109.5,249.5C 109.5,252.833 109.5,256.167 109.5,259.5C 106.167,259.5 102.833,259.5 99.5,259.5C 99.5,256.167 99.5,252.833 99.5,249.5 Z"/></g>
<g><path style="opacity:1" fill="#000000" d="M 299.5,249.5 C 306.167,249.5 312.833,249.5 319.5,249.5C 319.5,252.833 319.5,256.167 319.5,259.5C 322.833,259.5 326.167,259.5 329.5,259.5C 329.5,256.167 329.5,252.833 329.5,249.5C 332.833,249.5 336.167,249.5 339.5,249.5C 339.5,252.833 339.5,256.167 339.5,259.5C 342.833,259.5 346.167,259.5 349.5,259.5C 349.5,266.167 349.5,272.833 349.5,279.5C 346.167,279.5 342.833,279.5 339.5,279.5C 339.5,282.833 339.5,286.167 339.5,289.5C 326.167,289.5 312.833,289.5 299.5,289.5C 299.5,299.5 299.5,309.5 299.5,319.5C 296.167,319.5 292.833,319.5 289.5,319.5C 289.5,322.833 289.5,326.167 289.5,329.5C 286.167,329.5 282.833,329.5 279.5,329.5C 279.5,322.833 279.5,316.167 279.5,309.5C 282.833,309.5 286.167,309.5 289.5,309.5C 289.5,299.5 289.5,289.5 289.5,279.5C 302.833,279.5 316.167,279.5 329.5,279.5C 329.5,276.167 329.5,272.833 329.5,269.5C 322.833,269.5 316.167,269.5 309.5,269.5C 309.5,266.167 309.5,262.833 309.5,259.5C 306.167,259.5 302.833,259.5 299.5,259.5C 299.5,256.167 299.5,252.833 299.5,249.5 Z"/></g>
<g><path style="opacity:1" fill="#f9f9f9" d="M 319.5,249.5 C 322.833,249.5 326.167,249.5 329.5,249.5C 329.5,252.833 329.5,256.167 329.5,259.5C 326.167,259.5 322.833,259.5 319.5,259.5C 319.5,256.167 319.5,252.833 319.5,249.5 Z"/></g>
<g><path style="opacity:1" fill="#516178" d="M 196.5,245.5 C 197.404,246.209 197.737,247.209 197.5,248.5C 199.592,248.439 201.092,247.439 202,245.5C 202.728,249.061 204.894,251.061 208.5,251.5C 208.281,252.675 208.614,253.675 209.5,254.5C 211.88,253.206 214.38,252.206 217,251.5C 217.667,252.167 218.333,252.833 219,253.5C 222.388,251.634 222.221,250.301 218.5,249.5C 221.428,248.516 224.428,248.183 227.5,248.5C 226.923,251.55 228.09,253.55 231,254.5C 230.482,251.777 230.649,249.111 231.5,246.5C 232.532,248.434 233.198,250.6 233.5,253C 232.268,255.027 232.602,256.36 234.5,257C 222.838,257.5 211.171,257.667 199.5,257.5C 198.474,254.628 196.807,252.128 194.5,250C 186.507,249.5 178.507,249.334 170.5,249.5C 170.5,249.167 170.5,248.833 170.5,248.5C 174.371,248.815 178.038,248.482 181.5,247.5C 180.74,246.107 180.074,244.607 179.5,243C 179.424,240.244 180.757,239.077 183.5,239.5C 183.5,242.5 183.5,245.5 183.5,248.5C 187.555,248.824 191.555,248.491 195.5,247.5C 195.863,246.817 196.196,246.15 196.5,245.5 Z"/></g>
<g><path style="opacity:1" fill="#617085" d="M 230.5,229.5 C 231.203,235.22 231.537,240.887 231.5,246.5C 230.649,249.111 230.482,251.777 231,254.5C 228.09,253.55 226.923,251.55 227.5,248.5C 224.428,248.183 221.428,248.516 218.5,249.5C 222.221,250.301 222.388,251.634 219,253.5C 218.333,252.833 217.667,252.167 217,251.5C 214.38,252.206 211.88,253.206 209.5,254.5C 208.614,253.675 208.281,252.675 208.5,251.5C 210.621,251.675 212.621,251.341 214.5,250.5C 215.627,249.878 216.627,249.045 217.5,248C 215.579,246.759 215.246,245.259 216.5,243.5C 218.895,244.523 219.895,243.523 219.5,240.5C 214.448,239.312 210.448,237.312 207.5,234.5C 213.009,236.447 218.342,238.78 223.5,241.5C 224.984,239.926 226.651,238.593 228.5,237.5C 229.168,234.694 229.834,232.028 230.5,229.5 Z"/></g>
<g><path style="opacity:1" fill="#6f8295" d="M 170.5,249.5 C 178.507,249.334 186.507,249.5 194.5,250C 196.807,252.128 198.474,254.628 199.5,257.5C 192.313,257.175 185.313,257.509 178.5,258.5C 173.689,257.358 171.023,254.358 170.5,249.5 Z"/></g>
<g><path style="opacity:1" fill="#000000" d="M 39.5,259.5 C 39.5,262.833 39.5,266.167 39.5,269.5C 36.1667,269.5 32.8333,269.5 29.5,269.5C 29.5,266.167 29.5,262.833 29.5,259.5C 32.8333,259.5 36.1667,259.5 39.5,259.5 Z"/></g>
<g><path style="opacity:1" fill="#f9f9f9" d="M 39.5,259.5 C 42.8333,259.5 46.1667,259.5 49.5,259.5C 49.5,262.833 49.5,266.167 49.5,269.5C 46.1667,269.5 42.8333,269.5 39.5,269.5C 39.5,266.167 39.5,262.833 39.5,259.5 Z"/></g>
<g><path style="opacity:1" fill="#000000" d="M 49.5,259.5 C 52.8333,259.5 56.1667,259.5 59.5,259.5C 59.5,262.833 59.5,266.167 59.5,269.5C 56.1667,269.5 52.8333,269.5 49.5,269.5C 49.5,266.167 49.5,262.833 49.5,259.5 Z"/></g>
<g><path style="opacity:1" fill="#f9f9f9" d="M 79.5,259.5 C 86.1667,259.5 92.8333,259.5 99.5,259.5C 99.5,262.833 99.5,266.167 99.5,269.5C 92.8333,269.5 86.1667,269.5 79.5,269.5C 79.5,266.167 79.5,262.833 79.5,259.5 Z"/></g>
<g><path style="opacity:1" fill="#000000" d="M 199.5,263.5 C 199.5,265.833 199.5,268.167 199.5,270.5C 199.5,273.5 199.5,276.5 199.5,279.5C 196.167,279.5 192.833,279.5 189.5,279.5C 189.5,282.833 189.5,286.167 189.5,289.5C 186.167,289.5 182.833,289.5 179.5,289.5C 179.5,286.167 179.5,282.833 179.5,279.5C 172.833,279.5 166.167,279.5 159.5,279.5C 159.5,282.833 159.5,286.167 159.5,289.5C 152.833,289.5 146.167,289.5 139.5,289.5C 139.5,286.167 139.5,282.833 139.5,279.5C 142.833,279.5 146.167,279.5 149.5,279.5C 149.5,276.167 149.5,272.833 149.5,269.5C 152.833,269.5 156.167,269.5 159.5,269.5C 159.5,266.167 159.5,262.833 159.5,259.5C 162.833,259.5 166.167,259.5 169.5,259.5C 169.5,262.833 169.5,266.167 169.5,269.5C 176.167,269.5 182.833,269.5 189.5,269.5C 189.5,267.5 189.5,265.5 189.5,263.5C 192.833,263.5 196.167,263.5 199.5,263.5 Z"/></g>
<g><path style="opacity:1" fill="#000000" d="M 259.5,279.5 C 252.833,279.5 246.167,279.5 239.5,279.5C 239.5,282.833 239.5,286.167 239.5,289.5C 242.833,289.5 246.167,289.5 249.5,289.5C 249.5,292.833 249.5,296.167 249.5,299.5C 252.833,299.5 256.167,299.5 259.5,299.5C 259.5,302.833 259.5,306.167 259.5,309.5C 252.833,309.5 246.167,309.5 239.5,309.5C 239.5,306.167 239.5,302.833 239.5,299.5C 232.833,299.5 226.167,299.5 219.5,299.5C 219.5,312.833 219.5,326.167 219.5,339.5C 216.167,339.5 212.833,339.5 209.5,339.5C 209.5,329.5 209.5,319.5 209.5,309.5C 206.167,309.5 202.833,309.5 199.5,309.5C 199.5,316.167 199.5,322.833 199.5,329.5C 196.167,329.5 192.833,329.5 189.5,329.5C 189.5,322.833 189.5,316.167 189.5,309.5C 186.167,309.5 182.833,309.5 179.5,309.5C 179.5,306.167 179.5,302.833 179.5,299.5C 182.833,299.5 186.167,299.5 189.5,299.5C 189.5,296.167 189.5,292.833 189.5,289.5C 199.5,289.5 209.5,289.5 219.5,289.5C 219.5,286.167 219.5,282.833 219.5,279.5C 222.833,279.5 226.167,279.5 229.5,279.5C 229.5,276.5 229.5,273.5 229.5,270.5C 229.5,270.167 229.5,269.833 229.5,269.5C 232.833,269.5 236.167,269.5 239.5,269.5C 239.5,267.5 239.5,265.5 239.5,263.5C 243.846,263.666 248.179,263.499 252.5,263C 255.034,262.484 257.2,261.317 259,259.5C 259.5,266.158 259.666,272.825 259.5,279.5 Z"/></g>
<g><path style="opacity:1" fill="#000000" d="M 279.5,309.5 C 276.167,309.5 272.833,309.5 269.5,309.5C 269.5,302.833 269.5,296.167 269.5,289.5C 266.167,289.5 262.833,289.5 259.5,289.5C 259.5,286.167 259.5,282.833 259.5,279.5C 262.833,279.5 266.167,279.5 269.5,279.5C 269.5,272.833 269.5,266.167 269.5,259.5C 272.833,259.5 276.167,259.5 279.5,259.5C 279.5,276.167 279.5,292.833 279.5,309.5 Z"/></g>
<g><path style="opacity:1" fill="#000000" d="M 299.5,259.5 C 299.5,262.833 299.5,266.167 299.5,269.5C 296.167,269.5 292.833,269.5 289.5,269.5C 289.5,266.167 289.5,262.833 289.5,259.5C 292.833,259.5 296.167,259.5 299.5,259.5 Z"/></g>
<g><path style="opacity:1" fill="#090708" d="M 219.5,263.5 C 222.833,263.5 226.167,263.5 229.5,263.5C 229.5,265.5 229.5,267.5 229.5,269.5C 226.167,269.5 222.833,269.5 219.5,269.5C 219.5,267.5 219.5,265.5 219.5,263.5 Z"/></g>
<g><path style="opacity:1" fill="#d7d2d6" d="M 229.5,263.5 C 232.833,263.5 236.167,263.5 239.5,263.5C 239.5,265.5 239.5,267.5 239.5,269.5C 236.167,269.5 232.833,269.5 229.5,269.5C 229.5,267.5 229.5,265.5 229.5,263.5 Z"/></g>
<g><path style="opacity:1" fill="#e1dcdd" d="M 199.5,263.5 C 206.167,263.5 212.833,263.5 219.5,263.5C 219.5,265.5 219.5,267.5 219.5,269.5C 222.833,269.5 226.167,269.5 229.5,269.5C 229.5,269.833 229.5,270.167 229.5,270.5C 219.5,270.5 209.5,270.5 199.5,270.5C 199.5,268.167 199.5,265.833 199.5,263.5 Z"/></g>
<g><path style="opacity:1" fill="#000000" d="M 39.5,269.5 C 42.8333,269.5 46.1667,269.5 49.5,269.5C 49.5,272.833 49.5,276.167 49.5,279.5C 46.1667,279.5 42.8333,279.5 39.5,279.5C 39.5,276.167 39.5,272.833 39.5,269.5 Z"/></g>
<g><path style="opacity:1" fill="#f9f9f9" d="M 99.5,269.5 C 106.167,269.5 112.833,269.5 119.5,269.5C 119.5,272.833 119.5,276.167 119.5,279.5C 116.167,279.5 112.833,279.5 109.5,279.5C 109.5,282.833 109.5,286.167 109.5,289.5C 102.833,289.5 96.1667,289.5 89.5,289.5C 89.5,286.167 89.5,282.833 89.5,279.5C 92.8333,279.5 96.1667,279.5 99.5,279.5C 99.5,276.167 99.5,272.833 99.5,269.5 Z"/></g>
<g><path style="opacity:1" fill="#000000" d="M 379.5,269.5 C 379.5,276.167 379.5,282.833 379.5,289.5C 386.167,289.5 392.833,289.5 399.5,289.5C 399.5,296.167 399.5,302.833 399.5,309.5C 396.167,309.5 392.833,309.5 389.5,309.5C 389.5,316.167 389.5,322.833 389.5,329.5C 392.833,329.5 396.167,329.5 399.5,329.5C 399.5,332.833 399.5,336.167 399.5,339.5C 392.833,339.5 386.167,339.5 379.5,339.5C 379.5,329.5 379.5,319.5 379.5,309.5C 376.167,309.5 372.833,309.5 369.5,309.5C 369.5,306.167 369.5,302.833 369.5,299.5C 366.167,299.5 362.833,299.5 359.5,299.5C 359.5,296.167 359.5,292.833 359.5,289.5C 362.833,289.5 366.167,289.5 369.5,289.5C 369.5,286.167 369.5,282.833 369.5,279.5C 366.167,279.5 362.833,279.5 359.5,279.5C 359.5,276.167 359.5,272.833 359.5,269.5C 366.167,269.5 372.833,269.5 379.5,269.5 Z"/></g>
<g><path style="opacity:1" fill="#f9f9f9" d="M 199.5,270.5 C 209.5,270.5 219.5,270.5 229.5,270.5C 229.5,273.5 229.5,276.5 229.5,279.5C 226.167,279.5 222.833,279.5 219.5,279.5C 219.5,282.833 219.5,286.167 219.5,289.5C 209.5,289.5 199.5,289.5 189.5,289.5C 189.5,286.167 189.5,282.833 189.5,279.5C 192.833,279.5 196.167,279.5 199.5,279.5C 199.5,276.5 199.5,273.5 199.5,270.5 Z"/></g>
<g><path style="opacity:1" fill="#000000" d="M 39.5,279.5 C 39.5,292.833 39.5,306.167 39.5,319.5C 36.1667,319.5 32.8333,319.5 29.5,319.5C 29.5,306.167 29.5,292.833 29.5,279.5C 32.8333,279.5 36.1667,279.5 39.5,279.5 Z"/></g>
<g><path style="opacity:1" fill="#000000" d="M 49.5,279.5 C 52.8333,279.5 56.1667,279.5 59.5,279.5C 59.5,282.833 59.5,286.167 59.5,289.5C 56.1667,289.5 52.8333,289.5 49.5,289.5C 49.5,286.167 49.5,282.833 49.5,279.5 Z"/></g>
<g><path style="opacity:1" fill="#f9f9f9" d="M 139.5,279.5 C 139.5,282.833 139.5,286.167 139.5,289.5C 146.167,289.5 152.833,289.5 159.5,289.5C 159.5,296.167 159.5,302.833 159.5,309.5C 162.833,309.5 166.167,309.5 169.5,309.5C 169.5,306.167 169.5,302.833 169.5,299.5C 172.833,299.5 176.167,299.5 179.5,299.5C 179.5,302.833 179.5,306.167 179.5,309.5C 182.833,309.5 186.167,309.5 189.5,309.5C 189.5,316.167 189.5,322.833 189.5,329.5C 182.833,329.5 176.167,329.5 169.5,329.5C 169.5,326.167 169.5,322.833 169.5,319.5C 162.833,319.5 156.167,319.5 149.5,319.5C 149.5,316.167 149.5,312.833 149.5,309.5C 142.833,309.5 136.167,309.5 129.5,309.5C 129.5,299.5 129.5,289.5 129.5,279.5C 132.833,279.5 136.167,279.5 139.5,279.5 Z"/></g>
<g><path style="opacity:1" fill="#f9f9f9" d="M 179.5,289.5 C 172.833,289.5 166.167,289.5 159.5,289.5C 159.5,286.167 159.5,282.833 159.5,279.5C 166.167,279.5 172.833,279.5 179.5,279.5C 179.5,282.833 179.5,286.167 179.5,289.5 Z"/></g>
<g><path style="opacity:1" fill="#f9f9f9" d="M 109.5,289.5 C 112.833,289.5 116.167,289.5 119.5,289.5C 119.5,292.833 119.5,296.167 119.5,299.5C 116.167,299.5 112.833,299.5 109.5,299.5C 109.5,296.167 109.5,292.833 109.5,289.5 Z"/></g>
<g><path style="opacity:1" fill="#000000" d="M 159.5,289.5 C 166.167,289.5 172.833,289.5 179.5,289.5C 179.5,292.833 179.5,296.167 179.5,299.5C 176.167,299.5 172.833,299.5 169.5,299.5C 169.5,302.833 169.5,306.167 169.5,309.5C 166.167,309.5 162.833,309.5 159.5,309.5C 159.5,302.833 159.5,296.167 159.5,289.5 Z"/></g>
<g><path style="opacity:1" fill="#f9f9f9" d="M 179.5,289.5 C 182.833,289.5 186.167,289.5 189.5,289.5C 189.5,292.833 189.5,296.167 189.5,299.5C 186.167,299.5 182.833,299.5 179.5,299.5C 179.5,296.167 179.5,292.833 179.5,289.5 Z"/></g>
<g><path style="opacity:1" fill="#000000" d="M 339.5,289.5 C 342.833,289.5 346.167,289.5 349.5,289.5C 349.5,292.833 349.5,296.167 349.5,299.5C 346.167,299.5 342.833,299.5 339.5,299.5C 339.5,296.167 339.5,292.833 339.5,289.5 Z"/></g>
<g><path style="opacity:1" fill="#f9f9f9" d="M 99.5,309.5 C 96.1667,309.5 92.8333,309.5 89.5,309.5C 89.5,306.167 89.5,302.833 89.5,299.5C 92.8333,299.5 96.1667,299.5 99.5,299.5C 99.5,302.833 99.5,306.167 99.5,309.5 Z"/></g>
<g><path style="opacity:1" fill="#000000" d="M 369.5,309.5 C 369.5,312.833 369.5,316.167 369.5,319.5C 366.167,319.5 362.833,319.5 359.5,319.5C 359.5,322.833 359.5,326.167 359.5,329.5C 362.833,329.5 366.167,329.5 369.5,329.5C 369.5,332.833 369.5,336.167 369.5,339.5C 366.167,339.5 362.833,339.5 359.5,339.5C 359.5,349.5 359.5,359.5 359.5,369.5C 356.167,369.5 352.833,369.5 349.5,369.5C 349.5,366.167 349.5,362.833 349.5,359.5C 346.167,359.5 342.833,359.5 339.5,359.5C 339.5,362.833 339.5,366.167 339.5,369.5C 336.167,369.5 332.833,369.5 329.5,369.5C 329.5,366.167 329.5,362.833 329.5,359.5C 319.5,359.5 309.5,359.5 299.5,359.5C 299.5,362.833 299.5,366.167 299.5,369.5C 296.167,369.5 292.833,369.5 289.5,369.5C 289.5,366.167 289.5,362.833 289.5,359.5C 276.167,359.5 262.833,359.5 249.5,359.5C 249.5,362.833 249.5,366.167 249.5,369.5C 246.167,369.5 242.833,369.5 239.5,369.5C 239.5,366.167 239.5,362.833 239.5,359.5C 236.167,359.5 232.833,359.5 229.5,359.5C 229.5,356.167 229.5,352.833 229.5,349.5C 242.833,349.5 256.167,349.5 269.5,349.5C 269.5,346.167 269.5,342.833 269.5,339.5C 272.833,339.5 276.167,339.5 279.5,339.5C 279.5,342.833 279.5,346.167 279.5,349.5C 282.833,349.5 286.167,349.5 289.5,349.5C 289.5,342.833 289.5,336.167 289.5,329.5C 292.833,329.5 296.167,329.5 299.5,329.5C 299.5,326.167 299.5,322.833 299.5,319.5C 302.833,319.5 306.167,319.5 309.5,319.5C 309.5,312.833 309.5,306.167 309.5,299.5C 312.833,299.5 316.167,299.5 319.5,299.5C 319.5,302.833 319.5,306.167 319.5,309.5C 336.167,309.5 352.833,309.5 369.5,309.5 Z"/></g>
<g><path style="opacity:1" fill="#000000" d="M 49.5,309.5 C 52.8333,309.5 56.1667,309.5 59.5,309.5C 59.5,312.833 59.5,316.167 59.5,319.5C 56.1667,319.5 52.8333,319.5 49.5,319.5C 49.5,316.167 49.5,312.833 49.5,309.5 Z"/></g>
<g><path style="opacity:1" fill="#f9f9f9" d="M 149.5,319.5 C 149.5,322.833 149.5,326.167 149.5,329.5C 146.167,329.5 142.833,329.5 139.5,329.5C 139.5,326.167 139.5,322.833 139.5,319.5C 142.833,319.5 146.167,319.5 149.5,319.5 Z"/></g>
<g><path style="opacity:1" fill="#000000" d="M 149.5,319.5 C 156.167,319.5 162.833,319.5 169.5,319.5C 169.5,322.833 169.5,326.167 169.5,329.5C 176.167,329.5 182.833,329.5 189.5,329.5C 189.5,332.833 189.5,336.167 189.5,339.5C 186.167,339.5 182.833,339.5 179.5,339.5C 179.5,342.833 179.5,346.167 179.5,349.5C 182.833,349.5 186.167,349.5 189.5,349.5C 189.5,352.833 189.5,356.167 189.5,359.5C 186.167,359.5 182.833,359.5 179.5,359.5C 179.5,369.5 179.5,379.5 179.5,389.5C 176.167,389.5 172.833,389.5 169.5,389.5C 169.5,386.167 169.5,382.833 169.5,379.5C 162.833,379.5 156.167,379.5 149.5,379.5C 149.5,376.167 149.5,372.833 149.5,369.5C 156.167,369.5 162.833,369.5 169.5,369.5C 169.5,359.5 169.5,349.5 169.5,339.5C 166.167,339.5 162.833,339.5 159.5,339.5C 159.5,336.167 159.5,332.833 159.5,329.5C 156.167,329.5 152.833,329.5 149.5,329.5C 149.5,326.167 149.5,322.833 149.5,319.5 Z"/></g>
<g><path style="opacity:1" fill="#000000" d="M 249.5,319.5 C 256.167,319.5 262.833,319.5 269.5,319.5C 269.5,322.833 269.5,326.167 269.5,329.5C 266.167,329.5 262.833,329.5 259.5,329.5C 259.5,332.833 259.5,336.167 259.5,339.5C 256.167,339.5 252.833,339.5 249.5,339.5C 249.5,332.833 249.5,326.167 249.5,319.5 Z"/></g>
<g><path style="opacity:1" fill="#f9f9f9" d="M 299.5,319.5 C 299.5,322.833 299.5,326.167 299.5,329.5C 296.167,329.5 292.833,329.5 289.5,329.5C 289.5,326.167 289.5,322.833 289.5,319.5C 292.833,319.5 296.167,319.5 299.5,319.5 Z"/></g>
<g><path style="opacity:1" fill="#f9f9f9" d="M 319.5,319.5 C 329.5,319.5 339.5,319.5 349.5,319.5C 349.5,329.5 349.5,339.5 349.5,349.5C 339.5,349.5 329.5,349.5 319.5,349.5C 319.5,339.5 319.5,329.5 319.5,319.5 Z"/></g>
<g><path style="opacity:1" fill="#000000" d="M 29.5,329.5 C 52.8333,329.5 76.1667,329.5 99.5,329.5C 99.5,352.833 99.5,376.167 99.5,399.5C 76.1667,399.5 52.8333,399.5 29.5,399.5C 29.5,376.167 29.5,352.833 29.5,329.5 Z"/></g>
<g><path style="opacity:1" fill="#f9f9f9" d="M 139.5,329.5 C 139.5,339.5 139.5,349.5 139.5,359.5C 146.167,359.5 152.833,359.5 159.5,359.5C 159.5,356.167 159.5,352.833 159.5,349.5C 156.167,349.5 152.833,349.5 149.5,349.5C 149.5,342.833 149.5,336.167 149.5,329.5C 152.833,329.5 156.167,329.5 159.5,329.5C 159.5,332.833 159.5,336.167 159.5,339.5C 162.833,339.5 166.167,339.5 169.5,339.5C 169.5,349.5 169.5,359.5 169.5,369.5C 162.833,369.5 156.167,369.5 149.5,369.5C 149.5,372.833 149.5,376.167 149.5,379.5C 146.167,379.5 142.833,379.5 139.5,379.5C 139.5,376.167 139.5,372.833 139.5,369.5C 136.167,369.5 132.833,369.5 129.5,369.5C 129.5,366.167 129.5,362.833 129.5,359.5C 126.167,359.5 122.833,359.5 119.5,359.5C 119.5,356.167 119.5,352.833 119.5,349.5C 122.833,349.5 126.167,349.5 129.5,349.5C 129.5,346.167 129.5,342.833 129.5,339.5C 126.167,339.5 122.833,339.5 119.5,339.5C 119.5,336.167 119.5,332.833 119.5,329.5C 126.167,329.5 132.833,329.5 139.5,329.5 Z"/></g>
<g><path style="opacity:1" fill="#000000" d="M 139.5,329.5 C 142.833,329.5 146.167,329.5 149.5,329.5C 149.5,336.167 149.5,342.833 149.5,349.5C 152.833,349.5 156.167,349.5 159.5,349.5C 159.5,352.833 159.5,356.167 159.5,359.5C 152.833,359.5 146.167,359.5 139.5,359.5C 139.5,349.5 139.5,339.5 139.5,329.5 Z"/></g>
<g><path style="opacity:1" fill="#000000" d="M 329.5,329.5 C 332.833,329.5 336.167,329.5 339.5,329.5C 339.5,332.833 339.5,336.167 339.5,339.5C 336.167,339.5 332.833,339.5 329.5,339.5C 329.5,336.167 329.5,332.833 329.5,329.5 Z"/></g>
<g><path style="opacity:1" fill="#f9f9f9" d="M 39.5,339.5 C 56.1667,339.5 72.8333,339.5 89.5,339.5C 89.5,356.167 89.5,372.833 89.5,389.5C 72.8333,389.5 56.1667,389.5 39.5,389.5C 39.5,372.833 39.5,356.167 39.5,339.5 Z"/></g>
<g><path style="opacity:1" fill="#f8f8f8" d="M 299.5,339.5 C 302.833,339.5 306.167,339.5 309.5,339.5C 309.5,342.833 309.5,346.167 309.5,349.5C 306.167,349.5 302.833,349.5 299.5,349.5C 299.5,346.167 299.5,342.833 299.5,339.5 Z"/></g>
<g><path style="opacity:1" fill="#000000" d="M 49.5,349.5 C 59.5,349.5 69.5,349.5 79.5,349.5C 79.5,359.5 79.5,369.5 79.5,379.5C 69.5,379.5 59.5,379.5 49.5,379.5C 49.5,369.5 49.5,359.5 49.5,349.5 Z"/></g>
<g><path style="opacity:1" fill="#000000" d="M 359.5,379.5 C 359.5,376.167 359.5,372.833 359.5,369.5C 362.833,369.5 366.167,369.5 369.5,369.5C 369.5,362.833 369.5,356.167 369.5,349.5C 376.167,349.5 382.833,349.5 389.5,349.5C 389.5,352.833 389.5,356.167 389.5,359.5C 386.167,359.5 382.833,359.5 379.5,359.5C 379.5,366.167 379.5,372.833 379.5,379.5C 372.833,379.5 366.167,379.5 359.5,379.5 Z"/></g>
<g><path style="opacity:1" fill="#f9f9f9" d="M 289.5,369.5 C 279.5,369.5 269.5,369.5 259.5,369.5C 259.5,372.833 259.5,376.167 259.5,379.5C 252.833,379.5 246.167,379.5 239.5,379.5C 239.5,376.167 239.5,372.833 239.5,369.5C 242.833,369.5 246.167,369.5 249.5,369.5C 249.5,366.167 249.5,362.833 249.5,359.5C 262.833,359.5 276.167,359.5 289.5,359.5C 289.5,362.833 289.5,366.167 289.5,369.5 Z"/></g>
<g><path style="opacity:1" fill="#f9f9f9" d="M 339.5,369.5 C 339.5,376.167 339.5,382.833 339.5,389.5C 336.167,389.5 332.833,389.5 329.5,389.5C 329.5,386.167 329.5,382.833 329.5,379.5C 322.833,379.5 316.167,379.5 309.5,379.5C 309.5,376.167 309.5,372.833 309.5,369.5C 306.167,369.5 302.833,369.5 299.5,369.5C 299.5,366.167 299.5,362.833 299.5,359.5C 309.5,359.5 319.5,359.5 329.5,359.5C 329.5,362.833 329.5,366.167 329.5,369.5C 332.833,369.5 336.167,369.5 339.5,369.5 Z"/></g>
<g><path style="opacity:1" fill="#f9faf9" d="M 349.5,369.5 C 346.167,369.5 342.833,369.5 339.5,369.5C 339.5,366.167 339.5,362.833 339.5,359.5C 342.833,359.5 346.167,359.5 349.5,359.5C 349.5,362.833 349.5,366.167 349.5,369.5 Z"/></g>
<g><path style="opacity:1" fill="#f9f9f9" d="M 129.5,369.5 C 132.833,369.5 136.167,369.5 139.5,369.5C 139.5,372.833 139.5,376.167 139.5,379.5C 139.5,382.833 139.5,386.167 139.5,389.5C 132.833,389.5 126.167,389.5 119.5,389.5C 119.5,382.833 119.5,376.167 119.5,369.5C 122.833,369.5 126.167,369.5 129.5,369.5 Z"/></g>
<g><path style="opacity:1" fill="#000000" d="M 129.5,369.5 C 132.833,369.5 136.167,369.5 139.5,369.5C 139.5,372.833 139.5,376.167 139.5,379.5C 136.167,379.5 132.833,379.5 129.5,379.5C 129.5,376.167 129.5,372.833 129.5,369.5 Z"/></g>
<g><path style="opacity:1" fill="#000000" d="M 239.5,369.5 C 239.5,372.833 239.5,376.167 239.5,379.5C 236.167,379.5 232.833,379.5 229.5,379.5C 229.5,376.167 229.5,372.833 229.5,369.5C 232.833,369.5 236.167,369.5 239.5,369.5 Z"/></g>
<g><path style="opacity:1" fill="#000000" d="M 289.5,369.5 C 289.5,372.833 289.5,376.167 289.5,379.5C 282.833,379.5 276.167,379.5 269.5,379.5C 269.5,386.167 269.5,392.833 269.5,399.5C 256.167,399.5 242.833,399.5 229.5,399.5C 229.5,396.167 229.5,392.833 229.5,389.5C 232.833,389.5 236.167,389.5 239.5,389.5C 239.5,386.167 239.5,382.833 239.5,379.5C 246.167,379.5 252.833,379.5 259.5,379.5C 259.5,376.167 259.5,372.833 259.5,369.5C 269.5,369.5 279.5,369.5 289.5,369.5 Z"/></g>
<g><path style="opacity:1" fill="#000000" d="M 299.5,369.5 C 302.833,369.5 306.167,369.5 309.5,369.5C 309.5,372.833 309.5,376.167 309.5,379.5C 316.167,379.5 322.833,379.5 329.5,379.5C 329.5,382.833 329.5,386.167 329.5,389.5C 332.833,389.5 336.167,389.5 339.5,389.5C 339.5,392.833 339.5,396.167 339.5,399.5C 332.833,399.5 326.167,399.5 319.5,399.5C 319.5,396.167 319.5,392.833 319.5,389.5C 316.167,389.5 312.833,389.5 309.5,389.5C 309.5,392.833 309.5,396.167 309.5,399.5C 302.833,399.5 296.167,399.5 289.5,399.5C 289.5,396.167 289.5,392.833 289.5,389.5C 292.833,389.5 296.167,389.5 299.5,389.5C 299.5,382.833 299.5,376.167 299.5,369.5 Z"/></g>
<g><path style="opacity:1" fill="#000000" d="M 339.5,369.5 C 342.833,369.5 346.167,369.5 349.5,369.5C 349.5,372.833 349.5,376.167 349.5,379.5C 352.833,379.5 356.167,379.5 359.5,379.5C 359.5,382.833 359.5,386.167 359.5,389.5C 369.5,389.5 379.5,389.5 389.5,389.5C 389.5,382.833 389.5,376.167 389.5,369.5C 392.833,369.5 396.167,369.5 399.5,369.5C 399.5,379.5 399.5,389.5 399.5,399.5C 382.833,399.5 366.167,399.5 349.5,399.5C 349.5,396.167 349.5,392.833 349.5,389.5C 346.167,389.5 342.833,389.5 339.5,389.5C 339.5,382.833 339.5,376.167 339.5,369.5 Z"/></g>
<g><path style="opacity:1" fill="#f9f9f9" d="M 349.5,369.5 C 352.833,369.5 356.167,369.5 359.5,369.5C 359.5,372.833 359.5,376.167 359.5,379.5C 356.167,379.5 352.833,379.5 349.5,379.5C 349.5,376.167 349.5,372.833 349.5,369.5 Z"/></g>
<g><path style="opacity:1" fill="#000000" d="M 139.5,379.5 C 142.833,379.5 146.167,379.5 149.5,379.5C 149.5,382.833 149.5,386.167 149.5,389.5C 146.167,389.5 142.833,389.5 139.5,389.5C 139.5,386.167 139.5,382.833 139.5,379.5 Z"/></g>
<g><path style="opacity:1" fill="#000000" d="M 119.5,389.5 C 126.167,389.5 132.833,389.5 139.5,389.5C 139.5,392.833 139.5,396.167 139.5,399.5C 132.833,399.5 126.167,399.5 119.5,399.5C 119.5,396.167 119.5,392.833 119.5,389.5 Z"/></g>
<g><path style="opacity:1" fill="#000000" d="M 179.5,389.5 C 186.167,389.5 192.833,389.5 199.5,389.5C 199.5,392.833 199.5,396.167 199.5,399.5C 192.833,399.5 186.167,399.5 179.5,399.5C 179.5,396.167 179.5,392.833 179.5,389.5 Z"/></g>
<g><path style="opacity:1" fill="#000000" d="M 209.5,389.5 C 212.833,389.5 216.167,389.5 219.5,389.5C 219.5,392.833 219.5,396.167 219.5,399.5C 216.167,399.5 212.833,399.5 209.5,399.5C 209.5,396.167 209.5,392.833 209.5,389.5 Z"/></g>
</svg>
