<svg width="652" height="652" viewBox="0 0 652 652" fill="none" xmlns="http://www.w3.org/2000/svg">
<g clip-path="url(#clip0_56_8)">
<path fill-rule="evenodd" clip-rule="evenodd" d="M342.5 -0.5C445.5 -0.5 548.5 -0.5 651.5 -0.5C651.5 100.167 651.5 200.833 651.5 301.5C650.596 300.791 650.263 299.791 650.5 298.5C650.222 290.604 649.222 282.937 647.5 275.5C630.419 178.308 580.753 102.808 498.5 49C450.328 20.108 398.328 3.60797 342.5 -0.5Z" fill="#FEFEFE"/>
<path fill-rule="evenodd" clip-rule="evenodd" d="M647.5 275.5C649.222 282.937 650.222 290.604 650.5 298.5C649.778 298.082 649.278 297.416 649 296.5C648.334 289.507 647.834 282.507 647.5 275.5Z" fill="#44639D"/>
<path fill-rule="evenodd" clip-rule="evenodd" d="M650.5 351.5C649.852 359.68 648.852 367.68 647.5 375.5C647.729 368.485 648.229 361.485 649 354.5C649.232 353.263 649.732 352.263 650.5 351.5Z" fill="#4E6AA1"/>
<path fill-rule="evenodd" clip-rule="evenodd" d="M-0.5 -0.5C101.167 -0.5 202.833 -0.5 304.5 -0.5C196.083 10.2697 111.583 60.603 51 150.5C-4.55057 241.981 -14.5506 338.314 21 439.5C59.9157 536.415 128.749 601.915 227.5 636C248.397 642.427 269.73 646.594 291.5 648.5C298.62 649.928 305.953 650.594 313.5 650.5C313.5 650.833 313.5 651.167 313.5 651.5C208.833 651.5 104.167 651.5 -0.5 651.5C-0.5 434.167 -0.5 216.833 -0.5 -0.5Z" fill="#FEFEFE"/>
<path fill-rule="evenodd" clip-rule="evenodd" d="M651.5 342.5C651.5 445.5 651.5 548.5 651.5 651.5C538.833 651.5 426.167 651.5 313.5 651.5C313.5 651.167 313.5 650.833 313.5 650.5C324.014 650.828 334.347 650.494 344.5 649.5C431.769 644.109 505.269 609.776 565 546.5C609.052 497.723 636.552 440.723 647.5 375.5C648.852 367.68 649.852 359.68 650.5 351.5C650.19 348.287 650.523 345.287 651.5 342.5Z" fill="#FEFEFE"/>
<path fill-rule="evenodd" clip-rule="evenodd" d="M304.5 -0.5C317.167 -0.5 329.833 -0.5 342.5 -0.5C398.328 3.60797 450.328 20.108 498.5 49C580.753 102.808 630.419 178.308 647.5 275.5C647.834 282.507 648.334 289.507 649 296.5C649.278 297.416 649.778 298.082 650.5 298.5C650.263 299.791 650.596 300.791 651.5 301.5C651.5 315.167 651.5 328.833 651.5 342.5C650.523 345.287 650.19 348.287 650.5 351.5C649.732 352.263 649.232 353.263 649 354.5C648.229 361.485 647.729 368.485 647.5 375.5C636.552 440.723 609.052 497.723 565 546.5C505.269 609.776 431.769 644.109 344.5 649.5C326.825 649.518 309.158 649.185 291.5 648.5C269.73 646.594 248.397 642.427 227.5 636C128.749 601.915 59.9156 536.415 20.9999 439.5C-14.5507 338.314 -4.55068 241.981 50.9999 150.5C111.583 60.603 196.083 10.2697 304.5 -0.5Z" fill="#1D4C9A"/>
<path fill-rule="evenodd" clip-rule="evenodd" d="M314.5 9.49956C335.323 8.68435 355.99 10.0177 376.5 13.4996C478.214 32.4301 554.38 86.7634 605 176.5C641.193 246.254 650.86 319.588 634 396.5C607.146 500.009 544.979 573.509 447.5 617C418.62 628.887 388.62 636.387 357.5 639.5C340.843 640.214 324.176 640.547 307.5 640.5C202.941 632.318 121.108 585.318 62.0001 499.5C5.76231 409.334 -4.90436 314.001 30.0001 213.5C65.9839 124.849 128.484 63.0157 217.5 27.9996C248.884 16.8799 281.218 10.7132 314.5 9.49956Z" fill="#FCFDFD"/>
<path fill-rule="evenodd" clip-rule="evenodd" d="M114.5 465.5C117.139 466.706 117.972 468.706 117 471.5C112.265 484.539 107.432 497.539 102.5 510.5C103.002 511.521 103.668 511.688 104.5 511C111.88 504.618 119.547 498.618 127.5 493C129.121 490.834 129.955 488.334 130 485.5C132.833 489 135.667 492.5 138.5 496C136.821 496.395 135.155 496.228 133.5 495.5C122.755 501.963 112.589 509.296 103 517.5C102.667 519.5 102.333 521.5 102 523.5C98.9809 520.491 96.8142 516.991 95.5 513C99.1406 500.912 103.474 489.078 108.5 477.5C107.998 476.479 107.332 476.312 106.5 477C99.3333 482.833 92.1667 488.667 85 494.5C85.0464 496.313 84.8797 497.979 84.5 499.5C81.4838 496.48 78.8171 493.146 76.5 489.5C78.6716 489.324 81.0049 489.157 83.5 489C94.0177 481.303 104.351 473.47 114.5 465.5Z" fill="#224E9A"/>
<path fill-rule="evenodd" clip-rule="evenodd" d="M305.5 555.5C300.731 554.111 295.731 553.444 290.5 553.5C212.134 539.275 154.634 496.942 118 426.5C83.7153 351.073 87.0486 277.406 128 205.5C183.452 122.034 261.285 85.8674 361.5 97.0005C442.571 112.099 501.071 156.599 537 230.5C559.354 283.564 562.687 337.898 547 393.5C519.206 472.962 465.04 524.795 384.5 549C358.462 555.531 332.129 557.698 305.5 555.5Z" fill="#224E9A"/>
<path fill-rule="evenodd" clip-rule="evenodd" d="M554.5 433.5C555.074 435.788 556.074 437.955 557.5 440C567.5 445.667 577.5 451.333 587.5 457C589.701 457.825 591.534 457.325 593 455.5C592.262 459.162 590.762 462.662 588.5 466C575.149 466.842 561.816 467.842 548.5 469C556.329 473.08 563.996 477.413 571.5 482C573.899 482.711 576.232 482.544 578.5 481.5C577.871 485.428 576.037 489.095 573 492.5C572.837 490.324 572.004 488.491 570.5 487C558.833 480.167 547.167 473.333 535.5 466.5C536.167 465.5 536.833 464.5 537.5 463.5C552.814 462.119 568.147 460.952 583.5 460C573.673 454.92 564.006 449.587 554.5 444C552.536 443.376 550.869 443.876 549.5 445.5C549.167 445.167 548.833 444.833 548.5 444.5C550.766 440.966 552.766 437.3 554.5 433.5Z" fill="#224E9A"/>
<path fill-rule="evenodd" clip-rule="evenodd" d="M79.5 430.5C94.6886 429.35 103.355 436.35 105.5 451.5C104.039 460.468 99.0385 466.635 90.5 470C72.1382 477.489 61.4716 471.489 58.5 452C58.5202 445.628 61.1869 440.628 66.5 437C70.6467 434.26 74.98 432.093 79.5 430.5Z" fill="#234F9B"/>
<path fill-rule="evenodd" clip-rule="evenodd" d="M83.4999 436.5C97.4429 434.598 102.61 440.265 98.9999 453.5C90.7885 463.568 80.2885 467.735 67.4999 466C60.5407 458.668 60.874 451.668 68.4999 445C73.2699 441.619 78.2699 438.786 83.4999 436.5Z" fill="#FAFCFC"/>
<path fill-rule="evenodd" clip-rule="evenodd" d="M561.5 415.5C561.969 419.119 563.969 421.619 567.5 423C576.614 426.39 585.614 430.057 594.5 434C597.466 434.895 600.133 434.395 602.5 432.5C602.833 432.833 603.167 433.167 603.5 433.5C601.498 437.843 599.498 442.177 597.5 446.5C596.756 445.009 596.09 443.509 595.5 442C585.167 437.667 574.833 433.333 564.5 429C561.534 428.105 558.867 428.605 556.5 430.5C557.176 425.41 558.842 420.41 561.5 415.5Z" fill="#234E9A"/>
<path fill-rule="evenodd" clip-rule="evenodd" d="M573.5 371.5C574.5 371.5 575.5 371.5 576.5 371.5C575.965 374.238 576.965 376.072 579.5 377C590.374 379.839 601.207 382.672 612 385.5C614.175 385.166 616.008 384.166 617.5 382.5C617.833 382.833 618.167 383.167 618.5 383.5C617.38 388.397 615.714 393.064 613.5 397.5C612.756 396.009 612.09 394.509 611.5 393C606.599 391.186 601.599 389.686 596.5 388.5C594.909 394.364 593.243 400.197 591.5 406C591.833 406.833 592.167 407.667 592.5 408.5C597.596 410.883 602.929 411.716 608.5 411C609.047 410.075 609.713 409.242 610.5 408.5C610.833 409 611.167 409.5 611.5 410C610.666 414.855 608.999 419.355 606.5 423.5C605.859 421.704 604.859 420.204 603.5 419C592.006 415.752 580.506 412.585 569 409.5C567.374 410.289 565.874 411.289 564.5 412.5C564.167 412 563.833 411.5 563.5 411C564.411 407.855 565.245 404.688 566 401.5C566.196 399.714 567.029 398.381 568.5 397.5C569.134 399.567 570.134 401.4 571.5 403C577.03 404.873 582.697 406.039 588.5 406.5C589.833 400.167 591.167 393.833 592.5 387.5C587.309 386.244 582.142 384.911 577 383.5C574.383 383.127 572.55 384.127 571.5 386.5C571.167 386 570.833 385.5 570.5 385C572.526 380.728 573.526 376.228 573.5 371.5Z" fill="#244F9B"/>
<path fill-rule="evenodd" clip-rule="evenodd" d="M77.4999 380.5C80.8794 383.302 82.046 386.969 80.9999 391.5C77.2326 396.023 73.2326 400.357 68.9999 404.5C67.0648 408.446 67.5648 412.113 70.4999 415.5C74.7669 413.849 79.1002 412.349 83.4999 411C84.7716 409.693 85.7716 408.193 86.4999 406.5C89.3163 410.925 90.6497 415.592 90.4999 420.5C89.1254 419.289 87.6254 418.289 85.9999 417.5C74.8332 421 63.6666 424.5 52.4999 428C50.5675 429.352 49.2342 431.185 48.4999 433.5C46.0346 426.937 43.868 420.271 41.9999 413.5C40.3756 397.23 46.8756 392.73 61.4999 400C62.2105 401.255 63.0439 402.421 63.9999 403.5C66.7644 397.051 70.7644 391.385 75.9999 386.5C77.1279 384.655 77.6279 382.655 77.4999 380.5Z" fill="#224E9A"/>
<path fill-rule="evenodd" clip-rule="evenodd" d="M50.4998 403.5C60.9387 401.952 65.9387 406.286 65.4998 416.5C59.693 418.102 54.0264 420.102 48.4998 422.5C45.8128 417.824 44.9795 412.824 45.9998 407.5C47.3966 405.93 48.8966 404.596 50.4998 403.5Z" fill="#F9FBFC"/>
<path fill-rule="evenodd" clip-rule="evenodd" d="M32.5 351.5C35.1667 351.5 37.8333 351.5 40.5 351.5C40.762 352.978 40.4287 354.311 39.5 355.5C33.5099 358.053 31.8433 362.386 34.5 368.5C46.7667 366.343 59.1 364.509 71.5 363C73.422 361.58 74.7554 359.747 75.5 357.5C76.4079 361.857 77.4079 366.19 78.5 370.5C78.1275 374.297 77.1275 374.464 75.5 371C73.3333 370.833 71.1667 370.667 69 370.5C58.1781 371.957 47.3447 373.29 36.5 374.5C35.1343 382.465 38.4677 386.465 46.5 386.5C46.5 387.833 46.5 389.167 46.5 390.5C42.8455 390.942 39.1788 391.276 35.5 391.5C33.4174 378.504 31.4174 365.504 29.5 352.5C30.791 352.737 31.791 352.404 32.5 351.5Z" fill="#204D9A"/>
<path fill-rule="evenodd" clip-rule="evenodd" d="M587.5 336.5C598.415 334.778 608.248 337.112 617 343.5C621.323 350.188 622.656 357.521 621 365.5C620.023 367.74 619.523 370.073 619.5 372.5C616.813 372.664 614.146 372.497 611.5 372C610.62 370.644 610.286 369.144 610.5 367.5C613.099 367.451 615.266 366.451 617 364.5C620.943 355.662 618.443 349.495 609.5 346C601.568 343.338 593.568 343.005 585.5 345C578.955 347.827 576.788 352.661 579 359.5C580.333 362.167 582.333 364.167 585 365.5C585.483 366.448 585.649 367.448 585.5 368.5C582.167 368.5 578.833 368.5 575.5 368.5C575.334 361.825 575.5 355.158 576 348.5C577.08 346.004 578.414 343.67 580 341.5C582.479 339.686 584.979 338.019 587.5 336.5Z" fill="#234E9A"/>
<path fill-rule="evenodd" clip-rule="evenodd" d="M72.5 330.5C72.56 329.957 72.8933 329.624 73.5 329.5C74.8137 334.652 74.8137 339.652 73.5 344.5C73.8195 339.637 73.4861 334.97 72.5 330.5Z" fill="#5A79AA"/>
<path fill-rule="evenodd" clip-rule="evenodd" d="M48.5 312.5C49.4912 319.313 49.8245 326.313 49.5 333.5C43.9738 333.821 38.6405 333.488 33.5 332.5C38.5 332.5 43.5 332.5 48.5 332.5C48.5 325.833 48.5 319.167 48.5 312.5Z" fill="#859FC9"/>
<path fill-rule="evenodd" clip-rule="evenodd" d="M70.5 313.5C64.5 313.5 58.5 313.5 52.5 313.5C52.5 319.833 52.5 326.167 52.5 332.5C58.5 332.5 64.5 332.5 70.5 332.5C64.3554 333.49 58.0221 333.823 51.5 333.5C51.5 326.5 51.5 319.5 51.5 312.5C58.0221 312.177 64.3554 312.51 70.5 313.5Z" fill="#97AFD6"/>
<path fill-rule="evenodd" clip-rule="evenodd" d="M550.5 349.5C550.5 348.167 550.5 346.833 550.5 345.5C551.222 345.082 551.722 344.416 552 343.5C552.167 337.667 552.333 331.833 552.5 326C551.898 312.153 551.398 298.32 551 284.5C552.625 288.279 553.625 292.279 554 296.5C557.749 326.222 555.416 355.222 547 383.5C546.833 382.333 546.667 381.167 546.5 380C547.739 375.18 548.905 370.347 550 365.5C550.499 360.177 550.666 354.844 550.5 349.5Z" fill="#124A9F"/>
<path fill-rule="evenodd" clip-rule="evenodd" d="M70.5 313.5C64.3554 312.51 58.0221 312.177 51.5 312.5C51.5 319.5 51.5 326.5 51.5 333.5C58.0221 333.823 64.3554 333.49 70.5 332.5C71.1667 331.833 71.8333 331.167 72.5 330.5C73.4861 334.97 73.8195 339.637 73.5 344.5C72.3536 342.525 70.687 341.025 68.5 340C56.5 339.333 44.5 339.333 32.5 340C31.3816 341.074 30.3816 342.24 29.5 343.5C28.1667 338.5 28.1667 333.5 29.5 328.5C30.5213 330.188 31.8546 331.521 33.5 332.5C38.6405 333.488 43.9738 333.821 49.5 333.5C49.8245 326.313 49.4912 319.313 48.5 312.5C43.1563 312.334 37.8229 312.501 32.5 313C31.2986 313.903 30.4652 315.069 30 316.5C29.1711 311.467 29.3377 306.467 30.5 301.5C31.2621 302.628 31.9288 303.795 32.5 305C45.5 305.667 58.5 305.667 71.5 305C72.3333 304.167 73.1667 303.333 74 302.5C74.8289 307.533 74.6623 312.533 73.5 317.5C72.8503 315.816 71.8503 314.483 70.5 313.5Z" fill="#1F4D99"/>
<path fill-rule="evenodd" clip-rule="evenodd" d="M612.5 253.5C613.496 253.414 614.329 253.748 615 254.5C615.781 257.834 616.114 261.167 616 264.5C606.212 273.322 596.712 282.488 587.5 292C596.462 290.609 605.462 288.942 614.5 287C616.604 286.209 617.937 284.709 618.5 282.5C620.069 283.714 620.902 285.381 621 287.5C621.667 290.167 621.667 292.833 621 295.5C619.066 293.404 616.566 292.404 613.5 292.5C600.799 294.374 588.132 296.374 575.5 298.5C575.215 296.712 575.548 295.045 576.5 293.5C586.682 283.484 597.015 273.651 607.5 264C597.161 265.287 586.828 266.954 576.5 269C574.396 269.791 573.063 271.291 572.5 273.5C571.659 269.957 570.659 266.457 569.5 263C569.833 262.5 570.167 262 570.5 261.5C571.929 262.935 573.595 263.935 575.5 264.5C587.084 261.883 598.75 259.717 610.5 258C612.037 256.89 612.703 255.39 612.5 253.5Z" fill="#214D9A"/>
<path fill-rule="evenodd" clip-rule="evenodd" d="M61.5002 281.5C64.5186 281.665 67.5186 281.498 70.5002 281C69.956 280.283 69.2893 279.783 68.5002 279.5C58.184 273.528 47.8507 267.528 37.5002 261.5C36.2943 259.516 36.2943 257.516 37.5002 255.5C44.1337 254.503 50.8004 254.17 57.5002 254.5C63.8423 254.666 70.1756 254.5 76.5002 254C75.956 253.283 75.2893 252.783 74.5002 252.5C66.1949 247.344 57.8615 242.178 49.5002 237C46.4212 235.91 44.0878 236.743 42.5002 239.5C42.1669 238.833 41.8335 238.167 41.5002 237.5C42.4913 233.869 43.3246 230.202 44.0002 226.5C55.9693 235.669 68.8026 244.502 82.5002 253C84.6404 255.173 84.9737 257.673 83.5002 260.5C70.8291 260.333 58.1625 260.5 45.5002 261C56.0351 267.699 66.7018 274.199 77.5002 280.5C78.0576 282.718 78.0576 285.051 77.5002 287.5C63.1604 287.754 48.8271 288.254 34.5002 289C32.7142 289.785 31.2142 290.951 30.0002 292.5C29.8463 287.431 30.513 282.431 32.0002 277.5C32.4142 277.043 32.9142 276.709 33.5002 276.5C34.1343 278.567 35.1343 280.4 36.5002 282C44.8279 282.116 53.1613 281.95 61.5002 281.5Z" fill="#244F9A"/>
<path fill-rule="evenodd" clip-rule="evenodd" d="M68.5 279.5C69.2891 279.783 69.9558 280.283 70.5 281C67.5184 281.498 64.5184 281.665 61.5 281.5C63.8333 280.833 66.1667 280.167 68.5 279.5Z" fill="#A1B7DD"/>
<path fill-rule="evenodd" clip-rule="evenodd" d="M74.5 252.5C75.2891 252.783 75.9558 253.283 76.5 254C70.1754 254.5 63.8421 254.666 57.5 254.5C63.1667 253.833 68.8333 253.167 74.5 252.5Z" fill="#B9D0F4"/>
<path fill-rule="evenodd" clip-rule="evenodd" d="M552.5 216.5C552.56 215.957 552.893 215.624 553.5 215.5C555.167 216.333 556.833 217.167 558.5 218C573.516 218.334 588.516 219.001 603.5 220C605.124 223.206 604.458 225.872 601.5 228C591.041 236.124 580.874 244.624 571 253.5C570.781 254.938 570.281 256.271 569.5 257.5C567.039 253.315 565.039 248.815 563.5 244C563.828 242.249 564.495 242.249 565.5 244C570.591 244.622 574.591 242.789 577.5 238.5C575.667 233.5 573.833 228.5 572 223.5C567.85 221.998 563.85 222.331 560 224.5C559.798 226.256 559.298 227.922 558.5 229.5C556.485 225.099 554.485 220.766 552.5 216.5Z" fill="#1F4D99"/>
<path fill-rule="evenodd" clip-rule="evenodd" d="M595.5 224.5C590.519 228.476 585.519 232.476 580.5 236.5C578.446 232.672 576.779 228.672 575.5 224.5C582.167 223.167 588.833 223.167 595.5 224.5Z" fill="#F8FBFB"/>
<path fill-rule="evenodd" clip-rule="evenodd" d="M62.5 188.5C65.237 189.031 67.9036 189.864 70.5 191C71.3366 192.011 71.67 193.178 71.5 194.5C67.0907 193.618 63.5907 194.952 61 198.5C59.6377 202.058 58.1377 205.558 56.5 209C60.8028 212.402 65.6362 214.902 71 216.5C75.5567 212.715 76.3901 208.215 73.5 203C73.6448 202.228 73.9781 201.561 74.5 201C78.0896 202.113 81.7562 203.279 85.5 204.5C85.67 205.822 85.3366 206.989 84.5 208C81.9925 208.093 79.8259 208.926 78 210.5C77.2352 213.196 76.0685 215.696 74.5 218C80.2567 220.962 86.09 223.795 92 226.5C94.6774 222.148 96.5107 217.482 97.5 212.5C97.3551 208.876 95.6884 206.209 92.5 204.5C92.9186 203.328 93.5853 202.328 94.5 201.5C97.9939 203.079 101.327 204.913 104.5 207C99.856 217.27 95.0227 227.436 90 237.5C89.8371 235.324 89.0037 233.491 87.5 232C77.5 227.333 67.5 222.667 57.5 218C54.6529 217.056 52.1529 217.556 50 219.5C53.2608 208.902 57.4275 198.569 62.5 188.5Z" fill="#224E9A"/>
<path fill-rule="evenodd" clip-rule="evenodd" d="M595.5 224.5C588.833 223.167 582.167 223.167 575.5 224.5C574.957 224.44 574.624 224.107 574.5 223.5C582.145 222.335 589.812 222.169 597.5 223C596.956 223.717 596.289 224.217 595.5 224.5Z" fill="#AEC3E5"/>
<path fill-rule="evenodd" clip-rule="evenodd" d="M593.5 194.5C598.142 198.747 597.475 201.913 591.5 204C587.313 204.827 583.479 203.994 580 201.5C579.517 200.552 579.351 199.552 579.5 198.5C582.518 198.665 585.518 198.498 588.5 198C590.584 197.303 592.251 196.136 593.5 194.5Z" fill="#29519B"/>
<path fill-rule="evenodd" clip-rule="evenodd" d="M577.5 171.5C579.074 171.937 580.241 172.937 581 174.5C582.455 177.912 584.288 181.079 586.5 184C582.257 182.847 578.257 183.513 574.5 186C566.5 190.667 558.5 195.333 550.5 200C549.072 201.916 548.072 204.083 547.5 206.5C544.474 202.795 541.808 198.795 539.5 194.5C539.833 194.167 540.167 193.833 540.5 193.5C541.869 195.124 543.536 195.624 545.5 195C555.5 189.333 565.5 183.667 575.5 178C577.229 176.211 577.896 174.044 577.5 171.5Z" fill="#204D9A"/>
<path fill-rule="evenodd" clip-rule="evenodd" d="M83.5002 155.5C94.4518 159.748 94.1184 162.248 82.5002 163C75.5834 167.792 74.9168 173.125 80.5002 179C82.8335 179.667 85.1669 179.667 87.5002 179C93.1773 175.326 99.1773 172.493 105.5 170.5C115.324 171.494 119.157 176.828 117 186.5C114.704 192.466 111.204 197.633 106.5 202C94.4085 198.711 94.7418 196.377 107.5 195C113.998 190.48 114.998 185.147 110.5 179C107.634 177.543 104.634 177.21 101.5 178C96.8335 180.667 92.1669 183.333 87.5002 186C76.7178 187.218 71.8845 182.384 73.0002 171.5C75.5436 165.472 79.0436 160.139 83.5002 155.5Z" fill="#224E9A"/>
<path fill-rule="evenodd" clip-rule="evenodd" d="M548.5 131.5C552.442 134.45 555.775 138.116 558.5 142.5C556.722 142.569 554.889 142.903 553 143.5C550.591 147.892 549.091 152.558 548.5 157.5C553.58 157.75 558.58 157.25 563.5 156C564.227 154.601 564.727 153.101 565 151.5C568.108 154.23 570.608 157.397 572.5 161C572.167 161.5 571.833 162 571.5 162.5C563.215 161.364 554.882 161.197 546.5 162C542.607 170.847 539.607 180.013 537.5 189.5C534.5 185.5 531.5 181.5 528.5 177.5C529.533 176.548 530.7 176.548 532 177.5C533.261 177.241 534.261 176.574 535 175.5C536.398 171.14 537.898 166.807 539.5 162.5C534.869 161.338 530.202 161.172 525.5 162C522.898 162.935 521.398 164.768 521 167.5C518.375 164.406 515.875 161.24 513.5 158C513.667 157.5 513.833 157 514 156.5C516.757 158.027 519.757 158.693 523 158.5C529.153 157.862 535.319 157.529 541.5 157.5C544.245 148.933 546.579 140.266 548.5 131.5Z" fill="#244F9C"/>
<path fill-rule="evenodd" clip-rule="evenodd" d="M112.5 119.5C125.129 126.752 124.129 129.585 109.5 128C106.898 129.554 105.731 131.72 106 134.5C114.833 142 123.667 149.5 132.5 157C134.995 157.157 137.328 157.324 139.5 157.5C136.514 161.817 133.18 165.817 129.5 169.5C129.245 167.657 129.078 165.657 129 163.5C119.406 155.284 109.906 146.951 100.5 138.5C94.73 142.79 94.0633 147.79 98.5 153.5C97.8551 154.646 97.0217 155.646 96 156.5C93.2605 153.882 90.4272 151.382 87.5 149C95.9599 139.228 104.293 129.395 112.5 119.5Z" fill="#234F9B"/>
<path fill-rule="evenodd" clip-rule="evenodd" d="M493.5 81.5C497.652 84.4173 501.652 87.584 505.5 91C503.567 91.2511 501.734 91.7511 500 92.5C498.114 98.6894 497.281 105.023 497.5 111.5C503.655 109.836 509.655 107.67 515.5 105C516.097 103.111 516.431 101.278 516.5 99.5C520.146 101.817 523.48 104.484 526.5 107.5C516.164 109.332 506.164 112.332 496.5 116.5C493.183 119.806 490.349 123.472 488 127.5C487.845 129.856 487.845 132.189 488 134.5C483.376 131.706 479.209 128.373 475.5 124.5C477.826 124.9 480.159 124.4 482.5 123C485 119.833 487.5 116.667 490 113.5C492.216 102.953 493.383 92.2863 493.5 81.5Z" fill="#204D9B"/>
<path fill-rule="evenodd" clip-rule="evenodd" d="M174.5 70.5C174.938 72.6382 175.105 74.9715 175 77.5C179.667 84.1667 184.333 90.8333 189 97.5C194.408 106.299 192.908 113.799 184.5 120C180.867 122.242 177.034 123.742 173 124.5C170.7 124.506 168.534 124.006 166.5 123C159.946 114.78 153.78 106.28 148 97.5C145.757 96.0292 143.257 95.0292 140.5 94.5C144.527 91.3063 148.694 88.3063 153 85.5C153.395 87.1786 153.228 88.8453 152.5 90.5C157.707 99.8799 163.54 108.88 170 117.5C176.141 120.816 181.474 119.816 186 114.5C188.086 110.333 187.753 106.333 185 102.5C179.609 95.4408 174.609 88.1074 170 80.5C167.853 79.8875 165.686 79.2208 163.5 78.5C167.208 75.7767 170.875 73.1101 174.5 70.5Z" fill="#224E9B"/>
<path fill-rule="evenodd" clip-rule="evenodd" d="M348.5 100.5C442.063 114.224 505.896 165.224 540 253.5C549.528 283.475 553.028 314.142 550.5 345.5C550.5 346.833 550.5 348.167 550.5 349.5C538.73 431.426 496.063 491.26 422.5 529C343.621 563.446 268.288 557.112 196.5 510C133.729 463.632 101.729 401.132 100.5 322.5C104.486 236.653 143.153 171.82 216.5 128C257.737 105.645 301.737 96.4782 348.5 100.5Z" fill="#F8FAFB"/>
<path fill-rule="evenodd" clip-rule="evenodd" d="M318.5 340.5C319.5 340.5 320.5 340.5 321.5 340.5C321.5 404.5 321.5 468.5 321.5 532.5C320.5 532.5 319.5 532.5 318.5 532.5C319.826 500.713 320.493 468.713 320.5 436.5C320.493 404.287 319.826 372.287 318.5 340.5Z" fill="#1F4887"/>
<path fill-rule="evenodd" clip-rule="evenodd" d="M195.5 411.5C195.667 433.836 195.5 456.169 195 478.5C194.329 479.252 193.496 479.586 192.5 479.5C192.783 478.711 193.283 478.044 194 477.5C194.168 455.33 194.668 433.33 195.5 411.5Z" fill="#5A77A7"/>
<path fill-rule="evenodd" clip-rule="evenodd" d="M450.5 372.5C450.5 367.167 450.5 361.833 450.5 356.5C456.026 356.821 461.36 356.488 466.5 355.5C467.483 351.702 467.817 347.702 467.5 343.5C449.833 343.5 432.167 343.5 414.5 343.5C414.333 387.501 414.5 431.501 415 475.5C418.183 477.523 421.683 478.023 425.5 477C426.056 476.617 426.389 476.117 426.5 475.5C427.499 436.004 427.832 396.337 427.5 356.5C431.167 356.5 434.833 356.5 438.5 356.5C438.934 391.078 442.767 425.411 450 459.5C451.216 465.751 453.382 471.584 456.5 477C459.833 477.333 463.167 477.667 466.5 478C454.424 487.43 442.424 496.764 430.5 506C424.33 509.857 417.663 512.191 410.5 513C409.061 513.991 408.061 515.324 407.5 517C397.765 518.368 388.765 521.702 380.5 527C364.018 530.437 347.351 532.27 330.5 532.5C330.167 468.497 330.5 404.497 331.5 340.5C336.5 338.833 339.833 335.5 341.5 330.5C405.164 329.333 468.831 329.167 532.5 330C536.585 333.687 536.252 337.021 531.5 340C535.234 350.507 534.068 360.341 528 369.5C527.273 377.796 525.606 385.796 523 393.5C517.439 397.299 515.106 402.632 516 409.5C513.644 416.912 509.978 423.579 505 429.5C502.685 442.152 496.018 451.818 485 458.5C484.553 462.561 482.386 465.061 478.5 466C476.696 470.304 473.696 473.471 469.5 475.5C458.629 442.094 452.296 407.761 450.5 372.5Z" fill="#164A99"/>
<path fill-rule="evenodd" clip-rule="evenodd" d="M466.5 355.5C461.36 356.488 456.026 356.821 450.5 356.5C450.5 361.833 450.5 367.167 450.5 372.5C449.511 367.025 449.178 361.358 449.5 355.5C455.167 355.5 460.833 355.5 466.5 355.5Z" fill="#7795C2"/>
<path fill-rule="evenodd" clip-rule="evenodd" d="M348.5 355.5C354.167 355.5 359.833 355.5 365.5 355.5C365.822 361.358 365.489 367.025 364.5 372.5C364.5 367.167 364.5 361.833 364.5 356.5C358.974 356.821 353.64 356.488 348.5 355.5Z" fill="#7794C2"/>
<path fill-rule="evenodd" clip-rule="evenodd" d="M438.5 356.5C434.833 356.5 431.167 356.5 427.5 356.5C427.832 396.337 427.499 436.004 426.5 475.5C426.5 435.5 426.5 395.5 426.5 355.5C430.702 355.183 434.702 355.517 438.5 356.5Z" fill="#5070A3"/>
<path fill-rule="evenodd" clip-rule="evenodd" d="M400.5 343.5C401.167 365.497 401.5 387.664 401.5 410C401.5 432.51 400.833 454.677 399.5 476.5C400.494 432.239 400.828 387.905 400.5 343.5Z" fill="#26477A"/>
<path fill-rule="evenodd" clip-rule="evenodd" d="M400.5 343.5C400.828 387.905 400.494 432.239 399.5 476.5C396.36 477.641 393.027 477.808 389.5 477C388.944 476.617 388.611 476.117 388.5 475.5C388.5 435.5 388.5 395.5 388.5 355.5C384.167 355.5 379.833 355.5 375.5 355.5C375.5 359.833 375.5 364.167 375.5 368.5C375.313 402.017 371.146 435.017 363 467.5C362.058 470.443 360.892 473.276 359.5 476C355.3 477.367 350.967 477.867 346.5 477.5C351.624 457.001 356.124 436.334 360 415.5C362.657 401.285 364.157 386.952 364.5 372.5C365.489 367.025 365.822 361.358 365.5 355.5C359.833 355.5 354.167 355.5 348.5 355.5C347.517 351.702 347.183 347.702 347.5 343.5C365.167 343.5 382.833 343.5 400.5 343.5Z" fill="#FAFCFC"/>
<path fill-rule="evenodd" clip-rule="evenodd" d="M388.5 475.5C387.501 436.004 387.168 396.337 387.5 356.5C383.833 356.5 380.167 356.5 376.5 356.5C376.817 360.702 376.483 364.702 375.5 368.5C375.5 364.167 375.5 359.833 375.5 355.5C379.833 355.5 384.167 355.5 388.5 355.5C388.5 395.5 388.5 435.5 388.5 475.5Z" fill="#6E8BB9"/>
<path fill-rule="evenodd" clip-rule="evenodd" d="M318.5 340.5C319.826 372.287 320.493 404.287 320.5 436.5C320.493 468.713 319.826 500.713 318.5 532.5C316.208 534.45 313.541 535.45 310.5 535.5C300.979 532.938 291.312 531.105 281.5 530C279.568 527.907 277.235 526.407 274.5 525.5C270.63 527.172 266.63 527.672 262.5 527C260.626 520.73 256.626 518.73 250.5 521C243.972 519.501 238.306 516.501 233.5 512C221.716 509.11 211.383 503.61 202.5 495.5C201.866 493.433 200.866 491.6 199.5 490C194.882 487.05 190.548 483.716 186.5 480C188.473 479.505 190.473 479.338 192.5 479.5C193.496 479.586 194.329 479.252 195 478.5C195.5 456.169 195.667 433.836 195.5 411.5C195.611 410.883 195.944 410.383 196.5 410C228.514 409.219 260.514 409.386 292.5 410.5C292.333 432.503 292.5 454.503 293 476.5C293.833 477.333 294.667 478.167 295.5 479C298.482 479.498 301.482 479.665 304.5 479.5C304.828 452.259 304.495 425.093 303.5 398C269.153 396.474 234.82 396.307 200.5 397.5C194.833 397.5 189.167 397.5 183.5 397.5C183.5 403.833 183.5 410.167 183.5 416.5C182.795 437.156 182.295 457.823 182 478.5C175.614 472.049 169.947 465.049 165 457.5C160.7 454.202 156.7 450.535 153 446.5C152.667 444.833 152.333 443.167 152 441.5C147.87 438.573 145.87 434.573 146 429.5C140.253 422.346 135.253 414.679 131 406.5C130.667 403.833 130.333 401.167 130 398.5C120.308 376.542 115.141 353.542 114.5 329.5C179.834 329.333 245.168 329.5 310.5 330C311.883 334.541 314.55 338.041 318.5 340.5Z" fill="#184A9A"/>
<path fill-rule="evenodd" clip-rule="evenodd" d="M237.5 464.5C226.679 465.495 215.679 465.828 204.5 465.5C204.5 468.167 204.5 470.833 204.5 473.5C203.523 470.713 203.19 467.713 203.5 464.5C214.833 464.5 226.167 464.5 237.5 464.5Z" fill="#34558A"/>
<path fill-rule="evenodd" clip-rule="evenodd" d="M204.5 473.5C204.5 470.833 204.5 468.167 204.5 465.5C215.679 465.828 226.679 465.495 237.5 464.5C237.5 461.833 237.5 459.167 237.5 456.5C226.813 456.832 216.146 456.499 205.5 455.5C204.354 443.546 204.188 431.546 205 419.5C208.394 418.544 211.894 418.211 215.5 418.5C215.5 427.5 215.5 436.5 215.5 445.5C222.841 445.666 230.174 445.5 237.5 445C233.333 440.167 229.167 435.333 225 430.5C222.839 426.152 223.005 421.985 225.5 418C237.833 417.333 250.167 417.333 262.5 418C265.059 422.788 264.892 427.621 262 432.5C257.817 436.382 253.984 440.549 250.5 445C257.826 445.5 265.159 445.666 272.5 445.5C272.5 436.5 272.5 427.5 272.5 418.5C276.106 418.211 279.606 418.544 283 419.5C283.667 431.167 283.667 442.833 283 454.5C282.5 455 282 455.5 281.5 456C271.172 456.5 260.839 456.666 250.5 456.5C250.666 462.176 250.499 467.843 250 473.5C249.5 474 249 474.5 248.5 475C234.167 475.667 219.833 475.667 205.5 475C204.944 474.617 204.611 474.117 204.5 473.5Z" fill="#F7FAFB"/>
<path fill-rule="evenodd" clip-rule="evenodd" d="M250.5 430.5C248.164 433.176 245.831 435.842 243.5 438.5C240.812 436.479 238.479 434.146 236.5 431.5C240.97 430.514 245.637 430.181 250.5 430.5Z" fill="#1C4C9A"/>
<path fill-rule="evenodd" clip-rule="evenodd" d="M250.5 430.5C245.637 430.181 240.97 430.514 236.5 431.5C235.957 431.44 235.624 431.107 235.5 430.5C240.652 429.186 245.652 429.186 250.5 430.5Z" fill="#37598F"/>
<path fill-rule="evenodd" clip-rule="evenodd" d="M200.5 397.5C195.36 398.488 190.026 398.821 184.5 398.5C184.823 404.69 184.49 410.69 183.5 416.5C183.5 410.167 183.5 403.833 183.5 397.5C189.167 397.5 194.833 397.5 200.5 397.5Z" fill="#BFD2EE"/>
<path fill-rule="evenodd" clip-rule="evenodd" d="M300.5 388.5C300.389 389.117 300.056 389.617 299.5 390C289.658 390.825 279.991 390.658 270.5 389.5C280.552 389.784 290.552 389.45 300.5 388.5Z" fill="#385D95"/>
<path fill-rule="evenodd" clip-rule="evenodd" d="M290.5 374.5C291.468 376.607 291.802 378.941 291.5 381.5C285.167 381.5 278.833 381.5 272.5 381.5C278.31 380.51 284.31 380.177 290.5 380.5C290.5 378.5 290.5 376.5 290.5 374.5Z" fill="#5175AB"/>
<path fill-rule="evenodd" clip-rule="evenodd" d="M290.5 360.5C291.468 362.607 291.802 364.941 291.5 367.5C285.167 367.5 278.833 367.5 272.5 367.5C278.31 366.51 284.31 366.177 290.5 366.5C290.5 364.5 290.5 362.5 290.5 360.5Z" fill="#5D84BF"/>
<path fill-rule="evenodd" clip-rule="evenodd" d="M291.5 342.5C291.5 346.167 291.5 349.833 291.5 353.5C284.833 353.5 278.167 353.5 271.5 353.5C277.645 352.51 283.978 352.177 290.5 352.5C290.187 348.958 290.521 345.625 291.5 342.5Z" fill="#617FAD"/>
<path fill-rule="evenodd" clip-rule="evenodd" d="M291.5 342.5C295.167 342.5 298.833 342.5 302.5 342.5C302.667 356.837 302.5 371.171 302 385.5C301.487 386.527 300.987 387.527 300.5 388.5C290.552 389.45 280.552 389.784 270.5 389.5C270.337 387.143 270.503 384.81 271 382.5C271.383 381.944 271.883 381.611 272.5 381.5C278.833 381.5 285.167 381.5 291.5 381.5C291.802 378.941 291.468 376.607 290.5 374.5C283.833 374.5 277.167 374.5 270.5 374.5C270.338 372.473 270.505 370.473 271 368.5C271.383 367.944 271.883 367.611 272.5 367.5C278.833 367.5 285.167 367.5 291.5 367.5C291.802 364.941 291.468 362.607 290.5 360.5C283.833 360.5 277.167 360.5 270.5 360.5C270.298 358.05 270.631 355.717 271.5 353.5C278.167 353.5 284.833 353.5 291.5 353.5C291.5 349.833 291.5 346.167 291.5 342.5Z" fill="#F8FBFB"/>
<path fill-rule="evenodd" clip-rule="evenodd" d="M196.5 342.5C197.482 345.962 197.815 349.629 197.5 353.5C204.175 353.334 210.842 353.5 217.5 354C218.423 356.041 218.756 358.208 218.5 360.5C211.5 360.5 204.5 360.5 197.5 360.5C197.5 362.833 197.5 365.167 197.5 367.5C204.175 367.334 210.842 367.5 217.5 368C218.423 370.041 218.756 372.208 218.5 374.5C211.5 374.5 204.5 374.5 197.5 374.5C197.5 376.833 197.5 379.167 197.5 381.5C204.175 381.334 210.842 381.5 217.5 382C218.435 384.381 218.768 386.881 218.5 389.5C208.828 389.666 199.161 389.5 189.5 389C188.627 387.955 187.627 387.122 186.5 386.5C186.5 371.833 186.5 357.167 186.5 342.5C189.833 342.5 193.167 342.5 196.5 342.5Z" fill="#FAFCFC"/>
<path fill-rule="evenodd" clip-rule="evenodd" d="M196.5 342.5C193.167 342.5 189.833 342.5 186.5 342.5C186.5 357.167 186.5 371.833 186.5 386.5C185.504 371.676 185.171 356.676 185.5 341.5C189.371 341.185 193.038 341.518 196.5 342.5Z" fill="#30528A"/>
<path fill-rule="evenodd" clip-rule="evenodd" d="M230.5 341.5C235.615 343.426 240.115 346.426 244 350.5C247.728 347.101 251.728 344.101 256 341.5C259.66 343.131 261.66 345.797 262 349.5C258.688 351.645 255.854 354.312 253.5 357.5C256.353 361.187 259.686 364.353 263.5 367C259.833 370 256.167 373 252.5 376C256.152 378.653 259.486 381.653 262.5 385C260.697 387.804 258.53 390.304 256 392.5C252.179 389.257 248.179 386.257 244 383.5C240.275 386.616 236.442 389.616 232.5 392.5C229.257 390.452 227.09 387.785 226 384.5C228.884 381.315 232.051 378.482 235.5 376C231.686 373.353 228.353 370.187 225.5 366.5C228.833 363.5 232.167 360.5 235.5 357.5C231.951 354.448 228.617 351.281 225.5 348C226.985 345.683 228.652 343.516 230.5 341.5Z" fill="#F8FAFB"/>
<path fill-rule="evenodd" clip-rule="evenodd" d="M242.5 362.5C245.283 364.067 247.949 365.9 250.5 368C248.023 369.643 245.69 371.476 243.5 373.5C240.736 372.239 238.403 370.405 236.5 368C238.396 365.932 240.396 364.099 242.5 362.5Z" fill="#26509A"/>
<path fill-rule="evenodd" clip-rule="evenodd" d="M323.5 316.5C330.985 316.483 334.485 320.15 334 327.5C331.983 332.924 328.15 334.758 322.5 333C317.931 330.459 316.431 326.625 318 321.5C319.73 319.598 321.563 317.931 323.5 316.5Z" fill="#1F4D9A"/>
<path fill-rule="evenodd" clip-rule="evenodd" d="M297.5 116.5C305.167 116.5 312.833 116.5 320.5 116.5C320.232 118.099 320.566 119.432 321.5 120.5C321.833 182.837 321.5 245.17 320.5 307.5C314.407 309.925 310.407 314.259 308.5 320.5C277.333 320.833 246.167 321.167 215 321.5C182.774 321.656 150.607 321.156 118.5 320C117.866 317.925 117.532 315.759 117.5 313.5C118.066 306.505 118.566 299.505 119 292.5C119.419 291.328 120.085 290.328 121 289.5C120.618 282.528 122.118 276.028 125.5 270C127.008 250.127 134.508 232.627 148 217.5C148.186 215.1 148.686 212.766 149.5 210.5C150.167 210.167 150.833 209.833 151.5 209.5C152.389 206.721 153.556 204.055 155 201.5C156.356 200.62 157.856 200.286 159.5 200.5C159.343 199.127 159.51 197.793 160 196.5C162.333 194.833 164.667 193.167 167 191.5C167.333 189.833 167.667 188.167 168 186.5C172.333 182.833 176.667 179.167 181 175.5C182.706 169.794 186.373 166.127 192 164.5C194.677 160.906 198.177 158.406 202.5 157C208.873 150.958 215.54 145.292 222.5 140C224.047 139.667 225.38 140.167 226.5 141.5C228.65 139.851 230.65 138.018 232.5 136C234.811 136.155 237.144 136.155 239.5 136C254.028 126.06 270.028 120.727 287.5 120C290.438 117.743 293.771 116.576 297.5 116.5Z" fill="#184A9A"/>
<path fill-rule="evenodd" clip-rule="evenodd" d="M256.5 289.5C257.358 295.017 258.191 300.683 259 306.5C261.041 307.423 263.208 307.756 265.5 307.5C262.77 308.817 259.937 308.817 257 307.5C256.501 301.509 256.334 295.509 256.5 289.5Z" fill="#3F61A1"/>
<path fill-rule="evenodd" clip-rule="evenodd" d="M248.5 187.5C264.833 187.5 281.167 187.5 297.5 187.5C297.5 190.833 297.5 194.167 297.5 197.5C296.523 194.713 296.19 191.713 296.5 188.5C280.325 188.83 264.325 188.496 248.5 187.5Z" fill="#A5BADE"/>
<path fill-rule="evenodd" clip-rule="evenodd" d="M237.5 169.5C237.5 175.833 237.5 182.167 237.5 188.5C221.167 188.5 204.833 188.5 188.5 188.5C204.325 187.504 220.325 187.17 236.5 187.5C236.177 181.31 236.51 175.31 237.5 169.5Z" fill="#96ADD4"/>
<path fill-rule="evenodd" clip-rule="evenodd" d="M248.5 187.5C264.325 188.496 280.325 188.83 296.5 188.5C296.19 191.713 296.523 194.713 297.5 197.5C298.787 231.943 301.454 266.276 305.5 300.5C301.818 300.665 298.152 300.499 294.5 300C293.299 299.097 292.465 297.931 292 296.5C289.639 273.22 288.139 249.887 287.5 226.5C287.479 217.818 287.146 209.152 286.5 200.5C278.833 200.5 271.167 200.5 263.5 200.5C263.174 209.349 263.507 218.016 264.5 226.5C265.545 251.454 267.879 276.288 271.5 301C272.07 305.596 270.07 307.762 265.5 307.5C263.208 307.756 261.041 307.423 259 306.5C258.191 300.683 257.358 295.017 256.5 289.5C256.261 285.158 255.927 280.824 255.5 276.5C253.501 251.05 252.168 225.717 251.5 200.5C245.5 200.5 239.5 200.5 233.5 200.5C233.501 235.976 231.335 271.309 227 306.5C223.591 307.622 220.091 307.789 216.5 307C215.02 305.701 214.354 304.034 214.5 302C218.858 268.302 221.525 234.469 222.5 200.5C214.833 200.5 207.167 200.5 199.5 200.5C199.5 207.5 199.5 214.5 199.5 221.5C198.214 232.978 197.547 244.645 197.5 256.5C196.414 270.19 194.914 283.856 193 297.5C192.626 298.416 192.126 299.25 191.5 300C187.848 300.499 184.182 300.665 180.5 300.5C185.156 263.311 187.822 225.978 188.5 188.5C204.833 188.5 221.167 188.5 237.5 188.5C237.5 182.167 237.5 175.833 237.5 169.5C241.001 168.203 244.501 168.203 248 169.5C248.499 175.491 248.666 181.491 248.5 187.5Z" fill="#F8FBFB"/>
<path fill-rule="evenodd" clip-rule="evenodd" d="M251.5 200.5C252.168 225.717 253.501 251.05 255.5 276.5C254.883 276.389 254.383 276.056 254 275.5C251.971 250.541 251.137 225.541 251.5 200.5Z" fill="#42629C"/>
<path fill-rule="evenodd" clip-rule="evenodd" d="M199.5 221.5C199.765 233.372 199.099 245.039 197.5 256.5C197.547 244.645 198.214 232.978 199.5 221.5Z" fill="#305492"/>
<path fill-rule="evenodd" clip-rule="evenodd" d="M287.5 226.5C286.883 226.389 286.383 226.056 286 225.5C285.5 217.507 285.334 209.507 285.5 201.5C278.5 201.5 271.5 201.5 264.5 201.5C264.5 209.833 264.5 218.167 264.5 226.5C263.507 218.016 263.174 209.349 263.5 200.5C271.167 200.5 278.833 200.5 286.5 200.5C287.146 209.152 287.479 217.818 287.5 226.5Z" fill="#3B5C98"/>
<path fill-rule="evenodd" clip-rule="evenodd" d="M330.5 115.5C346.111 116.547 361.778 117.714 377.5 119C381.295 119.793 384.295 121.793 386.5 125C391.167 125.333 395.833 125.667 400.5 126C401.743 127.154 402.743 128.488 403.5 130C412.268 130.886 419.935 134.219 426.5 140C429.133 139.747 431.8 139.747 434.5 140C442.537 147.705 450.87 155.039 459.5 162C461.808 163.867 464.475 164.867 467.5 165C469.635 168.48 471.802 171.98 474 175.5C475.734 176.249 477.567 176.749 479.5 177C486.283 183.403 491.45 190.903 495 199.5C497.63 203.132 500.63 206.465 504 209.5C506.806 215.25 508.806 221.25 510 227.5C516.15 233.634 520.65 240.801 523.5 249C523.245 250.326 522.578 251.326 521.5 252C522.819 254.285 524.319 256.452 526 258.5C527.056 264.895 528.39 271.228 530 277.5C533.679 279.367 534.512 282.2 532.5 286C537.193 297.277 538.193 308.777 535.5 320.5C470.862 321.489 406.196 321.823 341.5 321.5C340.167 315.5 336.5 311.833 330.5 310.5C330.5 245.5 330.5 180.5 330.5 115.5Z" fill="#194B9A"/>
<path fill-rule="evenodd" clip-rule="evenodd" d="M469.5 304.5C470.451 305.919 470.784 307.585 470.5 309.5C467.287 309.81 464.287 309.477 461.5 308.5C464.167 308.5 466.833 308.5 469.5 308.5C469.5 307.167 469.5 305.833 469.5 304.5Z" fill="#8BA5CE"/>
<path fill-rule="evenodd" clip-rule="evenodd" d="M361.5 237.5C388.85 237.201 416.183 237.701 443.5 239C445.768 240.558 446.934 242.724 447 245.5C447.836 264.191 447.503 282.858 446 301.5C443.834 303.121 441.334 303.955 438.5 304C414.851 305.472 391.184 305.806 367.5 305C362.084 304.841 356.75 304.174 351.5 303C351 302.5 350.5 302 350 301.5C348.108 281.48 348.108 261.48 350 241.5C350.833 240.667 351.667 239.833 352.5 239C355.695 238.819 358.695 238.319 361.5 237.5Z" fill="#F8FAFB"/>
<path fill-rule="evenodd" clip-rule="evenodd" d="M426.5 291.5C427.289 291.783 427.956 292.283 428.5 293C421.321 293.821 414.321 293.655 407.5 292.5C414.022 292.823 420.355 292.49 426.5 291.5Z" fill="#6986B4"/>
<path fill-rule="evenodd" clip-rule="evenodd" d="M377.5 291.5C383.31 292.49 389.31 292.823 395.5 292.5C389.322 293.817 382.988 293.817 376.5 292.5C376.624 291.893 376.957 291.56 377.5 291.5Z" fill="#5878AA"/>
<path fill-rule="evenodd" clip-rule="evenodd" d="M426.5 291.5C420.355 292.49 414.022 292.823 407.5 292.5C408.155 289.189 409.821 286.522 412.5 284.5C417.467 286.317 422.134 288.65 426.5 291.5Z" fill="#214E9A"/>
<path fill-rule="evenodd" clip-rule="evenodd" d="M395.5 292.5C389.31 292.823 383.31 292.49 377.5 291.5C380.854 284.106 385.187 277.439 390.5 271.5C395.333 273.414 399.666 276.08 403.5 279.5C401.059 284.065 398.392 288.398 395.5 292.5Z" fill="#1C4C9A"/>
<path fill-rule="evenodd" clip-rule="evenodd" d="M361.5 254.5C360.505 265.321 360.172 276.321 360.5 287.5C359.176 276.326 359.176 264.993 360.5 253.5C361.107 253.624 361.44 253.957 361.5 254.5Z" fill="#92ACD4"/>
<path fill-rule="evenodd" clip-rule="evenodd" d="M361.5 254.5C367.139 257.655 372.806 260.821 378.5 264C379.097 265.062 379.43 266.228 379.5 267.5C375.629 275.573 371.462 283.573 367 291.5C362.552 293.661 360.385 292.328 360.5 287.5C360.172 276.321 360.505 265.321 361.5 254.5Z" fill="#194B99"/>
<path fill-rule="evenodd" clip-rule="evenodd" d="M431.5 248.5C433.467 248.261 435.301 248.594 437 249.5C437.667 262.167 437.667 274.833 437 287.5C431.084 284.126 425.25 280.626 419.5 277C418.903 275.938 418.57 274.772 418.5 273.5C422.564 265.04 426.897 256.707 431.5 248.5Z" fill="#1A4B99"/>
<path fill-rule="evenodd" clip-rule="evenodd" d="M402.5 248.5C408.69 248.177 414.69 248.51 420.5 249.5C417.146 256.894 412.813 263.561 407.5 269.5C402.667 267.586 398.334 264.92 394.5 261.5C397.228 257.127 399.895 252.794 402.5 248.5Z" fill="#1B4B9A"/>
<path fill-rule="evenodd" clip-rule="evenodd" d="M371.5 249.5C377.31 248.51 383.31 248.177 389.5 248.5C390.573 249.251 390.74 250.251 390 251.5C388.732 253.717 387.232 255.717 385.5 257.5C380.806 254.821 376.139 252.155 371.5 249.5Z" fill="#214D9A"/>
<path fill-rule="evenodd" clip-rule="evenodd" d="M402.5 248.5C408.678 247.183 415.012 247.183 421.5 248.5C421.376 249.107 421.043 249.44 420.5 249.5C414.69 248.51 408.69 248.177 402.5 248.5Z" fill="#7894C1"/>
<path fill-rule="evenodd" clip-rule="evenodd" d="M389.5 248.5C383.31 248.177 377.31 248.51 371.5 249.5C370.711 249.217 370.044 248.717 369.5 248C376.346 247.179 383.013 247.346 389.5 248.5Z" fill="#7A97C3"/>
<path fill-rule="evenodd" clip-rule="evenodd" d="M452.5 205.5C422.005 206.498 391.338 206.831 360.5 206.5C360.5 209.5 360.5 212.5 360.5 215.5C396.337 215.168 432.004 215.502 467.5 216.5C431.5 216.5 395.5 216.5 359.5 216.5C359.5 212.833 359.5 209.167 359.5 205.5C390.5 205.5 421.5 205.5 452.5 205.5Z" fill="#4F6DA0"/>
<path fill-rule="evenodd" clip-rule="evenodd" d="M351.5 184.5C382.833 184.5 414.167 184.5 445.5 184.5C445.5 187.833 445.5 191.167 445.5 194.5C413.167 194.5 380.833 194.5 348.5 194.5C380.329 193.502 412.329 193.168 444.5 193.5C444.5 190.833 444.5 188.167 444.5 185.5C413.329 185.831 382.329 185.498 351.5 184.5Z" fill="#1D488A"/>
<path fill-rule="evenodd" clip-rule="evenodd" d="M452.5 205.5C421.5 205.5 390.5 205.5 359.5 205.5C359.5 209.167 359.5 212.833 359.5 216.5C395.5 216.5 431.5 216.5 467.5 216.5C467.161 245.862 467.828 275.195 469.5 304.5C469.5 305.833 469.5 307.167 469.5 308.5C466.833 308.5 464.167 308.5 461.5 308.5C460.542 308.047 459.708 307.381 459 306.5C457.657 280.186 457.157 253.853 457.5 227.5C421.832 227.667 386.165 227.5 350.5 227C350 226.5 349.5 226 349 225.5C348.5 215.172 348.334 204.839 348.5 194.5C380.833 194.5 413.167 194.5 445.5 194.5C445.5 191.167 445.5 187.833 445.5 184.5C414.167 184.5 382.833 184.5 351.5 184.5C350.21 183.942 349.377 182.942 349 181.5C348.503 178.854 348.336 176.187 348.5 173.5C384.5 173.5 420.5 173.5 456.5 173.5C456.666 183.506 456.5 193.506 456 203.5C455.184 204.823 454.017 205.489 452.5 205.5Z" fill="#FAFDFC"/>
<path fill-rule="evenodd" clip-rule="evenodd" d="M297.5 116.5C305.316 115.508 313.316 115.174 321.5 115.5C321.5 117.167 321.5 118.833 321.5 120.5C320.566 119.432 320.232 118.099 320.5 116.5C312.833 116.5 305.167 116.5 297.5 116.5Z" fill="#90AAD3"/>
<path fill-rule="evenodd" clip-rule="evenodd" d="M348.5 100.5C334.372 98.8703 320.039 98.0369 305.5 97.9998C328.638 95.6045 351.638 96.6045 374.5 101C372.712 102.088 370.712 102.588 368.5 102.5C361.937 100.953 355.271 100.286 348.5 100.5Z" fill="#12499F"/>
<path fill-rule="evenodd" clip-rule="evenodd" d="M421.5 90.5C420.391 91.29 419.058 91.79 417.5 92C418.056 92.3826 418.389 92.8826 418.5 93.5C416.952 93.1788 416.285 92.1788 416.5 90.5C418.167 90.5 419.833 90.5 421.5 90.5Z" fill="#99AFD4"/>
<path fill-rule="evenodd" clip-rule="evenodd" d="M303.5 74.5C309.979 75.4907 316.646 75.824 323.5 75.5C316.656 76.8188 309.656 76.8188 302.5 75.5C302.624 74.8933 302.957 74.56 303.5 74.5Z" fill="#AAC1E4"/>
<path fill-rule="evenodd" clip-rule="evenodd" d="M219.5 48.5003C220.873 48.3436 222.207 48.5103 223.5 49.0003C221.556 51.1532 221.056 53.6532 222 56.5003C227.441 67.7145 232.607 79.0478 237.5 90.5003C235.809 92.2565 233.809 92.7565 231.5 92.0003C219.833 84.5003 208.167 77.0003 196.5 69.5003C196.167 69.8336 195.833 70.167 195.5 70.5003C200.272 79.7116 204.772 89.045 209 98.5003C210.491 100.004 212.324 100.837 214.5 101C210.912 102.923 207.246 104.756 203.5 106.5C203.167 106.167 202.833 105.833 202.5 105.5C204.256 103.809 204.756 101.809 204 99.5003C199.208 88.443 194.042 77.6096 188.5 67.0003C187.062 66.7814 185.729 66.2814 184.5 65.5003C188.11 62.8548 192.11 61.6881 196.5 62.0003C207.256 68.4602 217.756 75.2935 228 82.5003C224.829 72.9839 220.662 63.8173 215.5 55.0003C214.062 54.7814 212.729 54.2814 211.5 53.5003C214.231 51.8087 216.898 50.142 219.5 48.5003Z" fill="#204D9A"/>
<path fill-rule="evenodd" clip-rule="evenodd" d="M454.5 59.5C466.392 65.4494 478.058 71.9494 489.5 79C487.875 82.4199 485.875 85.5866 483.5 88.5C482.914 88.2907 482.414 87.9574 482 87.5C481.667 84.1667 481.333 80.8333 481 77.5C478.68 74.9838 476.013 73.9838 473 74.5C467.333 84.5 461.667 94.5 456 104.5C455.46 107.419 455.793 110.086 457 112.5C452.233 110.062 447.733 107.229 443.5 104C446.007 103.907 448.174 103.074 450 101.5C455.833 91.1667 461.667 80.8333 467.5 70.5C465.932 67.881 463.598 66.5477 460.5 66.5C456.981 67.6169 453.647 68.7836 450.5 70C450.043 69.586 449.709 69.086 449.5 68.5C451.445 65.6067 453.111 62.6067 454.5 59.5Z" fill="#214E9A"/>
<path fill-rule="evenodd" clip-rule="evenodd" d="M418.5 93.4998C418.389 92.8824 418.056 92.3824 417.5 91.9998C419.058 91.7898 420.391 91.2898 421.5 90.4998C426.606 79.1145 431.606 67.6145 436.5 55.9998C435.711 54.3743 434.711 52.8743 433.5 51.4998C434.365 50.4171 435.365 50.2504 436.5 50.9998C440.5 52.9998 444.5 54.9998 448.5 56.9998C445.724 57.0655 443.558 58.2322 442 60.4998C437.5 71.3331 433 82.1665 428.5 92.9998C429.289 94.6253 430.289 96.1253 431.5 97.4998C431.167 97.8331 430.833 98.1665 430.5 98.4998C426.474 96.818 422.474 95.1513 418.5 93.4998Z" fill="#214E9A"/>
<path fill-rule="evenodd" clip-rule="evenodd" d="M329.5 45.5C330.485 49.6344 330.818 53.9677 330.5 58.5C328.901 58.7678 327.568 58.4345 326.5 57.5C327.5 57.5 328.5 57.5 329.5 57.5C329.5 53.5 329.5 49.5 329.5 45.5Z" fill="#869FC5"/>
<path fill-rule="evenodd" clip-rule="evenodd" d="M241.5 41.5003C243.199 41.3401 244.866 41.5068 246.5 42.0003C244.556 44.1532 244.056 46.6532 245 49.5003C247.966 60.5399 251.466 71.3733 255.5 82.0003C256.938 82.2192 258.271 82.7192 259.5 83.5003C255.16 85.4487 250.66 87.1154 246 88.5003C245.5 88.167 245 87.8336 244.5 87.5003C247.334 85.5595 248.168 82.8929 247 79.5003C243.874 68.8583 240.374 58.3583 236.5 48.0003C234.616 47.784 232.949 47.1173 231.5 46.0003C234.859 44.3881 238.192 42.8881 241.5 41.5003Z" fill="#234F9B"/>
<path fill-rule="evenodd" clip-rule="evenodd" d="M401.5 42.4998C408.809 41.8583 415.809 43.025 422.5 45.9998C423.728 46.7788 424.728 47.7788 425.5 48.9998C424.521 51.4331 423.855 53.9331 423.5 56.4998C422.178 56.6698 421.011 56.3364 420 55.4998C420.596 50.4313 418.43 47.2646 413.5 45.9998C405.173 43.9972 401.673 47.1638 403 55.4998C407.667 60.8331 412.333 66.1665 417 71.4998C418.82 81.3383 414.82 87.0049 405 88.4998C399.174 87.6712 393.674 85.8378 388.5 82.9998C385.991 79.479 386.158 75.979 389 72.4998C391.104 75.1668 392.771 78.1668 394 81.4998C404.972 87.9223 410.305 84.9223 410 72.4998C404.588 67.7586 399.921 62.4253 396 56.4998C395.333 53.8331 395.333 51.1665 396 48.4998C397.36 45.9772 399.193 43.9772 401.5 42.4998Z" fill="#26509B"/>
<path fill-rule="evenodd" clip-rule="evenodd" d="M280.5 34.4999C282.467 34.2605 284.301 34.5938 286 35.4999C285.886 40.6058 286.72 45.2725 288.5 49.4999C286.982 59.5542 285.149 69.5542 283 79.4999C281.274 80.5761 279.441 80.7428 277.5 79.9999C270.794 67.4198 263.96 54.9198 257 42.4999C255.414 41.6239 253.914 40.6239 252.5 39.4999C252.709 38.9139 253.043 38.4139 253.5 37.9999C257.871 37.3591 262.204 36.5257 266.5 35.4999C267.167 35.8332 267.833 36.1666 268.5 36.4999C265.271 37.8744 264.104 40.2078 265 43.4999C270 52.8332 275 62.1666 280 71.4999C282.716 59.9339 284.383 48.2673 285 36.4999C283.378 35.901 281.878 35.2343 280.5 34.4999Z" fill="#234F9B"/>
<path fill-rule="evenodd" clip-rule="evenodd" d="M346.5 30.5C356.428 31.0432 366.095 32.8765 375.5 36C382.251 42.5601 381.917 48.8934 374.5 55C372.065 55.853 369.731 56.853 367.5 58C368.579 58.956 369.745 59.7894 371 60.5C373.607 65.3797 375.94 70.3797 378 75.5C379.167 77.3333 380.667 78.8333 382.5 80C379.036 80.8166 375.702 80.4833 372.5 79C369.461 72.4233 366.295 65.9233 363 59.5C360.096 57.7732 356.93 57.1065 353.5 57.5C352.852 62.8283 352.685 68.1617 353 73.5C354.976 74.5433 355.476 75.8767 354.5 77.5C350.555 76.7315 346.555 76.2315 342.5 76C341.692 75.6924 341.025 75.1924 340.5 74.5C342.193 73.7717 343.693 72.7717 345 71.5C347.296 58.9111 348.629 46.2444 349 33.5C347.583 32.9221 346.75 31.9221 346.5 30.5Z" fill="#204D99"/>
<path fill-rule="evenodd" clip-rule="evenodd" d="M288.5 49.5C286.72 45.2726 285.886 40.6059 286 35.5C284.301 34.5939 282.467 34.2606 280.5 34.5C280.611 33.8826 280.944 33.3826 281.5 33C286.143 32.0017 290.81 31.6683 295.5 32C293.951 33.214 292.785 34.714 292 36.5C290.892 40.8844 289.725 45.2177 288.5 49.5Z" fill="#1D4C99"/>
<path fill-rule="evenodd" clip-rule="evenodd" d="M362.5 35.5C372.348 36.8548 375.182 42.1881 371 51.5C366.11 55.5514 360.61 56.5514 354.5 54.5C355.167 49.1667 355.833 43.8333 356.5 38.5C357.404 37.791 357.737 36.791 357.5 35.5C359.167 35.5 360.833 35.5 362.5 35.5Z" fill="#F6F9FA"/>
<path fill-rule="evenodd" clip-rule="evenodd" d="M362.5 35.5002C360.833 35.5002 359.167 35.5002 357.5 35.5002C357.737 36.7912 357.404 37.7912 356.5 38.5002C356.5 37.1669 356.5 35.8335 356.5 34.5002C358.735 34.2055 360.735 34.5388 362.5 35.5002Z" fill="#7998CA"/>
<path fill-rule="evenodd" clip-rule="evenodd" d="M308.5 30.5003C317.652 29.5067 326.985 29.1734 336.5 29.5003C336.5 33.167 336.5 36.8336 336.5 40.5003C334.901 40.7681 333.568 40.4348 332.5 39.5003C333.5 39.5003 334.5 39.5003 335.5 39.5003C335.5 36.5003 335.5 33.5003 335.5 30.5003C326.5 30.5003 317.5 30.5003 308.5 30.5003Z" fill="#809AC4"/>
<path fill-rule="evenodd" clip-rule="evenodd" d="M327.5 33.4997C322.833 33.4997 318.167 33.4997 313.5 33.4997C313.5 39.1664 313.5 44.833 313.5 50.4997C312.51 44.6897 312.177 38.6897 312.5 32.4997C317.695 32.1792 322.695 32.5125 327.5 33.4997Z" fill="#6B8BBC"/>
<path fill-rule="evenodd" clip-rule="evenodd" d="M308.5 30.5004C317.5 30.5004 326.5 30.5004 335.5 30.5004C335.5 33.5004 335.5 36.5004 335.5 39.5004C334.5 39.5004 333.5 39.5004 332.5 39.5004C331.744 36.6065 330.077 34.6065 327.5 33.5004C322.695 32.5132 317.695 32.1799 312.5 32.5004C312.177 38.6904 312.51 44.6904 313.5 50.5004C316.85 50.6654 320.183 50.4987 323.5 50.0004C325.037 48.8908 325.703 47.3908 325.5 45.5004C326.833 45.5004 328.167 45.5004 329.5 45.5004C329.5 49.5004 329.5 53.5004 329.5 57.5004C328.5 57.5004 327.5 57.5004 326.5 57.5004C325.972 56.2798 325.305 55.1131 324.5 54.0004C320.848 53.5018 317.182 53.3351 313.5 53.5004C313.5 59.8337 313.5 66.1671 313.5 72.5004C318.844 72.6664 324.177 72.4998 329.5 72.0004C331.484 69.8659 332.818 67.3659 333.5 64.5004C334.689 63.5717 336.022 63.2384 337.5 63.5004C337.5 67.5004 337.5 71.5004 337.5 75.5004C332.833 75.5004 328.167 75.5004 323.5 75.5004C316.646 75.8244 309.979 75.4911 303.5 74.5004C304.209 73.5964 305.209 73.2631 306.5 73.5004C306.667 60.4961 306.5 47.4961 306 34.5004C304.693 33.2287 303.193 32.2287 301.5 31.5004C303.743 30.5262 306.076 30.1928 308.5 30.5004Z" fill="#224E9A"/>
<path fill-rule="evenodd" clip-rule="evenodd" d="M314.5 9.5003C334.778 7.79711 355.112 8.63045 375.5 12.0003C376.056 12.3829 376.389 12.8829 376.5 13.5003C355.99 10.0184 335.323 8.68509 314.5 9.5003Z" fill="#3C5D97"/>
<path fill-rule="evenodd" clip-rule="evenodd" d="M533.5 469.5C540.141 483.418 547.641 497.752 556 512.5C556.825 514.701 556.325 516.534 554.5 518C551.743 518.584 549.077 518.25 546.5 517C535.5 512.667 524.5 508.333 513.5 504C511.064 504.053 508.731 503.887 506.5 503.5C509.833 499.5 513.167 495.5 516.5 491.5C516.567 493.424 516.9 495.424 517.5 497.5C520.461 499.564 523.628 501.231 527 502.5C530.333 498.5 533.667 494.5 537 490.5C536.926 486.189 535.093 482.689 531.5 480C529.536 479.376 527.869 479.876 526.5 481.5C526.167 481.167 525.833 480.833 525.5 480.5C528.43 476.952 531.097 473.285 533.5 469.5Z" fill="#224E9A"/>
<path fill-rule="evenodd" clip-rule="evenodd" d="M538.5 492.5C539.496 492.414 540.329 492.748 541 493.5C544.167 499.167 547.333 504.833 550.5 510.5C550.167 510.833 549.833 511.167 549.5 511.5C543.157 508.831 536.824 506.164 530.5 503.5C533.191 499.815 535.858 496.148 538.5 492.5Z" fill="#F0F5F9"/>
<path fill-rule="evenodd" clip-rule="evenodd" d="M290.5 553.5C295.731 553.444 300.731 554.111 305.5 555.5C300.269 555.556 295.269 554.889 290.5 553.5Z" fill="#5673A7"/>
<path fill-rule="evenodd" clip-rule="evenodd" d="M343.5 572.5C353.939 571.639 360.439 576.306 363 586.5C363.667 593.833 363.667 601.167 363 608.5C357.948 618.852 350.115 621.685 339.5 617C336.414 613.659 334.248 609.826 333 605.5C330.151 595.658 331.151 586.325 336 577.5C338.426 575.548 340.926 573.881 343.5 572.5Z" fill="#214E9A"/>
<path fill-rule="evenodd" clip-rule="evenodd" d="M343.5 575.5C347.594 574.705 350.761 576.038 353 579.5C357.843 590.631 358.51 601.965 355 613.5C350.568 617.743 346.568 617.41 343 612.5C338.939 602.897 337.606 592.897 339 582.5C340.012 579.798 341.512 577.465 343.5 575.5Z" fill="#F6F9FA"/>
<path fill-rule="evenodd" clip-rule="evenodd" d="M295.5 572.5C313.534 571.372 320.701 579.705 317 597.5C314.078 611.433 305.578 618.266 291.5 618C290.663 616.989 290.33 615.822 290.5 614.5C301.213 615.127 307.546 610.127 309.5 599.5C307.534 598.628 305.534 598.795 303.5 600C289.166 601.998 283.333 595.831 286 581.5C288.406 577.592 291.572 574.592 295.5 572.5Z" fill="#27519C"/>
<path fill-rule="evenodd" clip-rule="evenodd" d="M297.5 575.5C307.018 574.02 311.351 578.02 310.5 587.5C311.209 594.417 308.042 597.417 301 596.5C298.329 596.726 295.996 596.059 294 594.5C291.063 587.233 292.23 580.9 297.5 575.5Z" fill="#FAFCFC"/>
<path fill-rule="evenodd" clip-rule="evenodd" d="M261.5 566.5C263.288 566.215 264.955 566.548 266.5 567.5C262.312 579.751 258.978 592.251 256.5 605C256.439 606.711 257.106 608.044 258.5 609C260.664 609.914 262.664 611.081 264.5 612.5C263.667 612.833 262.833 613.167 262 613.5C254.171 611.418 246.338 609.418 238.5 607.5C238.281 606.325 238.614 605.325 239.5 604.5C242.699 605.799 245.865 605.799 249 604.5C252.221 594.451 255.054 584.284 257.5 574C257.138 572.115 255.971 571.281 254 571.5C251.178 572.275 248.344 572.942 245.5 573.5C245.5 572.5 245.5 571.5 245.5 570.5C251.094 569.768 256.427 568.435 261.5 566.5Z" fill="#254F9A"/>
<path fill-rule="evenodd" clip-rule="evenodd" d="M388.5 564.501C401.526 563.353 406.36 569.02 403 581.501C397.762 589.31 393.596 597.643 390.5 606.501C395.522 605.496 400.522 604.329 405.5 603.001C407.607 601.737 408.607 599.904 408.5 597.501C409.5 597.501 410.5 597.501 411.5 597.501C412.207 600.787 412.54 604.12 412.5 607.501C402.625 609.053 392.959 611.386 383.5 614.501C383.605 610.682 384.438 607.015 386 603.501C390.209 596.415 393.876 589.082 397 581.501C399.161 572.339 395.661 568.172 386.5 569.001C382.633 570.861 380.3 573.861 379.5 578.001C378.207 578.491 376.873 578.658 375.5 578.501C374.986 576.489 374.82 574.489 375 572.501C379.183 569.165 383.683 566.498 388.5 564.501Z" fill="#26509B"/>
<path fill-rule="evenodd" clip-rule="evenodd" d="M357.5 639.5C347.034 640.907 336.367 641.574 325.5 641.5C319.324 641.5 313.324 641.166 307.5 640.5C324.176 640.547 340.843 640.214 357.5 639.5Z" fill="#C0D1EB"/>
<path fill-rule="evenodd" clip-rule="evenodd" d="M291.5 648.5C309.158 649.185 326.825 649.518 344.5 649.5C334.347 650.494 324.014 650.828 313.5 650.5C305.953 650.594 298.62 649.928 291.5 648.5Z" fill="#294E8B"/>
</g>
<defs>
<clipPath id="clip0_56_8">
<rect width="652" height="652" fill="white"/>
</clipPath>
</defs>
</svg>
