<svg width="788" height="788" viewBox="0 0 788 788" fill="none" xmlns="http://www.w3.org/2000/svg">
<path d="M394.23 0.000256732C611.611 -0.0391603 787.866 176.134 787.906 393.494C787.945 610.854 611.754 787.092 394.373 787.132C176.99 787.171 0.73474 610.997 0.695319 393.637C0.676384 289.231 42.1476 189.096 115.982 115.271C189.701 41.3641 289.837 -0.119806 394.23 0.000256732ZM667.582 120.184C516.624 -30.7386 271.887 -30.7213 120.95 120.222C-29.9872 271.165 -29.9699 515.876 120.989 666.799C271.947 817.722 516.684 817.704 667.62 666.76C740.093 594.286 780.809 495.998 780.812 393.509C780.937 290.967 740.189 192.602 667.582 120.184Z" fill="#813C96"/>
<path d="M719.693 545.582L722.347 539.238L712.596 535.135L696.5 516.5L693.771 522.994L704.915 535.154L688.5 535.53L685.281 543.172L709.923 541.478L719.693 545.582Z" fill="#813C96"/>
<path d="M698.248 561.223L704.215 564.649C704.215 565.007 704.084 565.121 704.046 564.951C703.408 566.909 702.584 568.8 701.58 570.597C698.492 575.755 693.555 576.452 686.765 572.688C679.988 568.684 678.036 564.041 680.911 558.758C683.081 554.993 685.748 554.014 688.911 555.821L692.676 549.404C686.59 545.79 681.011 548.424 675.941 557.308C671.574 566.319 673.977 573.59 683.151 579.124C692.35 584.144 699.691 582.45 705.175 574.042C706.435 571.909 707.566 569.703 708.564 567.435C709.778 565.31 710.678 563.022 711.237 560.641L696.987 552.49L690.416 563.972L695.161 566.683L698.323 561.167L698.248 561.223Z" fill="#813C96"/>
<path d="M680.268 582.996C670.893 576.898 663.256 577.89 657.359 585.97C651.786 594.403 653.486 601.932 662.46 608.558C671.458 614.543 679.007 613.395 685.049 605.132C690.546 596.826 688.952 589.447 680.268 582.996ZM681.115 602.478C677.953 607.033 673.139 607.033 666.677 602.478C660.214 597.923 658.507 593.368 661.556 588.813C664.643 584.37 669.476 584.433 676.051 589.001C682.626 593.569 684.315 598.06 681.115 602.478Z" fill="#813C96"/>
<path d="M672.062 622.075L667.845 618.573L658.809 629.415L637.951 612.023L633.547 617.312L658.621 638.206L672.062 622.075Z" fill="#813C96"/>
<path d="M641.758 631.975C633.588 624.346 625.895 623.994 618.68 630.921C611.714 638.287 612.072 646.023 619.753 654.13C627.597 661.584 635.208 661.766 642.587 654.676C649.477 647.386 649.2 639.819 641.758 631.975ZM639.199 651.269C635.321 655.184 630.582 654.369 624.986 648.822C619.389 643.275 618.497 638.494 622.312 634.479C626.078 630.639 630.821 631.537 636.544 637.17C642.267 642.804 643.151 647.504 639.199 651.269Z" fill="#813C96"/>
<path d="M625.506 670.093L605.326 644.438L600.188 648.466L616 668.569L615.981 668.832L590.342 656.221L582.172 662.658L602.352 688.314L607.472 684.267L590.794 663.054L590.813 662.809L617.6 676.305L625.506 670.093Z" fill="#813C96"/>
<path d="M579.243 703.33L573.482 707.094L555.617 679.782L561.378 676.018L568.419 686.784L578.754 680.027L571.713 669.26L577.604 665.383L595.488 692.695L589.728 696.478L581.897 684.507L571.43 691.377L579.243 703.33Z" fill="#813C96"/>
<path d="M556.876 690.799C552.961 684.525 547.144 683.377 539.426 687.354C531.897 691.772 530.597 698.943 535.529 708.868C540.863 718.28 547.464 721.009 555.333 717.056C563.076 712.789 565.399 707.413 562.298 700.925L555.766 704.426C557.548 708.003 556.656 710.813 553.093 712.859C549.553 714.478 545.877 711.969 542.062 705.33C538.616 698.365 538.522 693.867 541.836 691.834C544.53 690.064 548.147 690.814 549.917 693.507C550.079 693.754 550.222 694.013 550.344 694.281L556.876 690.761V690.799Z" fill="#813C96"/>
<path d="M516.232 733.824L503.375 703.821L523.48 695.219L525.644 700.245L512.016 706.08L515.009 713.044L527.658 707.623L529.805 712.649L517.154 718.07L520.562 726.013L534.68 719.971L536.826 724.997L516.232 733.824Z" fill="#813C96"/>
<path d="M476.869 717.638L486.093 714.607L494.583 740.413L501.285 738.211L492.795 712.405L502.019 709.375L500.306 704.18L475.156 712.443L476.869 717.638Z" fill="#813C96"/>
<path d="M458.2 749.185L455.489 735.52L468.479 732.94L467.424 727.594L454.435 730.155L452.929 722.551L466.765 719.802L465.711 714.438L445.117 718.504L451.442 750.521L458.2 749.185Z" fill="#813C96"/>
<path d="M425.329 719.838C415.29 720.992 410.594 727.147 411.247 738.303C412.503 749.045 418.213 754.064 428.378 753.361C438.317 752.208 442.972 746.228 442.346 735.423C440.977 724.369 435.306 719.174 425.329 719.838ZM427.945 748.637C422.448 749.14 419.31 745.469 418.533 737.626C417.755 729.782 420.146 725.547 425.705 724.92C431.089 724.431 434.158 728.177 434.873 736.214C435.588 744.251 433.348 748.148 428.02 748.637H427.945Z" fill="#813C96"/>
<path d="M379.866 754.284L386.737 754.623L387.264 744.044L399.255 722.567L392.215 722.21L384.61 736.854L378.642 721.551L370.359 721.156L380.374 743.724L379.866 754.284Z" fill="#813C96"/>
<path d="M342.82 723.512L352.402 724.999L348.242 751.84L355.227 752.932L359.387 726.09L368.968 727.577L369.797 722.156L343.649 718.109L342.82 723.512Z" fill="#813C96"/>
<path d="M339.338 717.676L332.392 716.359L326.273 748.414L333.201 749.732L339.338 717.676Z" fill="#813C96"/>
<path d="M323.694 724.279C324.861 718.006 322.062 713.865 315.298 711.856C306.727 710.237 301.466 712.641 299.522 719.065C298.481 723.306 301.254 727.071 307.843 730.359C308.183 730.615 308.556 730.824 308.953 730.98C312.719 732.763 314.351 734.745 313.848 736.928C313.095 739.526 310.647 740.373 306.506 739.469C303.024 738.378 301.725 735.987 302.629 732.335L295.776 730.66C293.894 737.587 297.15 742.086 305.377 744.1C314.338 746.057 319.689 743.742 321.434 737.154C322.602 732.849 319.659 729.036 312.606 725.71C312.352 725.554 312.079 725.427 311.796 725.333C307.83 723.752 306.256 721.789 307.071 719.442C307.805 716.957 309.857 716.016 313.227 716.6C315.772 716.844 317.637 719.107 317.392 721.653C317.359 721.996 317.287 722.333 317.18 722.661L323.694 724.26V724.279Z" fill="#813C96"/>
<path d="M288.361 704.685L275.335 699.734L263.758 730.321L270.346 732.825L274.977 720.609L281.905 723.244C283.561 723.884 283.994 725.559 283.204 728.27C282.285 731.091 281.655 733.999 281.321 736.947L288.418 739.658C288.237 736.981 288.61 734.297 289.509 731.771C289.63 731.43 289.707 731.076 289.735 730.717C291.186 726.237 290.225 723.282 286.855 721.889V721.719C290.726 722.608 294.641 720.43 295.929 716.675C297.787 711.429 295.264 707.433 288.361 704.685ZM288.606 714.962C287.533 717.823 285.444 718.727 282.375 717.503L276.916 715.433L279.984 707.358L285.444 709.428C288.549 710.482 289.622 712.327 288.606 714.962Z" fill="#813C96"/>
<path d="M236.539 718.374L256.7 728.124L259.091 723.193L245.274 716.529L249.038 708.737L261.426 714.722L263.797 709.81L251.411 703.805L254.705 696.991L268.051 703.447L270.442 698.516L250.751 688.992L236.539 718.374Z" fill="#813C96"/>
<path d="M214.078 706.213L220.498 672.031L227.011 675.928L221.1 702.374L221.251 702.468L241.713 684.68L247.624 688.2L220.592 710.091L214.078 706.213Z" fill="#813C96"/>
<path d="M217.2 670.298L211.346 666.383L193.18 693.507L199.053 697.422L217.2 670.298Z" fill="#813C96"/>
<path d="M186.521 688.955L178.577 682.8L185.184 653.549L184.94 653.587L168.392 674.913L163.234 670.904L183.245 645.117L191.471 651.498L185.448 679.412L185.693 679.374L201.373 659.177L206.531 663.168L186.521 688.955Z" fill="#813C96"/>
<path d="M173.889 636.21L161.785 649.386C159.225 652.304 157.098 653.923 155.347 654.243C153.144 654.681 150.878 653.896 149.417 652.191C147.643 650.817 146.669 648.65 146.82 646.412C147.008 644.662 148.457 642.403 151.186 639.636L163.29 626.554L158.114 621.773L144.202 636.832C138.882 642.955 139.509 649.23 146.085 655.654C152.899 661.64 159.174 661.777 164.909 656.068L178.821 641.01L173.889 636.21Z" fill="#813C96"/>
<path d="M118.525 569.766L84.6406 577.144L88.2174 582.791L95.3519 581.21L102.223 592.109L97.705 597.868L101.47 603.835L122.987 576.749L118.525 569.766ZM105.875 587.742L100.886 579.742L115.212 576.354L115.306 576.505L105.875 587.742Z" fill="#813C96"/>
<path d="M108.301 552.656L97.7969 558.077L100.621 563.554L111.125 558.152L108.301 552.656Z" fill="#813C96"/>
<path d="M104.594 546.01L75.5661 560.917L72.3281 554.649L101.355 539.742L104.594 546.01Z" fill="#813C96"/>
<path d="M75.0215 530.089L66.3245 541.457L69.5811 549.457L80.9324 532.441L99.5501 536.469L96.7452 529.618L83.775 527.284L91.5495 516.875L88.274 508.875L77.8076 524.762L57.7969 520.545L60.6583 527.585L75.0215 530.089Z" fill="#813C96"/>
<path d="M119.914 629.396L114.153 621.151L129.175 595.195L128.93 595.138L106.792 610.592L103.047 605.227L129.816 586.555L135.782 595.1L121.721 619.965L121.965 620.003L142.936 605.359L146.682 610.723L119.914 629.396Z" fill="#813C96"/>
<path d="M394.232 94.2268C559.536 94.2165 693.55 228.202 693.562 393.491C693.571 558.779 559.574 692.782 394.269 692.792C228.964 692.801 94.9479 558.817 94.9375 393.528C94.9324 314.147 126.468 238.016 182.604 181.885C238.677 125.682 314.836 94.1363 394.232 94.2268ZM602.432 185.329C487.453 70.3647 301.037 70.3674 186.062 185.335C71.0863 300.303 71.0889 486.699 186.068 601.663C301.047 716.627 487.462 716.625 602.437 601.657C657.647 546.452 688.664 471.581 688.668 393.509C688.754 315.41 657.722 240.495 602.432 185.329Z" fill="#813C96"/>
<path d="M407.737 108.092C565.371 115.553 687.108 249.375 679.647 406.992C672.186 564.61 538.351 686.337 380.717 678.876C223.084 671.415 101.346 537.592 108.807 379.975C116.268 222.357 250.104 100.632 407.737 108.092Z" fill="#813C96"/>
<path fill-rule="evenodd" clip-rule="evenodd" d="M572.253 117.322C574.908 121.388 581.063 131.778 581.213 136.145C581.213 138.216 577.769 140.155 577.053 140.682C566.832 137.613 568.695 126.583 569.128 119.129C569.776 118.006 570.956 117.294 572.253 117.247V117.322ZM590.212 73.2585L591.153 74.0491C591.471 76.3938 591.584 78.7619 591.492 81.1264C590.778 83.1356 589.897 85.0813 588.856 86.9427L586.296 90.0108C583.793 95.6576 579.783 99.7045 575.002 104.052C575.002 104.052 575.002 104.203 575.002 104.278C578.07 106.876 585.562 107.459 588.593 107.158L589.779 105.746C589.779 104.203 589.063 103.036 589.045 101.549C589.417 101.034 589.909 100.615 590.475 100.325L590.588 100.42C592.282 102.302 592.47 105.332 594.354 107.29C595.634 108.645 597.761 109.53 598.457 111.506C597.715 113.448 595.735 114.625 593.676 114.348C590.174 113.84 587.501 111.374 583.962 111.092C578.879 110.697 573.647 110.433 568.658 109.775C566.657 112.347 564.357 114.673 561.805 116.701C560.393 117.417 558.191 117.417 556.892 118.038C555.593 118.659 554.539 120.108 553.127 120.466C552.75 120.466 548.327 120.673 548.007 120.616L546.84 119.619C545.391 119.261 543.338 119.92 541.888 119.318C536.788 117.191 535.997 109.906 536.129 106.744C539.197 105.972 540.082 108.156 542.623 108.626C545.135 108.84 547.655 108.378 549.927 107.29C551.019 106.688 553.146 107.026 552.882 104.937C552.411 104.937 551.696 105.163 551.376 105.069L549.701 103.695C548.628 103.318 547.216 104.259 546.238 104.015C545.127 103.649 544.062 103.163 543.055 102.565L536.129 97.427C534.905 96.8058 533.455 96.7305 532.363 95.2624C531.271 93.7942 531.403 91.9119 530.82 90.3873C530.142 88.505 527.902 87.3944 529.502 85.7004C531.064 86.5662 533.757 88.2226 535.282 89.0885L537.258 91.5354L539.931 91.9495L543.169 95.0365C547.292 97.3248 551.762 98.9208 556.403 99.761C558.586 100.175 561.466 101.888 563.538 101.285L570.276 96.2788C573.463 94.0408 576.272 91.3084 578.597 88.185C579.952 86.4909 582.117 85.3804 583.303 83.4981C585.318 80.2982 586.391 76.1949 588.555 73.0703L590.212 73.2585Z" fill="#813C96"/>
<path fill-rule="evenodd" clip-rule="evenodd" d="M474.63 43.7081L478.037 44.7622C479.411 47.6421 482.63 55.7735 477.133 57.0347C475.496 57.2982 474.009 55.83 472.145 56.4323C468.474 57.637 467.363 60.0651 464.615 62.3615C463.203 63.5097 460.625 63.4532 458.873 64.0744C457.913 64.4132 457.198 65.5049 456.332 65.9567L453.697 66.4461C452.099 67.2577 450.437 67.9376 448.726 68.4789C446.468 68.9683 444.454 68.4789 442.571 69.4954L442.778 69.853C442.778 70.0036 442.873 70.173 442.929 70.3424C446.272 70.8182 449.677 70.6198 452.944 69.7589L454.412 68.6672C456.727 68.1966 459.739 69.5895 461.792 69.1565C462.3 69.0436 463.486 68.3848 464.069 68.2907L468.474 69.4577C470.357 69.4577 473.971 68.8177 474.554 71.5094C474.406 72.8247 473.726 74.0219 472.672 74.8222C471.573 74.7832 470.477 74.9427 469.434 75.2928C469.434 75.2928 463.674 74.9728 462.751 74.9916L456.407 76.7045C455.24 76.7045 453.584 76.0269 451.607 76.008C448.708 76.0107 445.811 76.1741 442.929 76.4974L438.731 76.2716C435.738 76.648 432.707 78.5679 430.052 79.5655C427.046 80.0386 423.982 79.9748 420.999 79.3773L419.341 78.3421C415.219 77.1374 404.414 75.2928 403.265 71.2835C402.851 70.7188 403.002 70.3989 403.265 69.6648C405.468 69.9659 408.912 72.0552 411.793 71.9235C414.673 71.7917 424.387 72.507 426.627 71.4529C427.605 70.9824 429.469 69.326 430.392 68.6483L433.648 67.4437C436.773 65.5614 439.747 63.4156 442.873 61.5145C446.637 59.2369 453.584 58.2017 456.464 54.0795C452.699 52.5737 443.87 47.1339 447.974 42.2776C449.63 40.3953 451.739 41.7506 454.77 42.1647C458.241 42.5308 461.728 42.7192 465.217 42.7293C466.416 42.9018 467.557 43.3531 468.549 44.0469C470.583 44.2197 472.629 44.1057 474.63 43.7081Z" fill="#813C96"/>
<path fill-rule="evenodd" clip-rule="evenodd" d="M342.331 66.1215C341.392 66.6224 340.53 67.2563 339.771 68.0038C339.632 70.1266 339.848 72.2577 340.411 74.3094L340.656 74.4411L341.051 74.1776C341.051 73.7259 343.235 66.6485 343.235 66.6485C343.046 66.3091 342.713 66.0739 342.331 66.0085V66.1215ZM312.852 62.2628C312.193 62.9028 312.099 62.451 310.969 62.771C309.729 63.3496 308.697 64.296 308.014 65.4815C305.962 68.4179 305.097 73.6506 302.479 75.7776C302.479 76.0223 302.479 76.2858 302.611 76.5493H303.119C305.953 73.4313 308.616 70.164 311.101 66.7615L311.609 64.4462C312.087 63.6017 312.727 62.8599 313.492 62.2628H312.852ZM307.544 53.7737C305.665 54.9119 304.426 56.861 304.193 59.0441L304.438 59.4394L304.965 59.5711C305.949 59.5241 306.894 59.161 307.656 58.5359C307.431 57.4442 308.334 55.5431 307.92 54.2819L307.544 53.7737ZM312.55 51.0632L312.306 51.195V53.9055H312.946C313.399 53.0701 313.663 52.1444 313.717 51.195L312.55 51.0632ZM351.216 23.4126C357.542 23.5631 360.158 25.9725 357.787 31.3746C358.502 39.1484 348.017 46.4328 343.103 51.0632C342.162 50.8185 341.352 50.4421 340.411 50.2915C340.223 50.5362 340.411 50.2915 340.148 50.555C340.298 52.4373 340.148 55.0913 340.148 56.8607C340.148 58.63 340.863 60.0417 340.788 61.9993C342.915 61.7922 346.097 61.1146 347.621 62.131C349.842 66.6485 348.374 71.2601 346.323 76.4175C345.664 78.1116 343.442 80.1821 343.876 81.8197L348.769 81.5562C350.332 82.1397 353.343 87.5606 352.12 88.6335C350.049 88.7653 341.578 90.9864 339.639 90.177C338.454 89.6876 337.249 87.9936 336.157 86.9771C335.916 86.0486 335.79 85.0941 335.781 84.1349C336.609 82.6855 337.418 81.2174 338.228 79.768C337.783 78.0139 337.223 76.2911 336.552 74.6106C336.27 73.8953 336.552 73.0106 336.176 72.2954L334.764 73.5941L334.501 74.1023L333.22 73.8388C332.928 73.4202 332.747 72.9346 332.693 72.4271C332.919 72.1636 335.894 67.8532 335.913 67.7967C336.27 64.5404 336.609 61.284 336.948 58.0089L337.851 49.5198C337.418 47.8445 335.48 46.6964 335.273 44.1176C336.534 42.2353 336.251 40.8801 338.623 39.8825L341.07 40.8989C341.356 42.2608 341.569 43.6367 341.71 45.0211H342.237C345.363 42.2353 355.038 32.2216 353.532 26.7442C346.003 26.6313 342.783 32.2028 338.209 35.4968C337.456 36.0427 336.703 36.7203 336.025 37.172L334.745 37.4355C328.665 42.3295 323.959 49.3315 320.062 56.0889C319.489 57.459 319.06 58.8845 318.782 60.3429C317.571 63.5936 315.924 66.6647 313.887 69.4719C313.172 70.3943 312.908 72.5401 312.212 73.5941C308.955 78.4692 307.073 84.8878 301.519 87.4853C299.185 85.9795 296.644 84.6619 296.362 81.5562C296.117 80.295 298.846 77.1893 299.581 76.0223C302.082 72.1196 304.201 67.9844 305.906 63.6745L305.247 63.2981C303.27 63.1232 301.35 62.5536 299.599 61.6228C299.616 60.1225 299.923 58.6396 300.503 57.2559C300.503 56.7665 300.333 56.296 300.258 55.8254C300.616 54.7713 302.969 53.2655 303.722 52.362C304.494 50.9315 305.266 49.5198 306.057 48.1081L308.108 47.7316C308.27 45.6797 308.791 43.6725 309.652 41.8024C310.612 41.8024 311.346 41.9718 311.703 42.5742C312.701 43.7976 311.967 47.0916 313.002 47.7316L315.45 48.1081C318.198 49.1245 317.238 51.8726 316.598 54.0372C315.224 54.3531 314.052 55.2443 313.379 56.4842C313.379 59.0629 313.849 59.1759 313.774 61.3593H314.283C314.829 57.3877 318.631 53.8302 320.476 50.4233C321.04 49.3504 320.476 48.3339 321.116 47.3363C322.543 45.522 324.091 43.8052 325.747 42.1977L326.255 40.5225L328.966 38.2073C329.531 37.3414 329.568 36.325 330.509 35.4968L332.693 34.4804C333.861 33.671 334.313 31.9205 335.404 31.1299L337.08 30.6029C338.578 29.4074 339.999 28.1186 341.333 26.7442C342.856 25.8695 344.442 25.1083 346.078 24.4666C347.057 24.109 350.708 24.0337 351.216 23.4502V23.4126ZM316.071 20.5703L311.948 23.149L309.896 25.4642C308.598 26.3866 307.167 26.6689 305.774 27.5159C304.965 28.0053 304.664 29.3982 303.891 29.8311L301.576 30.8664L300.013 33.1816C297.058 36.229 293.624 38.7723 289.848 40.7107C289.453 41.3507 289.528 41.7836 289.585 42.8941C289.743 43.1564 289.963 43.376 290.225 43.5341C290.695 44.0423 291.505 43.5341 292.295 43.7976C296.926 45.1529 297.943 41.9154 301.952 42.2542C303.383 42.3671 305.247 38.7908 306.188 37.7367C308.244 35.798 310.181 33.7363 311.986 31.5628C313.529 29.3982 314.227 25.916 315.751 24.3537C316.542 23.582 317.464 23.1302 318.198 22.302V21.9256C317.777 21.1316 316.969 20.6172 316.071 20.5703Z" fill="#813C96"/>
<path fill-rule="evenodd" clip-rule="evenodd" d="M216.842 115.403C214.633 118.251 213.264 121.661 212.89 125.247C213.682 127.483 215.252 129.36 217.313 130.536C217.821 130.743 225.916 131.063 226.725 130.988L229.568 129.444C229.605 127.393 229.942 125.357 230.565 123.402C230.433 123.158 230.32 122.894 230.189 122.631C227.465 122.351 224.867 121.35 222.66 119.732C220.927 118.508 220.174 115.61 217.896 115.177L216.899 115.403H216.842ZM226.744 102.735C228.871 102.057 228.137 106.029 228.231 107.121C228.513 110.885 231.036 115.214 228.871 118.979C228.525 119.204 228.096 119.26 227.704 119.129C225.709 118.998 224.391 113.652 223.055 111.751L220.946 109.379C221.379 106.876 225.125 104.843 226.782 102.735H226.744ZM220.513 68.4776L216.409 73.2963L215.675 75.4609C213.26 79.7786 211.671 84.5086 210.987 89.4086C210.724 90.6132 208.917 95.4695 210.46 96.4483C212.344 97.2765 216.428 91.5167 217.463 90.4815C222.262 86.076 225.078 79.9202 225.276 73.4092C225.276 71.9975 225.991 68.647 224.73 67.3106L223.845 66.9153L220.513 68.5717V68.4776ZM188.887 79.7713C189.49 83.5359 195.175 93.192 198.45 93.7002L198.563 93.0978C195.42 89.3333 193.161 83.9123 189.509 79.6019L188.887 79.7713ZM186.422 72.8445C186.978 72.6045 187.615 72.6465 188.135 72.9574C189.057 74.5197 191.899 76.1197 193.557 77.7384C194.686 79.2269 195.699 80.8002 196.587 82.4441C197.991 84.1747 199.569 85.7577 201.293 87.1687C202.517 88.2604 203.345 90.4626 204.607 91.3285L205.152 91.065C206.654 85.296 209.207 79.8532 212.682 75.0091C214.075 73.1268 214.904 69.8517 217.181 68.76L218.687 66.4824C220.757 64.1296 225.163 64.3178 226.518 64.6001C230.283 71.6963 227.591 81.3148 224.636 87.1875C222.998 90.3685 222.208 94.246 220.136 97.3141C218.875 99.1964 214.885 100.589 214.075 101.831V101.944C215.03 103.431 216.202 104.764 217.558 105.897C219.967 104.561 224.09 99.4599 224.052 97.54C224.73 97.2296 225.475 97.0999 226.217 97.1636C230.64 93.0602 239.112 86.6228 245.305 87.9404C248.882 88.7121 250.557 92.759 251.442 96.373C251.442 98.1047 251.442 99.8176 251.442 101.53C251.76 104.797 251.677 108.09 251.197 111.337C251.197 111.45 251.046 112.203 251.366 112.221C250.369 114.693 249.601 117.251 249.07 119.864C248.411 122.762 248.166 126.169 246.717 128.786L245.832 128.955L245.117 128.334C244.515 126.094 246.717 117.925 247.319 115.497C247.752 113.614 247.018 111.732 247.432 109.85C248.018 106.344 247.974 102.762 247.301 99.2717C247.112 97.5024 247.696 93.8131 245.983 92.1755C243.818 90.0862 239.545 91.8932 236.891 93.3802L234.18 95.1495C232.893 96.7568 231.523 98.2961 230.076 99.7611V100.024C231.693 101.73 233 103.704 233.935 105.859C236.525 113.737 236.426 122.251 233.653 130.066C232.768 132.964 232.9 135.261 230.245 137.425C228.758 138.668 226.876 137.877 225.652 137.915L222.603 138.743C219.408 138.82 216.216 138.555 213.078 137.952C211.703 135.242 209.745 134.188 209.162 131.722C208.089 127.299 209.369 123.478 210.122 119.487C210.649 116.739 213.887 114.424 214.075 111.582C213.68 110.904 207.581 104.523 207.336 104.41C207.091 104.297 207.053 104.41 206.564 104.523L204.117 107.949C202.589 108.239 201.007 107.936 199.693 107.102C198.13 104.354 199.693 102.302 201.312 100.363L201.029 99.5164C198.185 98.0983 195.676 96.0899 193.669 93.6249C190.713 89.8791 185.179 77.1738 185.575 73.4092L186.422 72.8445Z" fill="#813C96"/>
<path fill-rule="evenodd" clip-rule="evenodd" d="M671.332 137.407C671.464 137.934 671.614 138.48 671.746 139.026C671.313 139.591 670.221 139.854 669.713 140.419C669.111 141.868 668.509 143.318 667.831 144.767C668.561 146.427 670.114 147.579 671.916 147.798C672.349 148.513 672.613 148.908 672.331 149.435L671.125 150.075C670.052 150.414 668.207 150.207 666.608 150.489L662.296 152.786H661.807H661.637H661.506L658.852 150.903C656.969 145.652 662.316 138.819 667.963 138.066C669.431 137.859 669.845 136.88 671.276 137.37L671.332 137.407ZM694.148 168.277C694.19 169.026 693.783 169.729 693.113 170.065C690.759 169.613 689.065 167.43 686.844 166.658C684.555 166.274 682.238 166.066 679.916 166.037C679.408 164.625 678.919 163.195 678.41 161.783C679.728 160.089 680.048 154.423 683.832 153.821H684.435C685.639 155.948 684.152 157.397 684.886 159.562C687.936 162.442 690.684 166.677 694.148 168.296V168.277ZM712.973 185.726C713.688 188.888 708.455 194.365 704.445 195.344L700.172 194.535C694.224 192.257 685.395 188.549 680.33 184.088C678.617 182.582 678.241 181.377 676.716 179.89C675.192 178.403 669.073 173.754 668.829 173.19L666.683 172.023C664.481 170.423 661.167 169.124 659.379 170.404C659.369 170.542 659.369 170.68 659.379 170.818L661.449 173.434C662.579 174.3 666.589 175.034 666.833 177.481C667.078 179.928 665.892 182.3 665.328 184.427C662.33 185.338 659.173 185.607 656.066 185.217L655.652 185.594C656.664 187.21 657.758 188.775 658.927 190.281C660.282 191.899 660.508 194.873 662.561 197.094C664.048 198.77 665.192 200.72 665.93 202.835C665.121 203.532 665.233 204.266 664.838 205.094C658.306 207.767 656.95 200.313 652.866 196.737C651.114 195.212 649.232 193.838 647.538 192.521L647.067 192.784C646.635 194.666 644.865 195.607 643.548 197.113C637.26 204.247 635.867 204.435 627.49 201.537C624.535 196.04 627.829 194.986 628.054 191.09C628.015 189.955 628.194 188.826 628.581 187.758H628.996C630.483 190.356 631.687 193.405 633.853 194.535C637.73 194.045 638.69 190.77 640.215 188.361C640.798 187.42 641.74 187.024 642.098 185.838C639.18 180.38 629.899 179.213 633.138 170.197C633.533 169.105 633.307 166.997 634.738 166.583C636.45 166.583 636.883 168.465 638.314 169.274C641.173 171.005 643.847 173.024 646.296 175.298C647.482 176.408 647.914 177.613 649.044 178.441C652.264 177.688 655.953 179.947 658.776 177.707L659.002 177.274C658.852 177.048 658.682 176.841 658.513 176.615C657.76 176.088 657.703 176.615 656.875 176.427C653.79 175.419 651.391 172.966 650.456 169.858C651.246 168.917 652.339 166.564 654.654 165.943C659.36 164.644 666.4 167.825 670.334 170.008C675.436 172.775 681.422 174.451 686.392 177.406C691.362 180.361 701.452 186.46 706.93 186.817C708.68 186.949 710.695 185.669 712.295 185.349L712.973 185.726Z" fill="#813C96"/>
<path fill-rule="evenodd" clip-rule="evenodd" d="M105.269 203.603C110.425 201.774 116.151 202.591 120.592 205.787C120.875 206.878 121.176 207.97 121.458 209.062C121.176 210.662 116.827 212.713 115.17 213.015L112.441 212.318C107.772 211.942 103.857 208.968 105.269 203.603ZM130.023 162.475C128.856 164.885 124.376 169.252 124.997 171.887H125.919C128.517 169.647 129.684 166.466 131.567 163.736C132.358 162.588 133.751 161.704 134.39 160.612L134.127 160.442C132.659 160.988 131.435 162.137 129.985 162.569L130.023 162.475ZM152.613 148.151L149.28 150.937C146.928 153.404 145.057 156.29 143.765 159.445C143.508 160.638 143.394 161.858 143.426 163.078C143.05 164.019 142.692 164.96 142.316 165.882C142.034 167.765 142.937 169.477 142.598 171.209C141.77 172.922 140.942 174.654 140.113 176.348C139.868 181.302 138.937 186.199 137.346 190.898L137.534 191.255C140.433 191.425 144.48 185.025 145.911 182.86C148.358 179.096 148.829 174.503 150.372 170.532C151.582 167.801 152.472 164.939 153.027 162.005C152.981 160.973 153.032 159.94 153.178 158.918C153.573 157.845 154.307 157.036 154.345 155.925C154.232 155.737 154.138 155.53 154.006 155.323C154.476 153.12 155.643 149.676 154.721 147.267L152.556 148.151H152.613ZM150.524 142.09C153.376 140.859 156.42 140.133 159.521 139.944C162.308 143.521 162.327 150.523 161.668 154.589C161.781 155.756 161.912 156.941 162.044 158.127L161.31 159.633C161.451 161.513 161.451 163.4 161.31 165.28C160.708 167.821 158.787 170.004 157.733 172.433C156.679 174.861 156.434 178.079 155.041 179.962C150.524 186.55 146.871 192.799 142.655 199.5C140.659 199.5 136.743 200.554 135.125 199.632C127.312 195.867 130.267 181.9 130.795 176.8L130.286 176.461L127.256 177.496C126.126 178.663 122.738 183.952 123.096 185.289L124.395 187.171L123.962 188.357L125.43 191.293C124.395 192.611 124.169 193.665 122.211 194.813L118.446 193.138C116.902 194.079 116.093 197.241 113.853 196.451C112.968 193.872 113.966 191.782 114.248 189.505C113.439 188.281 112.874 188.752 112.102 188.187L111.895 187.811C111.312 186.474 110.728 185.119 110.125 183.783C109.391 182.992 108.393 182.936 107.734 181.9C107.603 181.599 107.49 181.298 107.377 180.997C107.377 179.886 107.847 175.99 110.144 176.649C111.312 176.969 111.387 179.058 112.234 179.566L112.855 179.849C116.62 178.249 116.337 175.821 118.239 173.411L120.121 172.056C121.797 169.816 123.755 165.995 125.411 163.473L127.067 161.929C127.824 159.695 128.937 157.598 130.361 155.718C132.998 152.989 137.308 152.763 139.379 152.462C141.77 152.104 150.297 143.37 150.561 142.034L150.524 142.09ZM135.877 134.053L137.76 133.375C139.485 134.105 141.252 134.733 143.05 135.258C143.05 135.446 143.05 135.634 142.899 135.822C142.768 136.895 136.216 144.387 134.955 145.855C128.856 152.8 121.326 169.402 108.939 169.402C107.678 168.111 106.607 166.647 105.758 165.054C113.646 158.24 120.215 148.697 127.256 140.49C129.496 137.893 133.845 136.707 135.783 134.053H135.877Z" fill="#813C96"/>
<path fill-rule="evenodd" clip-rule="evenodd" d="M432.517 168.03C432.047 167.785 452.659 184.651 454.617 184.971C456.454 185.657 458.493 185.568 460.264 184.726L470.335 178.307L463.408 189.337C463.408 189.337 461.224 192.857 466.815 198.448L480.369 215.859L459.266 198.918C459.266 198.918 456.8 196.867 451.831 199.69L442.701 205.582C442.701 205.582 449.327 195.643 449.816 193.46C450.323 191.22 449.664 188.876 448.066 187.229L432.461 167.992L432.517 168.03ZM468.058 191.389C472.407 191.295 482.497 191.559 490.214 197.036C499.513 203.549 501.132 215.351 500.153 225.891C497.123 258.436 473.95 294.18 453.394 318.951C427.66 349.952 394.472 381.236 358.159 399.362C343.313 406.978 327.362 412.218 310.89 414.891C304.14 416.017 297.214 415.401 290.766 413.103C273.241 406.571 268.008 388.238 269.89 371.373C271.885 353.585 280.225 336.362 290.352 320.815C294.683 314.151 299.351 307.789 304.001 301.823C308.65 295.856 314.467 287.611 321.413 281.682C329.941 274.398 339.861 271.574 344.192 280.948C347.486 288.082 346.657 298.19 346.074 305.738C345.264 314.886 343.608 324.052 342.083 332.202C341.311 336.231 340.407 340.88 339.372 345.811C335.607 363.749 330.43 385.735 327.437 398.515C341.894 350.875 358.517 301.521 385.512 259.227C392.381 248.279 400.232 237.977 408.967 228.451C408.967 228.451 424.987 211.661 437.411 202.777C439.293 201.478 444 199.539 445.6 196.942C445.948 196.428 446.108 195.809 446.052 195.191C446.052 194.476 445.525 194.175 444.169 194.401C442.846 194.704 441.544 195.093 440.272 195.568C435.312 197.266 430.447 199.233 425.702 201.459C419.697 204.226 411.997 208.01 403.414 212.753C386.142 222.639 369.804 234.074 354.602 246.916C339.178 259.671 324.578 273.389 310.89 287.988C296.866 303.046 278.888 324.749 269.815 341.275C269.815 341.275 239.394 386.111 240.26 423.455C240.655 440.396 246.849 453.798 264.582 459.388C271.452 461.553 280.733 462.419 292.311 460.856C329.094 455.868 369.604 431.624 397.258 409.922C400.383 407.413 403.551 404.826 406.764 402.167C422.995 388.473 438.273 373.688 452.49 357.914C463.034 346.096 472.764 333.575 481.611 320.438C481.611 320.438 515.496 276.431 517.096 229.242C517.096 229.242 519.712 198.918 490.364 190.26C490.364 190.26 476.529 186.853 468.377 189.112C466.081 189.77 464.481 191.464 468.058 191.389Z" fill="white"/>
<path d="M327.099 527.789L317.687 544.221H296.133L316.652 513.86L298.128 486.078H319.607L327.815 500.929L336.342 486.078H357.84L337.848 513.86L357.746 544.184H336.248L327.099 527.751V527.789ZM369.436 518.942V486.078H388.487V520.844C388.072 528.203 391.122 531.798 397.654 531.573C403.547 531.798 406.502 528.203 406.502 520.844V486.078H425.459V518.942C425.886 536.636 416.616 545.375 397.654 545.163C378.491 545.601 369.116 536.862 369.53 518.942H369.436ZM438.955 501.249V486.078H492.342V501.249H475.287V544.221H456.011V501.249H438.955Z" fill="white" stroke="white" stroke-width="0.414101" stroke-miterlimit="22.93"/>
<path d="M344.683 616.43H339.543V583.998C338.077 585.346 336.46 586.521 334.725 587.5C333.016 588.532 331.22 589.412 329.359 590.135V585.221C332.089 583.964 334.625 582.323 336.889 580.346C338.73 578.803 340.262 576.924 341.408 574.812H344.683V616.43ZM361.625 606.849L366.519 606.398C366.734 608.284 367.568 610.043 368.891 611.404C370.145 612.462 371.751 613.014 373.391 612.948C374.838 612.979 376.265 612.607 377.513 611.875C378.686 611.156 379.677 610.177 380.412 609.013C381.284 607.5 381.92 605.864 382.295 604.158C382.792 602.118 383.044 600.026 383.048 597.927C383.048 597.72 383.048 597.363 383.048 596.93C381.994 598.56 380.558 599.91 378.868 600.864C377.151 601.852 375.203 602.372 373.221 602.37C369.911 602.417 366.74 601.046 364.505 598.604C362.058 595.926 360.778 592.384 360.948 588.76C360.786 585.009 362.143 581.352 364.712 578.615C367.15 576.106 370.532 574.74 374.031 574.851C376.656 574.827 379.229 575.58 381.429 577.016C383.716 578.525 385.495 580.69 386.53 583.227C387.853 586.969 388.441 590.93 388.262 594.896C388.41 599.179 387.833 603.458 386.549 607.546C385.591 610.396 383.801 612.894 381.41 614.718C379.075 616.372 376.271 617.23 373.41 617.164C367.381 617.568 362.169 613.012 361.763 606.987C361.761 606.953 361.759 606.921 361.757 606.888L361.625 606.849ZM382.464 588.554C382.6 586.024 381.773 583.535 380.148 581.589C378.74 579.936 376.672 578.993 374.501 579.01C372.224 579.025 370.067 580.046 368.609 581.797C366.873 583.771 365.97 586.342 366.086 588.968C365.979 591.349 366.841 593.672 368.477 595.406C370.002 597.026 372.145 597.921 374.369 597.87C376.57 597.936 378.687 597.036 380.167 595.406C381.781 593.501 382.596 591.046 382.445 588.554H382.464ZM412.584 616.43V606.51H394.7V601.843L413.525 574.982H417.685V601.843H423.333V606.51H417.685V616.43H412.584ZM412.584 601.843V583.151L399.782 601.843H412.584ZM432.463 606.849L437.357 606.398C437.571 608.284 438.405 610.043 439.728 611.404C440.981 612.466 442.588 613.018 444.228 612.948C445.675 612.979 447.102 612.607 448.35 611.875C449.523 611.156 450.515 610.177 451.25 609.013C452.121 607.5 452.757 605.864 453.132 604.158C453.629 602.118 453.881 600.026 453.885 597.927C453.885 597.72 453.885 597.363 453.885 596.93C452.831 598.56 451.397 599.91 449.705 600.864C447.989 601.852 446.04 602.372 444.058 602.37C440.748 602.419 437.575 601.048 435.342 598.604C432.896 595.926 431.616 592.384 431.785 588.76C431.623 585.009 432.98 581.352 435.55 578.615C438.012 576.083 441.433 574.716 444.962 574.851C447.582 574.823 450.151 575.576 452.341 577.016C454.628 578.525 456.407 580.69 457.442 583.227C458.766 586.969 459.353 590.93 459.174 594.896C459.323 599.179 458.745 603.458 457.461 607.546C456.503 610.396 454.713 612.894 452.323 614.718C449.988 616.372 447.183 617.23 444.322 617.164C438.294 617.568 433.082 613.012 432.675 606.987C432.673 606.953 432.672 606.921 432.67 606.888L432.463 606.849ZM453.301 588.554C453.437 586.024 452.611 583.535 450.986 581.589C449.577 579.936 447.509 578.993 445.338 579.01C443.061 579.025 440.904 580.046 439.446 581.797C437.71 583.771 436.807 586.342 436.924 588.968C436.816 591.349 437.678 593.672 439.314 595.406C440.84 597.026 442.982 597.921 445.207 597.87C447.407 597.936 449.525 597.036 451.005 595.406C452.66 593.518 453.516 591.061 453.396 588.554H453.301Z" fill="white" stroke="white" stroke-width="0.414101" stroke-miterlimit="22.93"/>
<path fill-rule="evenodd" clip-rule="evenodd" d="M55.8404 350.273L63.0314 373.632L87.6917 373.407L67.6999 387.467L75.531 410.845L55.9909 396.182L36.1685 410.845L44.0749 387.731L24.0078 373.407L48.4423 373.802L55.8404 350.273Z" fill="#813C96"/>
<path fill-rule="evenodd" clip-rule="evenodd" d="M734.414 350.273L741.605 373.632L766.247 373.407L746.274 387.467L754.086 410.845L734.546 396.182L714.742 410.845L722.648 387.731L702.562 373.407L726.997 373.802L734.414 350.273Z" fill="#813C96"/>
</svg>
