<svg width="88" height="88" viewBox="0 0 88 88" fill="none" xmlns="http://www.w3.org/2000/svg">
<path d="M12.2782 42.6741C12.2386 42.9619 12.2181 43.1652 12.214 43.2879C12.2099 43.4025 12.2168 43.6044 12.2359 43.8909C11.989 43.9973 11.738 44.1119 11.4747 44.2387C11.2128 44.3656 10.9004 44.5143 10.5362 44.6916C10.7463 44.8348 11.0041 45.004 11.3056 45.2018C11.6084 45.3996 11.8976 45.5878 12.1704 45.7624C12.1363 45.9275 12.1172 46.0393 12.1158 46.0993C12.1104 46.2316 12.1213 46.3449 12.1458 46.439L12.1022 46.4376L11.2264 45.7638C11.1037 45.671 10.9809 45.5783 10.8595 45.4855C10.7354 45.3941 10.614 45.3 10.4912 45.2072C10.3684 45.1131 10.2457 45.0217 10.1243 44.9289L9.96057 45.019C9.75323 45.124 9.54179 45.2318 9.32627 45.3423C9.11074 45.4528 8.9034 45.5592 8.70697 45.6601C8.50918 45.7597 8.30184 45.862 8.08222 45.9684C7.86533 46.0734 7.65117 46.173 7.4411 46.2644C7.44655 46.1975 7.4561 46.0993 7.46838 45.9711C7.48202 45.8429 7.49157 45.7433 7.4943 45.6765C7.49566 45.6083 7.4943 45.5073 7.48884 45.375C7.48611 45.2427 7.48338 45.1431 7.48202 45.0817C7.67981 44.9958 7.93081 44.8771 8.23636 44.7312C8.54055 44.5825 8.87748 44.4201 9.24851 44.2428L8.28683 43.5758L7.77803 43.2716C7.7371 43.2484 7.69755 43.2225 7.65662 43.1925C7.6157 43.1638 7.58023 43.1406 7.55022 43.1256C7.57751 42.936 7.59251 42.8351 7.59387 42.8201C7.59797 42.6932 7.59115 42.5786 7.57341 42.4709C7.75757 42.6018 8.06994 42.8283 8.50781 43.1474C8.94569 43.468 9.33991 43.749 9.69048 43.9945L12.2782 42.6741ZM11.4965 49.0185C11.3492 49.0253 11.135 49.0308 10.854 49.0389C10.573 49.0458 10.3398 49.0553 10.1556 49.0676C9.95647 49.0812 9.71094 49.1058 9.4163 49.1399C9.12029 49.1726 8.89249 49.1958 8.73289 49.2108C8.61831 49.2231 8.44916 49.2436 8.22545 49.2708C8.00037 49.3008 7.83259 49.3213 7.72483 49.3336C7.72346 49.2749 7.7221 49.1849 7.7221 49.0608C7.7221 48.9394 7.7221 48.848 7.71801 48.792C7.70437 48.5861 7.67845 48.3842 7.64298 48.185C8.38368 48.1973 9.22669 48.1687 10.1734 48.1032L10.5403 48.0773C10.6876 48.0677 10.8486 48.0541 11.0205 48.0377C11.191 48.0213 11.3247 48.0104 11.416 48.0036C11.8185 47.9613 12.1254 47.9218 12.3423 47.8876C12.3327 48.1591 12.3327 48.346 12.3395 48.4483C12.3464 48.552 12.3736 48.7375 12.4214 49.0048C12.0108 49.0048 11.7025 49.0103 11.4965 49.0185ZM12.2727 51.3183C12.2481 51.2679 12.2345 51.2242 12.2277 51.1887C12.2072 51.0701 12.2318 50.9487 12.3027 50.8204C12.3736 50.7059 12.4869 50.6363 12.6424 50.6076C12.8783 50.5667 13.0516 50.6295 13.1594 50.8C13.2085 50.8777 13.2426 50.9705 13.2603 51.0714C13.2985 51.2842 13.2426 51.4547 13.0925 51.5843C12.9875 51.6594 12.8674 51.7098 12.7338 51.733C12.3818 51.7958 12.0558 51.7371 11.7557 51.5611C11.5252 51.4179 11.3615 51.2201 11.2674 50.9691L11.547 50.92C11.5975 51.0428 11.7093 51.1519 11.8867 51.2488C12.0053 51.3197 12.1349 51.3429 12.2727 51.3183ZM8.59375 54.1856L9.86781 54.3043C11.3274 54.4475 12.5892 54.5389 13.6504 54.5771C13.6559 54.6003 13.6613 54.629 13.6668 54.6603C13.6709 54.6931 13.6763 54.7245 13.6832 54.7572C13.6886 54.7913 13.6954 54.8186 13.7023 54.8404C13.7145 54.8745 13.7309 54.9141 13.7514 54.9536C13.7732 54.9945 13.7937 55.0341 13.81 55.0709L13.7173 55.1569C12.4705 56.1581 11.2346 57.1907 10.0056 58.2547L9.94965 58.3147L9.88827 58.3366C9.87054 58.2711 9.84462 58.1756 9.81461 58.0501C9.78187 57.926 9.75732 57.8305 9.73549 57.765C9.67684 57.5822 9.60727 57.4035 9.52815 57.2303C10.0656 56.8483 10.4653 56.551 10.719 56.3409C10.6931 56.2618 10.6576 56.139 10.6126 55.9767C10.5662 55.8144 10.5308 55.6916 10.5048 55.6097C10.4489 55.442 10.3575 55.1801 10.2266 54.824L10.1256 54.8227C9.89782 54.8158 9.66183 54.809 9.4163 54.8022C9.17349 54.7954 8.94841 54.8008 8.7438 54.8158C8.73152 54.7094 8.70833 54.6031 8.67287 54.4939C8.64013 54.3957 8.59784 54.2989 8.54464 54.202L8.59375 54.1856ZM10.6753 54.865L11.0655 56.064C11.4174 55.7925 11.8635 55.4297 12.4023 54.9823C11.7939 54.9222 11.2401 54.8854 10.7408 54.8677L10.6753 54.865ZM10.9209 60.4195C10.8922 60.3281 10.8581 60.2436 10.8213 60.1658C10.7763 60.0717 10.719 59.9816 10.6535 59.8957C11.1159 59.7225 11.592 59.5274 12.0776 59.3119C12.5646 59.095 13.0884 58.8495 13.6477 58.5766C13.7582 58.5221 13.9232 58.4402 14.1442 58.3284C14.3611 58.2179 14.5289 58.1347 14.6421 58.0801C14.769 58.0174 14.8645 57.9669 14.9327 57.926C14.9722 58.0733 15.005 58.1701 15.0282 58.2206C15.0554 58.2752 15.1155 58.3652 15.2055 58.4852C15.0554 58.8631 14.919 59.2137 14.7922 59.5383C14.668 59.8643 14.5303 60.2272 14.3748 60.6269C14.2206 61.0279 14.0897 61.3703 13.9778 61.654C13.8659 61.9377 13.7391 62.2515 13.5959 62.5939L15.6488 61.5926C15.7498 61.5435 15.878 61.474 16.028 61.3867C16.1794 61.2994 16.2927 61.2339 16.3704 61.193L16.4905 61.1207C16.5314 61.268 16.5627 61.3662 16.5873 61.4153C16.6078 61.4576 16.6364 61.504 16.6719 61.5572C16.7073 61.6104 16.736 61.6527 16.7564 61.6868C16.5941 61.7495 16.4782 61.7986 16.4032 61.8354C16.0921 61.9568 15.8234 62.066 15.5997 62.1669C15.4674 62.2269 15.3596 62.276 15.2791 62.3115C15.1946 62.3483 15.0936 62.3906 14.979 62.4411C14.8631 62.4916 14.7553 62.5407 14.6558 62.5871C14.5575 62.6307 14.4771 62.6689 14.4102 62.7016L12.4814 63.6415C12.4814 63.6251 12.4732 63.6019 12.4582 63.5706C12.4446 63.5283 12.42 63.4696 12.3832 63.3946C12.3286 63.2814 12.2795 63.1968 12.2359 63.1395C12.7542 61.9528 13.1812 60.9065 13.5195 60.0021L13.8973 58.9927C13.5113 59.1646 13.2316 59.2928 13.0625 59.3746L12.4909 59.6543C11.7857 59.998 11.2674 60.2695 10.9318 60.4645L10.9209 60.4195ZM13.9696 67.2618C14.2247 67.48 14.5002 67.4882 14.7963 67.2891C15.08 67.1008 15.3896 66.8771 15.7307 66.6111C15.8398 66.5252 16.0035 66.3983 16.2217 66.2333C16.4386 66.0682 16.5996 65.9441 16.7019 65.8636C16.7837 65.8008 16.9051 65.7081 17.0702 65.584C17.2366 65.4585 17.3594 65.3643 17.444 65.2989C17.5053 65.2497 17.594 65.1802 17.7099 65.0847C17.8245 64.9892 17.9132 64.9183 17.9719 64.8719C18.0414 64.8092 18.1519 64.715 18.2979 64.5923C18.4438 64.4681 18.5516 64.3754 18.6212 64.3113C18.7739 64.5541 18.8803 64.7137 18.939 64.7873C19.0154 64.8855 19.1436 65.0274 19.3237 65.2102C18.9936 65.4339 18.7494 65.6031 18.5911 65.7176C18.4425 65.8254 18.2188 65.9945 17.9255 66.2251C17.875 66.2537 17.8068 66.3015 17.7181 66.371C17.5776 66.4802 17.3826 66.637 17.1343 66.843C16.8819 67.049 16.6651 67.2222 16.4809 67.3668L16.1494 67.626C15.7907 67.9056 15.4769 68.0625 15.2096 68.0925C14.6858 68.158 14.2111 67.9738 13.7841 67.5401L13.9696 67.2618ZM20.5254 67.9588C20.4163 68.057 20.2526 68.1962 20.0398 68.3803C19.8256 68.5618 19.6497 68.7159 19.5146 68.8428C19.3687 68.9778 19.1927 69.151 18.9854 69.3638C18.7753 69.5753 18.613 69.7376 18.4998 69.8481C18.4179 69.9299 18.2992 70.0527 18.1424 70.215C17.9869 70.3787 17.8695 70.5015 17.7918 70.5792C17.755 70.5329 17.6977 70.4647 17.6199 70.3678C17.5422 70.2737 17.4849 70.2028 17.4467 70.1618C17.3062 70.0118 17.1602 69.8699 17.0061 69.7362C17.5885 69.2793 18.2269 68.7282 18.9213 68.0816L19.19 67.8306C19.2991 67.7297 19.4137 67.6178 19.5378 67.4978C19.6592 67.3764 19.7574 67.285 19.8243 67.2222C20.1094 66.9371 20.3249 66.7107 20.4722 66.5484C20.6346 66.7653 20.7519 66.9112 20.8214 66.9862C20.8924 67.0613 21.0301 67.1895 21.2347 67.3668C20.9169 67.626 20.6796 67.8251 20.5254 67.9588ZM19.0945 71.9079L20.2185 71.2927C21.5076 70.5956 22.6043 69.9654 23.506 69.4048C23.5251 69.4211 23.5455 69.4402 23.5673 69.4648C23.5878 69.4893 23.611 69.5125 23.6342 69.5357C23.6574 69.5603 23.6792 69.5794 23.6969 69.593C23.7256 69.6162 23.761 69.6394 23.8006 69.6599C23.8415 69.683 23.8797 69.7021 23.9152 69.7226L23.8865 69.8481C23.4132 71.3745 22.9644 72.9214 22.5415 74.4914L22.5293 74.5733L22.4883 74.6251C22.4379 74.5801 22.3642 74.516 22.2674 74.4301C22.1719 74.3428 22.0969 74.2786 22.0423 74.2364C21.8922 74.1177 21.734 74.0086 21.573 73.909C21.8049 73.291 21.9686 72.8218 22.0627 72.5053C21.9959 72.4535 21.8977 72.373 21.7708 72.2639C21.6412 72.1548 21.543 72.0729 21.4748 72.0211C21.3357 71.9106 21.1133 71.7455 20.8051 71.5232L20.7219 71.5778C20.5282 71.7005 20.329 71.8274 20.1217 71.9583C19.9157 72.0893 19.7343 72.2189 19.5719 72.3457C19.5037 72.2653 19.4232 72.1902 19.3332 72.1179C19.2514 72.0538 19.1613 71.9979 19.0631 71.9488L19.0945 71.9079ZM21.2006 71.3077L22.1937 72.0825C22.3342 71.6596 22.502 71.1112 22.6984 70.4387C22.1596 70.7279 21.6808 71.0076 21.2566 71.2722L21.2006 71.3077ZM27.7292 77.3628C27.0744 77.4706 26.421 77.3287 25.7731 76.94C25.0951 76.5335 24.6777 76.0151 24.5208 75.3849C24.3585 74.7806 24.469 74.1586 24.8509 73.5229C25.2424 72.8709 25.7908 72.4849 26.5001 72.3635C27.1576 72.2653 27.8083 72.4085 28.448 72.7945C28.9909 73.1192 29.3661 73.5257 29.5775 74.0167C29.7521 74.4246 29.8108 74.8065 29.7548 75.1612C29.703 75.52 29.5761 75.8678 29.3743 76.2047C29.1928 76.5062 28.9582 76.7586 28.6745 76.9618C28.3867 77.1664 28.0716 77.2987 27.7292 77.3628ZM27.4768 76.5676C27.8383 76.3521 28.167 75.9988 28.463 75.5063C28.6226 75.2376 28.7372 74.9511 28.8013 74.6456C28.8655 74.34 28.8518 74.0522 28.7577 73.778C28.6663 73.5052 28.4821 73.2842 28.2025 73.1164C27.9447 72.9623 27.6842 72.8955 27.4209 72.9187C27.159 72.9391 26.923 73.0182 26.7116 73.1574C26.3746 73.377 26.0459 73.7507 25.7267 74.2827C25.563 74.5556 25.4511 74.8366 25.3939 75.1271C25.3366 75.4177 25.3557 75.6946 25.4511 75.9565C25.548 76.2184 25.7349 76.4339 26.0131 76.6017C26.4619 76.8704 26.9503 76.8595 27.4768 76.5676ZM33.0587 76.0438C32.9864 76.2225 32.8759 76.4871 32.7258 76.8363C32.5771 77.1869 32.4666 77.4502 32.3971 77.6261C32.3616 77.7148 32.3084 77.8498 32.2388 78.0299C32.1693 78.2113 32.1161 78.3491 32.0765 78.4446C32.0329 78.5537 31.9701 78.7256 31.8855 78.9602C31.8023 79.1948 31.7382 79.3667 31.6946 79.4772C31.6468 79.454 31.5663 79.4144 31.4518 79.3599C31.3345 79.3026 31.2472 79.2617 31.1858 79.2371C31.1312 79.2153 31.0439 79.1853 30.9266 79.1471C30.8079 79.1075 30.7179 79.0775 30.6565 79.057C30.7015 78.9561 30.7684 78.8074 30.8611 78.611C30.9539 78.4146 31.0193 78.2659 31.0589 78.1704C31.4559 77.2674 31.76 76.5499 31.9756 76.0179C32.052 75.8296 32.1543 75.5554 32.2852 75.1967C32.1611 75.1462 31.9715 75.0766 31.715 74.9893C31.4681 74.9129 31.2526 74.8557 31.0698 74.8079C31.1135 74.7574 31.1598 74.6729 31.2062 74.5556C31.2485 74.4505 31.2758 74.3755 31.2881 74.325C31.2881 74.3182 31.2894 74.3032 31.2935 74.2827C31.299 74.2609 31.3003 74.2473 31.3003 74.2391C31.505 74.3373 31.6646 74.4069 31.7737 74.4519C32.2293 74.6524 32.6112 74.8147 32.9222 74.9402L33.5811 75.2062C33.6902 75.2499 33.8539 75.3085 34.0667 75.3808C34.2809 75.4504 34.4528 75.5131 34.5864 75.5677C34.5305 75.6468 34.4882 75.7287 34.4555 75.8119C34.4146 75.9128 34.3805 76.0206 34.3573 76.1365C34.0026 75.9237 33.637 75.7423 33.2633 75.5923L33.0587 76.0438ZM38.7619 80.7471C38.1822 81.0732 37.5206 81.1632 36.7772 81.02C36.0024 80.8686 35.4335 80.5248 35.0693 79.986C34.7106 79.4731 34.6001 78.8511 34.7433 78.1226C34.8879 77.3765 35.2712 76.8268 35.896 76.4707C36.4798 76.1529 37.14 76.0656 37.8739 76.2075C38.4959 76.3275 38.987 76.5826 39.3526 76.9714C39.6567 77.2946 39.8423 77.6329 39.9105 77.9849C39.9855 78.3409 39.9855 78.7106 39.9105 79.0966C39.8423 79.4417 39.7099 79.7596 39.5108 80.0474C39.3116 80.3366 39.0606 80.5698 38.7619 80.7471ZM38.2517 80.0856C38.5177 79.7609 38.706 79.3162 38.8151 78.7515C38.8738 78.4446 38.8833 78.1349 38.8383 77.8266C38.7946 77.5184 38.6828 77.2524 38.5014 77.0259C38.3227 76.8022 38.073 76.6576 37.7538 76.5962C37.4578 76.5376 37.1905 76.5649 36.9504 76.6767C36.713 76.7858 36.5166 76.9414 36.3666 77.1432C36.1251 77.4652 35.9437 77.9289 35.8264 78.5387C35.765 78.8497 35.7568 79.1525 35.8018 79.4445C35.8469 79.7377 35.9601 79.9901 36.1388 80.2056C36.3188 80.4184 36.5685 80.5575 36.8876 80.6189C37.4019 80.7185 37.8562 80.5412 38.2517 80.0856ZM42.018 81.552C41.9239 81.5356 41.8325 81.5247 41.7479 81.5219C41.6429 81.5179 41.5351 81.5247 41.4301 81.5424C41.4942 81.0527 41.5446 80.5412 41.5828 80.0105C41.6197 79.4785 41.6483 78.9015 41.6701 78.2795C41.6742 78.1554 41.6797 77.9726 41.6851 77.7257C41.6892 77.4815 41.6933 77.2946 41.6988 77.1678C41.7029 77.0286 41.7029 76.9182 41.7001 76.8404C41.8475 76.8745 41.9498 76.8909 42.0043 76.8936C42.0657 76.895 42.1721 76.8854 42.3222 76.8622C42.5841 77.1705 42.831 77.457 43.0574 77.7216C43.2852 77.9835 43.543 78.2754 43.8227 78.6001C44.1037 78.9234 44.3451 79.2003 44.5429 79.4335C44.7421 79.6641 44.959 79.9246 45.1936 80.2124L45.2468 78.701L45.2727 77.9289C45.2768 77.8157 45.2754 77.6711 45.2686 77.4979C45.2631 77.3233 45.2577 77.1923 45.2577 77.105L45.2522 76.9645C45.4009 76.9986 45.5032 77.0164 45.5578 77.0177C45.6042 77.0191 45.6574 77.0164 45.7215 77.0096C45.7856 77.0027 45.8374 76.9973 45.8756 76.9959C45.8552 77.1678 45.8442 77.2946 45.8415 77.3765C45.8033 77.7093 45.7733 77.9971 45.7569 78.2427C45.7488 78.3873 45.7419 78.5046 45.7351 78.5919C45.7269 78.6833 45.7174 78.7924 45.7078 78.9179C45.6983 79.0448 45.6901 79.1621 45.6847 79.2712C45.6778 79.379 45.6737 79.469 45.671 79.5427L45.596 81.6884C45.581 81.6802 45.5564 81.6761 45.5223 81.6747C45.4773 81.6665 45.4146 81.6611 45.3314 81.657C45.2045 81.6529 45.1076 81.657 45.0367 81.6693C44.2319 80.6544 43.5089 79.7855 42.8692 79.0625L42.1544 78.2536C42.1257 78.6765 42.108 78.982 42.1012 79.1716L42.0794 79.8073C42.0521 80.5903 42.0466 81.1755 42.063 81.5642L42.018 81.552ZM51.0755 77.1678C50.6799 76.7845 50.193 76.6494 49.6173 76.7613C49.0635 76.869 48.6665 77.1937 48.4251 77.7339C48.2491 78.154 48.215 78.641 48.3242 79.2003C48.3787 79.484 48.4851 79.7527 48.6406 80.0105C48.7961 80.2656 48.9885 80.4552 49.2149 80.5794C49.3568 80.6544 49.4741 80.7021 49.5641 80.7212C49.6555 80.7431 49.7892 80.7581 49.9638 80.7676C50.122 80.7662 50.2434 80.7567 50.3253 80.7403C50.4467 80.7171 50.5967 80.6708 50.7727 80.5998C50.8 80.5944 50.8491 80.5766 50.9146 80.5439C50.9814 80.5125 51.0182 80.4893 51.0291 80.4743C51.0319 80.4702 51.0332 80.458 51.0332 80.4389C51.0319 80.4184 51.0332 80.4075 51.0373 80.4061L50.9378 79.8891C50.8873 79.6341 50.8054 79.2876 50.6895 78.8483C50.8614 78.8361 51.0332 78.8142 51.2037 78.7801C51.3906 78.7447 51.568 78.6997 51.7385 78.6451C51.7658 78.9629 51.8203 79.3326 51.9022 79.7555C51.9363 79.9273 51.9922 80.1797 52.0699 80.5098C51.4043 80.8399 50.8341 81.0513 50.3635 81.1441C50.0006 81.2137 49.6473 81.2341 49.3049 81.2055C48.9612 81.1768 48.6461 81.0923 48.3569 80.9518C48.0691 80.8113 47.8263 80.6107 47.6271 80.3516C47.4293 80.0924 47.2943 79.7746 47.2206 79.3926C47.1415 78.9902 47.1429 78.6164 47.222 78.2741C47.3025 77.9289 47.4484 77.6288 47.6639 77.3669C47.8767 77.105 48.1427 76.8881 48.4606 76.7176C48.7798 76.5458 49.1344 76.4244 49.5246 76.348C50.1275 76.2307 50.6922 76.2607 51.2228 76.4366C51.1847 76.7477 51.1683 76.9836 51.1696 77.1487L51.0755 77.1678ZM58.4934 74.621C58.5207 74.6892 58.5603 74.7943 58.6148 74.9375C58.668 75.0794 58.7103 75.1871 58.7376 75.254C58.769 75.3331 58.8126 75.4504 58.8699 75.61C58.9272 75.7696 58.9709 75.8896 59.0022 75.966C59.1878 76.4639 59.2982 76.8609 59.3351 77.1569C59.3705 77.4529 59.2819 77.7625 59.0691 78.0858C58.8481 78.4337 58.4907 78.7078 57.9969 78.907C57.7214 79.0189 57.4458 79.0911 57.1703 79.1253C56.8961 79.1607 56.6328 79.1348 56.3805 79.0516C56.1281 78.9697 55.9112 78.8102 55.7298 78.5783C55.6766 78.5155 55.6111 78.4105 55.5347 78.2591C55.4843 78.1718 55.4188 78.0299 55.3369 77.8266C55.2837 77.6957 55.2264 77.5552 55.1596 77.4038C55.0955 77.2551 55.045 77.135 55.0082 77.045L54.6835 76.2402C54.6508 76.1625 54.6003 76.0411 54.5321 75.8801C54.4612 75.7164 54.4107 75.595 54.3793 75.5186C54.3684 75.49 54.3493 75.4463 54.3221 75.3863C54.2934 75.3276 54.2729 75.2799 54.2593 75.2471C54.5212 75.1721 54.7013 75.1148 54.8049 75.0725C54.91 75.0303 55.075 74.9484 55.3001 74.827C55.3124 74.8597 55.3274 74.9129 55.3492 74.9866C55.3697 75.0603 55.3847 75.1148 55.3969 75.1544C55.5906 75.7218 55.7748 76.2252 55.9521 76.6644C56.1868 77.2442 56.3614 77.6411 56.4759 77.8553C56.5919 78.0272 56.6915 78.1554 56.772 78.2372C56.8552 78.3204 56.9697 78.3886 57.113 78.4432C57.3803 78.5482 57.6613 78.5414 57.9533 78.4227C58.2479 78.3041 58.458 78.1486 58.5862 77.9576C58.7144 77.768 58.7799 77.5129 58.7826 77.1964C58.7772 76.9768 58.6353 76.5212 58.3557 75.8296C58.0092 74.9743 57.7336 74.34 57.5277 73.9267C57.6927 73.8912 57.8046 73.8612 57.8646 73.8353C57.9287 73.8108 58.0337 73.7535 58.1756 73.6662C58.1865 73.7139 58.2056 73.7808 58.2315 73.8626C58.2602 73.9472 58.2875 74.0345 58.3202 74.1259C58.3502 74.2186 58.3788 74.2964 58.4034 74.3605C58.4252 74.426 58.4552 74.5133 58.4934 74.621ZM62.3688 76.6685C62.2815 76.7081 62.201 76.7517 62.1301 76.7981C62.0414 76.8554 61.9582 76.9222 61.8818 76.9973C61.6527 76.5594 61.4017 76.1106 61.1288 75.655C60.8533 75.198 60.545 74.7083 60.2067 74.1859C60.1399 74.0822 60.0376 73.9294 59.9012 73.7248C59.7648 73.5216 59.6611 73.3647 59.5929 73.261C59.5151 73.1424 59.4537 73.0523 59.406 72.991C59.5465 72.9337 59.6393 72.89 59.6856 72.86C59.7375 72.8259 59.818 72.7563 59.9271 72.6513C60.3199 72.755 60.6855 72.8477 61.0224 72.9337C61.3607 73.0155 61.7386 73.1096 62.1533 73.2147C62.5693 73.3183 62.9253 73.4056 63.2214 73.4834C63.516 73.5598 63.8434 73.6471 64.2021 73.7494L62.9567 71.8328C62.8953 71.7374 62.8108 71.62 62.7057 71.4823C62.6007 71.3418 62.5229 71.2367 62.4725 71.1658L62.3865 71.0553C62.5284 70.9967 62.6225 70.953 62.6675 70.923C62.7057 70.8984 62.748 70.8643 62.7971 70.8221C62.8462 70.7798 62.8844 70.7457 62.9158 70.7211C62.9976 70.8753 63.0604 70.9857 63.1054 71.0553C63.265 71.3486 63.4069 71.6009 63.5324 71.811C63.6088 71.9351 63.6715 72.0361 63.7165 72.1111C63.7615 72.1902 63.8175 72.2857 63.8802 72.3935C63.9457 72.5026 64.0071 72.6035 64.0644 72.6963C64.1203 72.7891 64.168 72.8654 64.209 72.9268L65.378 74.7274C65.3616 74.7288 65.3384 74.7383 65.3098 74.7588C65.2689 74.7765 65.2129 74.8079 65.1434 74.8529C65.0383 74.9225 64.9606 74.9812 64.9087 75.0316C63.6674 74.662 62.5775 74.3646 61.6376 74.1395L60.5887 73.8872C60.8069 74.25 60.9692 74.5119 61.0716 74.6688L61.418 75.2035C61.845 75.861 62.1765 76.3425 62.4125 76.6522L62.3688 76.6685ZM65.513 69.7949C65.6099 69.9081 65.7463 70.0732 65.9277 70.2901C66.1037 70.5069 66.2551 70.6843 66.3779 70.8221C66.5115 70.9707 66.6821 71.1494 66.8908 71.3609C67.0981 71.5737 67.2577 71.7387 67.3668 71.8547C67.4473 71.9392 67.5673 72.0593 67.7269 72.2175C67.8893 72.3757 68.0093 72.4958 68.0843 72.5749C68.0393 72.6117 67.9684 72.6677 67.8715 72.744C67.7747 72.8177 67.7038 72.875 67.6615 72.9132C67.51 73.051 67.3641 73.1956 67.229 73.3456C66.783 72.755 66.2428 72.1084 65.6071 71.4032L65.3616 71.129C65.262 71.0185 65.1529 70.9012 65.0356 70.7757C64.9169 70.6515 64.8255 70.552 64.7641 70.4838C64.4845 70.1946 64.2622 69.975 64.1012 69.8249C64.3208 69.6667 64.4695 69.5507 64.5459 69.4825C64.6223 69.4129 64.7532 69.2779 64.9346 69.076C65.187 69.3993 65.3807 69.6394 65.513 69.7949ZM71.1808 69.5589C71.1576 69.5794 71.1194 69.6121 71.0662 69.6571C71.013 69.7008 70.9735 69.7362 70.9475 69.7635C70.8739 69.8413 70.8125 69.9245 70.7607 70.0091C70.0472 69.7062 69.2861 69.3939 68.4799 69.0747C67.6724 68.7555 66.8662 68.4458 66.0628 68.1443C66.2783 67.9561 66.4256 67.8183 66.5061 67.731C66.5866 67.6451 66.7134 67.4882 66.8853 67.2618C67.2168 67.4268 67.5537 67.5823 67.8947 67.7297C68.2357 67.8756 68.6286 68.0393 69.0774 68.2235C69.5248 68.4062 69.9095 68.5645 70.2287 68.6995C69.6503 67.4309 69.1074 66.3383 68.6027 65.4203C68.6191 65.4107 68.6327 65.4012 68.6422 65.3943C68.6504 65.3903 68.6586 65.3834 68.6668 65.3793C68.8359 65.1993 68.9546 65.0615 69.0283 64.9647C69.2179 65.3889 69.4511 65.9059 69.7253 66.5129C69.9981 67.1199 70.256 67.6765 70.4947 68.1825C70.7375 68.6886 70.9639 69.1483 71.1808 69.5589ZM69.5316 64.0153C69.6053 63.917 69.7103 63.7779 69.8508 63.6006C69.99 63.4219 70.1045 63.2705 70.1891 63.1491C70.3228 62.9594 70.4769 62.7289 70.6502 62.4629C70.8261 62.1969 70.9612 61.9937 71.0553 61.8545C71.1467 61.9255 71.2817 62.0251 71.4673 62.1546C71.4891 62.1615 71.5136 62.1737 71.5437 62.1942C71.1112 62.7126 70.7879 63.1259 70.5738 63.4314C70.702 63.531 70.8971 63.6715 71.1576 63.8543C71.2272 63.9034 71.3281 63.9757 71.4659 64.0766C71.6023 64.1762 71.7046 64.2499 71.7728 64.2976L72.6308 62.984C72.729 63.089 72.8082 63.1613 72.8668 63.2009C72.9173 63.2364 72.9978 63.2759 73.1069 63.3182C72.8163 63.6729 72.5654 63.9989 72.358 64.2949C72.3389 64.3208 72.3062 64.3672 72.2598 64.4272C72.2134 64.4872 72.1793 64.535 72.1575 64.5663L72.8764 65.0711L73.5843 65.5662C73.8285 65.2197 74.1068 64.7669 74.4219 64.2103C74.5092 64.2812 74.6456 64.3795 74.8297 64.5104C74.8516 64.5159 74.8761 64.5295 74.9061 64.55C74.8243 64.6591 74.7001 64.8255 74.531 65.0451C74.3632 65.262 74.2405 65.4298 74.1613 65.5417C74.1081 65.6167 74.0331 65.7313 73.9322 65.8827C73.8326 66.0382 73.7589 66.1487 73.7098 66.221C73.6362 66.3247 73.5257 66.4965 73.3756 66.7352C73.3429 66.708 73.291 66.6643 73.2188 66.6111C73.1492 66.5579 73.0987 66.5184 73.0673 66.4897C72.9623 66.412 72.7932 66.2892 72.5585 66.1132C72.3266 65.94 72.1493 65.8118 72.0279 65.7272C71.9365 65.6631 71.796 65.5635 71.6078 65.4271C71.4195 65.2907 71.2777 65.1897 71.1835 65.1229L70.5247 64.6618C70.4292 64.5936 70.2764 64.494 70.0691 64.3645C69.8631 64.2349 69.7103 64.1367 69.6094 64.0698L69.5316 64.0153ZM74.9511 61.0061C74.7343 61.0184 74.5992 61.0279 74.5501 61.0347C74.5174 61.0375 74.4955 61.047 74.4874 61.0647C74.4778 61.0838 74.486 61.1002 74.5119 61.1111C74.632 61.1698 74.8147 61.2557 75.063 61.3689C75.3099 61.4821 75.494 61.5667 75.6141 61.6254L75.7846 61.7086C75.9537 61.7836 76.1761 61.8723 76.4571 61.9759C76.4257 62.0319 76.3793 62.1137 76.3166 62.2215C76.2552 62.3279 76.2088 62.4097 76.1815 62.4657C76.1556 62.5189 76.1202 62.6062 76.0711 62.7248C76.0247 62.8421 75.9878 62.9281 75.9647 62.9826L75.8569 62.9172C75.8092 62.8926 75.7587 62.8653 75.7068 62.8367C75.6564 62.808 75.6141 62.7835 75.5868 62.7685C75.5582 62.7507 75.5172 62.7276 75.4599 62.6907C75.2049 62.542 74.8011 62.3347 74.2568 62.0687C74.1341 62.0087 73.9472 61.9187 73.6948 61.8C73.4411 61.6799 73.2542 61.5913 73.1301 61.5312C72.8409 61.3894 72.3771 61.1793 71.7428 60.8997L71.9679 60.4809C72.0156 60.3841 72.0852 60.2354 72.1739 60.0362C72.2639 59.8371 72.3348 59.687 72.3826 59.5874C72.624 59.0936 72.8273 58.7813 72.995 58.6517C73.3797 58.3898 73.7698 58.3557 74.1627 58.548C74.456 58.6912 74.6565 58.8945 74.7656 59.1591C74.8734 59.4265 74.8857 59.7225 74.8065 60.0499C75.168 60.0308 75.9251 59.9516 77.0778 59.8043L77.5375 59.7607C77.5047 59.818 77.4542 59.9094 77.3847 60.0335C77.3151 60.1549 77.2646 60.2476 77.2346 60.3063C77.146 60.4891 77.0641 60.6814 76.9905 60.8806L75.3781 60.9761L74.9511 61.0061ZM73.2842 60.4891L73.7698 60.7264C73.9663 60.8219 74.1136 60.8983 74.2132 60.9542C74.3782 60.6173 74.4232 60.3363 74.3523 60.114C74.2814 59.8889 74.0972 59.7047 73.7985 59.5588C73.6771 59.5001 73.568 59.4592 73.4711 59.4347C73.3374 59.4019 73.2242 59.3978 73.1287 59.4251C73.036 59.4497 72.9568 59.4974 72.8927 59.5642C72.8286 59.6338 72.7686 59.7211 72.714 59.8248C72.6581 59.9312 72.6049 60.0335 72.5517 60.1331L73.2842 60.4891ZM75.2308 54.9564C74.8134 54.9768 74.5474 55.1678 74.4301 55.5306C74.3605 55.7475 74.3605 55.9399 74.4328 56.109C74.5078 56.2754 74.6388 56.3886 74.8216 56.4487C74.9757 56.4978 75.1312 56.4732 75.284 56.3777C75.4395 56.2795 75.6373 56.1117 75.8801 55.8717C76.1229 55.6329 76.3302 55.4488 76.5007 55.3192C76.6713 55.1882 76.8513 55.1146 77.0423 55.0996C77.2196 55.075 77.427 55.1023 77.6589 55.1787C77.8594 55.2428 78.0476 55.3601 78.225 55.5265C78.4528 55.7462 78.5878 56.0463 78.6328 56.4282C78.6696 56.7078 78.6315 57.0216 78.5182 57.3694C78.3859 57.7759 78.1813 58.0978 77.903 58.3366C77.607 58.1347 77.3533 57.9833 77.1378 57.8782L77.1773 57.7555C77.4133 57.7773 77.6193 57.7254 77.7939 57.604C77.9685 57.4826 78.094 57.3067 78.1677 57.0789C78.2372 56.8633 78.24 56.6642 78.1731 56.48C78.1076 56.2932 77.9699 56.1677 77.7625 56.0995C77.5784 56.0394 77.3847 56.0654 77.1801 56.1799C76.9673 56.3395 76.7504 56.5401 76.5294 56.7801C76.4612 56.847 76.3712 56.9247 76.2579 57.0161C76.1447 57.1075 76.0711 57.1675 76.037 57.1975C75.8965 57.3121 75.7232 57.3776 75.5159 57.3926C75.3085 57.409 75.1067 57.3858 74.9061 57.3217C74.4833 57.1839 74.1941 56.9056 74.0413 56.4923C73.9676 56.3027 73.9322 56.124 73.9363 55.9535C73.9417 55.7857 73.9772 55.592 74.0495 55.3738C74.1709 54.9959 74.3646 54.6972 74.6265 54.4803C74.6401 54.4789 74.6579 54.468 74.6852 54.4448C74.8666 54.5812 75.0589 54.7176 75.2635 54.8554L75.2308 54.9564Z" fill="#C92B2F"/>
<path d="M76.052 51.7944C76.1952 51.8312 76.4012 51.8872 76.674 51.9622C76.9441 52.0386 77.1691 52.0972 77.3492 52.1395C77.5443 52.1845 77.7857 52.2336 78.0776 52.2868C78.3709 52.3428 78.596 52.3864 78.7515 52.4178C78.8647 52.441 79.0325 52.471 79.2548 52.5092C79.4785 52.546 79.645 52.576 79.7527 52.5965C79.7364 52.6524 79.7104 52.7397 79.675 52.857C79.6381 52.9743 79.6122 53.0603 79.5999 53.1148C79.5536 53.3167 79.5195 53.5172 79.4936 53.7191C78.7897 53.4913 77.9753 53.2703 77.0518 53.0562L76.6917 52.9743C76.5471 52.9402 76.3916 52.9061 76.2225 52.8707C76.0533 52.8379 75.9224 52.8093 75.8337 52.7888C75.4368 52.7111 75.1312 52.6592 74.9129 52.6292C75.0016 52.3728 75.0562 52.1927 75.0794 52.0931C75.1026 51.9922 75.1312 51.8067 75.1639 51.5366C75.5568 51.6566 75.8542 51.7426 76.052 51.7944ZM76.7122 48.1496C76.9059 48.1686 77.1896 48.2028 77.5675 48.2505C77.9453 48.2969 78.229 48.3296 78.4159 48.3501C78.5114 48.3596 78.6546 48.3733 78.8483 48.3896C79.042 48.4074 79.1894 48.421 79.2903 48.4306C79.409 48.4442 79.5918 48.4578 79.84 48.4728C80.0883 48.4892 80.2711 48.5028 80.3884 48.5138C80.3802 48.567 80.3652 48.6556 80.3434 48.7811C80.3202 48.9093 80.3052 49.0048 80.2984 49.0689C80.2915 49.1276 80.2875 49.2204 80.2847 49.3431C80.2793 49.4686 80.2752 49.5627 80.2711 49.6282C80.162 49.6132 80.001 49.5887 79.7868 49.5546C79.5727 49.5191 79.4117 49.4973 79.308 49.4864C78.3314 49.3527 77.5565 49.2586 76.9864 49.1985C76.7858 49.1767 76.4939 49.1535 76.1106 49.1262C76.097 49.2599 76.0833 49.4618 76.0683 49.7305C76.0656 49.9897 76.0683 50.2134 76.0738 50.4017C76.0124 50.3744 75.9183 50.3539 75.7928 50.3403C75.6796 50.328 75.6004 50.3239 75.5486 50.3253C75.5418 50.328 75.5268 50.3307 75.5063 50.3321C75.4845 50.3321 75.4695 50.3348 75.4627 50.3375C75.5009 50.1125 75.5241 49.9406 75.5363 49.8233C75.6045 49.3309 75.655 48.9175 75.6891 48.5847L75.7628 47.8781C75.7764 47.7608 75.7873 47.5875 75.7969 47.3638C75.8064 47.1388 75.8173 46.956 75.8337 46.8127C75.9251 46.8428 76.0165 46.8619 76.1052 46.8714C76.2129 46.8823 76.3261 46.885 76.4435 46.8755C76.3371 47.2752 76.2634 47.6762 76.2225 48.0759L76.7122 48.1496ZM75.9374 45.4773C75.9333 45.3532 75.9128 45.1486 75.8733 44.8676C75.9728 44.8171 76.0697 44.7653 76.1706 44.7121C76.2689 44.6616 76.3684 44.6097 76.468 44.5606C76.614 44.4856 76.8254 44.3724 77.1037 44.221C77.2333 44.1514 77.4297 44.0491 77.693 43.9141C77.8198 43.8377 77.8921 43.7899 77.9112 43.7681C77.9112 43.7695 77.9085 43.7708 77.9071 43.7708C77.8989 43.7708 77.8512 43.7326 77.7693 43.6562C77.708 43.6194 77.6357 43.584 77.5538 43.5499C77.4038 43.4707 77.1282 43.3466 76.7272 43.1734C76.5921 43.1092 76.4012 43.0315 76.1556 42.9415C76.0942 42.9169 76.0288 42.891 75.9551 42.861C75.8828 42.831 75.8323 42.8092 75.801 42.7955C75.8051 42.7887 75.8078 42.7751 75.8119 42.7587C75.8146 42.7423 75.8173 42.7287 75.8201 42.7205C75.8283 42.6687 75.8282 42.595 75.8242 42.4968C75.8214 42.3904 75.8064 42.2744 75.7791 42.1503C76.0165 42.2662 76.4312 42.4777 77.0259 42.7887C77.6207 43.1011 78.0926 43.333 78.4405 43.4871C78.7924 43.4885 79.057 43.4871 79.2344 43.4789C79.4567 43.4721 79.8891 43.4325 80.533 43.3575C80.5316 43.4216 80.5289 43.5212 80.5248 43.6535C80.5207 43.7858 80.5193 43.8868 80.5207 43.9536C80.5289 44.1501 80.5453 44.3438 80.5739 44.5347C80.0719 44.5006 79.5495 44.4938 79.0052 44.5129C78.9165 44.5088 78.7842 44.5102 78.6151 44.5156C78.4009 44.6548 78.1881 44.7844 77.9767 44.9085C77.768 45.034 77.547 45.1636 77.3137 45.2959C77.0791 45.4282 76.8349 45.566 76.5785 45.7106C76.3221 45.8579 76.0997 45.9834 75.9169 46.0939C75.9346 45.8074 75.9415 45.6028 75.9374 45.4773Z" fill="#C92B2F"/>
<path fill-rule="evenodd" clip-rule="evenodd" d="M44 0C68.2958 0 88 19.7042 88 44C88 68.2958 68.2958 88 44 88C19.7029 88 0 68.2958 0 44C0 19.7042 19.7029 0 44 0ZM44 1.65464C67.3832 1.65464 86.3454 20.6168 86.3454 44C86.3454 67.3832 67.3832 86.3454 44 86.3454C20.6168 86.3454 1.65464 67.3832 1.65464 44C1.65464 20.6168 20.6168 1.65464 44 1.65464Z" fill="#C92B2F"/>
<path d="M44 2.7691C55.3833 2.7691 65.6917 7.38517 73.1533 14.8467C80.6148 22.3083 85.2309 32.6167 85.2309 44C85.2309 55.3833 80.6148 65.6917 73.1533 73.1533C65.6917 80.6148 55.3833 85.2309 44 85.2309C32.6167 85.2309 22.3083 80.6148 14.8467 73.1533C7.38517 65.6917 2.7691 55.3833 2.7691 44C2.7691 32.6167 7.38517 22.3083 14.8467 14.8467C22.3083 7.38517 32.6167 2.7691 44 2.7691ZM72.5449 15.4551C65.2388 8.14906 55.146 3.62984 44 3.62984C32.854 3.62984 22.7612 8.14906 15.4551 15.4551C8.14906 22.7612 3.62847 32.854 3.62847 44C3.62847 55.146 8.14906 65.2388 15.4551 72.5449C22.7612 79.8509 32.854 84.3715 44 84.3715C55.146 84.3715 65.2388 79.8509 72.5449 72.5449C79.8509 65.2388 84.3702 55.146 84.3702 44C84.3702 32.854 79.8509 22.7612 72.5449 15.4551Z" fill="#C92B2F"/>
<path fill-rule="evenodd" clip-rule="evenodd" d="M45.656 15.7075L45.9834 18.8503C46.8673 18.9199 47.7376 19.0358 48.5915 19.1941L49.7237 16.2408C50.8136 16.4659 51.8803 16.7551 52.9225 17.1016L52.426 20.224C53.2553 20.52 54.0642 20.8569 54.8513 21.2334L56.7065 18.6771C57.6968 19.1777 58.6544 19.7342 59.5738 20.3413L58.2861 23.2277C59.0063 23.7256 59.6993 24.2589 60.3636 24.8264L62.8162 22.8375C63.6429 23.5742 64.4258 24.3571 65.1625 25.1838L63.1736 27.6364C63.7411 28.3007 64.2744 28.9937 64.7723 29.7139L67.6574 28.4262C68.2657 29.3456 68.8223 30.3032 69.3216 31.2935L66.7653 33.1487C67.1431 33.9358 67.4787 34.7447 67.776 35.574L70.8984 35.0775C71.2449 36.1183 71.5341 37.1864 71.7592 38.2763L68.8059 39.4071C68.9642 40.2624 69.0801 41.1327 69.1497 42.0166L72.2925 42.344C72.3239 42.8924 72.3416 43.4448 72.3416 44C72.3416 44.5552 72.3239 45.1076 72.2925 45.656L69.1497 45.9847C69.0801 46.8673 68.9642 47.7376 68.8059 48.5929L71.7592 49.7237C71.5341 50.8136 71.2449 51.8803 70.8984 52.9225L67.7747 52.426C67.4787 53.2553 67.1431 54.0642 66.7653 54.8513L69.3216 56.7065C68.8223 57.6968 68.2657 58.6544 67.6574 59.5738L64.7723 58.2861C64.2744 59.0063 63.7411 59.6993 63.1722 60.3636L65.1625 62.8162C64.4258 63.6429 63.6429 64.4258 62.8162 65.1625L60.3636 63.1736C59.6993 63.7411 59.0063 64.2744 58.2861 64.7723L59.5738 67.6587C58.6544 68.2658 57.6968 68.8223 56.7065 69.3229L54.8513 66.7666C54.0642 67.1431 53.2553 67.48 52.426 67.776L52.9225 70.8984C51.8803 71.2449 50.8136 71.5341 49.7237 71.7592L48.5915 68.8059C47.7376 68.9655 46.8659 69.0801 45.9834 69.1497L45.656 72.2925C45.1076 72.3253 44.5552 72.3416 44 72.3416C43.4435 72.3416 42.891 72.3253 42.3426 72.2925L42.0153 69.1497C41.1327 69.0801 40.2624 68.9642 39.4071 68.8059L38.2763 71.7592C37.1864 71.5341 36.1183 71.2449 35.0775 70.8984L35.574 67.776C34.7447 67.48 33.9358 67.1431 33.1487 66.7666L31.2935 69.3229C30.3032 68.8223 29.3456 68.2658 28.4262 67.6587L29.7139 64.7723C28.9937 64.2744 28.2994 63.7411 27.635 63.1736L25.1824 65.1625C24.3558 64.4258 23.5742 63.6429 22.8375 62.8162L24.8264 60.3636C24.2589 59.6993 23.7256 59.0063 23.2277 58.2861L20.3413 59.5738C19.7329 58.6544 19.1777 57.6968 18.6771 56.7065L21.2334 54.8513C20.8569 54.0642 20.52 53.2553 20.224 52.426L17.1016 52.9225C16.7537 51.8817 16.4659 50.8136 16.2395 49.7237L19.1927 48.5929C19.0345 47.7376 18.9199 46.8673 18.8503 45.9847L15.7075 45.656C15.6747 45.1076 15.657 44.5552 15.657 44C15.657 43.4448 15.6747 42.8924 15.7075 42.344L18.8503 42.0166C18.9199 41.1327 19.0345 40.2624 19.1927 39.4071L16.2395 38.2763C16.4659 37.1864 16.7551 36.1197 17.1016 35.0775L20.224 35.574C20.52 34.7447 20.8569 33.9358 21.2334 33.1487L18.6771 31.2935C19.1763 30.3032 19.7343 29.3456 20.3413 28.4262L23.2277 29.7139C23.7256 28.9937 24.2589 28.3007 24.8264 27.6364L22.8375 25.1838C23.5728 24.3571 24.3558 23.5742 25.1824 22.8375L27.635 24.8264C28.2994 24.2589 28.9937 23.7256 29.7125 23.2277L28.4262 20.3413C29.3456 19.7342 30.3032 19.1777 31.2935 18.6771L33.1487 21.2334C33.9358 20.8569 34.7447 20.52 35.574 20.224L35.0775 17.1016C36.1183 16.7551 37.1864 16.4659 38.2763 16.2408L39.4071 19.1941C40.2624 19.0345 41.1327 18.9199 42.0153 18.8503L42.3426 15.7075C42.891 15.6747 43.4435 15.6584 44 15.6584C44.5552 15.6584 45.1076 15.6747 45.656 15.7075ZM44 21.3657C56.4664 21.3657 66.6343 31.5336 66.6343 44C66.6343 56.4664 56.4664 66.6343 44 66.6343C31.5336 66.6343 21.3657 56.4664 21.3657 44C21.3657 31.5336 31.5336 21.3657 44 21.3657Z" fill="#C92B2F"/>
<path fill-rule="evenodd" clip-rule="evenodd" d="M30.6701 38.279C37.6024 38.279 44.3492 38.279 51.2733 38.279L51.7466 38.8792C51.7466 38.8915 51.7466 38.9051 51.7466 38.9174C51.7466 40.6443 51.7466 42.3522 51.7466 44.0846C50.1411 44.5743 49.0144 44.8498 48.7893 46.6463C48.6079 48.5301 49.826 49.7101 50.9418 50.9896C51.3319 51.437 51.8571 51.7794 52.2391 52.2746C52.2472 52.2868 52.2568 52.2841 52.2391 52.2841C48.1618 52.2486 40.5802 52.2786 36.5057 52.2868C36.3324 52.1136 38.2067 51.2392 38.5054 50.8832C39.2284 49.6119 39.7195 47.6667 39.1002 46.3421C39.0156 46.1621 38.5682 45.4814 38.3977 45.3232C37.5929 44.7966 36.7949 44.1964 35.8768 43.8663C35.9328 43.4598 36.0842 43.0015 36.1892 42.6223C36.5166 41.4328 36.7226 41.0195 37.054 39.8259C37.23 39.3062 35.9314 38.4864 35.574 39.5326C35.0788 40.9799 34.6164 41.9416 34.0899 43.4721C33.3546 43.3193 33.195 43.2334 32.4189 43.2184C32.2675 43.2157 31.8528 43.0874 31.715 43.0288C31.3494 42.8787 31.1435 42.7751 30.9811 42.4108C30.9498 42.3385 30.8679 42.1367 30.8665 42.0616C30.8474 40.8612 30.6606 39.6486 30.6701 38.279Z" fill="#C92B2F"/>
<path fill-rule="evenodd" clip-rule="evenodd" d="M52.1532 38.5545H58.6558C58.6612 38.5395 58.6667 38.5245 58.6708 38.5109C58.7144 38.3772 58.7431 38.3608 58.8795 38.2954C58.9995 38.2394 59.3023 38.1262 59.4306 38.1249C59.5833 38.1221 59.9394 38.1508 60.1754 38.2176C60.2872 38.249 60.339 38.4713 60.4113 38.5545H61.6908V38.5586C61.5831 38.8683 61.5654 38.8969 61.2107 39.1984C61.1152 39.2789 60.9324 39.3662 60.7715 39.4385C60.6923 39.4739 60.6555 39.4576 60.5655 39.5285C60.56 39.5326 60.5587 39.5626 60.5573 39.5981C60.5655 39.8027 60.5396 40.0018 60.5559 40.186C60.5955 40.6771 60.2927 41.104 59.8466 41.1913C59.8466 41.5392 59.8466 42.1462 59.8466 42.6414C59.9475 42.6468 60.0485 42.655 60.1508 42.6673C60.4809 42.8487 60.5546 43.0288 60.5955 43.292C60.6814 43.8418 60.635 44.547 60.6746 45.0913C60.6637 45.5728 60.3895 45.8688 60.099 46.0147C60.073 46.027 59.9776 46.0366 59.8562 46.0407C59.8562 46.5181 59.8562 46.9969 59.8562 47.4757C60.144 47.4907 60.3486 47.5507 60.4891 47.8467C60.6992 48.2928 60.6651 49.7101 60.5614 50.2516C60.5041 50.5544 60.2749 50.7386 60.0308 50.83C59.9475 50.8723 59.2914 50.8886 59.1768 50.8573C58.9436 50.7904 58.7935 50.7031 58.6953 50.5694C58.3079 50.0429 58.3529 48.1782 58.6803 47.7376C58.7772 47.6066 58.904 47.5221 59.0732 47.5016C59.1496 47.492 59.2273 47.4852 59.3051 47.4798C59.3051 46.9996 59.3051 46.5208 59.3051 46.0407C59.2109 46.0379 59.1359 46.0311 59.1073 46.0229C58.8726 45.9574 58.724 45.8701 58.6257 45.7351C58.5262 45.6014 58.4389 45.4227 58.4416 45.169C58.4484 44.6766 58.4771 44.0164 58.4416 43.4939C58.5303 43.0356 58.5766 42.8541 58.9968 42.6768C59.0704 42.6673 59.2219 42.6509 59.2982 42.6468V41.0918C59.2887 41.0863 59.2778 41.0808 59.2682 41.0754C59.2369 41.0563 59.2791 40.9485 59.2491 40.9267C59.2314 40.9144 59.1987 40.909 59.1646 40.9049C59.1646 40.9062 59.1646 40.9062 59.1632 40.9062C59.1618 40.9049 59.1605 40.9049 59.1577 40.9049C59.1482 40.9049 59.02 40.8844 59.02 40.8858C59.0159 40.9444 59.0445 41.0099 58.9968 41.0522C58.9872 41.0576 58.9777 41.0645 58.9681 41.0727C58.8754 41.1122 58.6435 41.2377 58.3625 41.5842C58.3338 41.6033 58.3065 41.6224 58.2765 41.6415C57.4267 42.198 56.5182 42.6414 55.6943 42.9496C55.5006 43.0219 55.3028 43.0724 55.1105 43.1201C54.1229 43.367 53.2853 43.5335 52.7711 43.6549C52.4533 43.7285 52.2282 43.7217 52.1532 43.7272V38.5545ZM59.8562 47.934C59.8562 47.9872 59.8562 48.039 59.8562 48.0922C59.8562 48.3678 59.3051 48.3555 59.3051 48.1059C59.3051 48.0541 59.3051 48.0022 59.3051 47.949C59.2355 47.9545 59.1727 47.9395 59.125 47.9449C58.8181 47.9681 58.7608 49.9406 59.0159 50.3157C59.1782 50.4958 60.0539 50.564 60.1549 50.2202C60.2899 49.7646 60.339 48.1536 60.0526 47.9463C59.998 47.9395 59.9312 47.9354 59.8562 47.934ZM59.8466 43.1011C59.8466 43.1201 59.8466 43.1379 59.8466 43.1556C59.8139 43.3998 59.2723 43.3902 59.2982 43.1693V43.1161C59.2068 43.0983 59.0513 43.1024 59.0295 43.1311C58.7799 43.3029 58.8699 44.5593 58.8658 44.8348C58.8631 44.9862 58.8795 45.4091 58.9449 45.4827C58.9981 45.54 59.1373 45.5864 59.3051 45.611C59.3051 45.6055 59.3051 45.6014 59.3051 45.596C59.3051 45.2468 59.8562 45.1881 59.8562 45.5946C59.8562 45.5987 59.8562 45.6041 59.8562 45.6082C60.0348 45.5755 60.1576 45.5059 60.1917 45.3859C60.2395 45.2249 60.2899 45.0149 60.2763 44.798C60.2599 44.517 60.2476 44.1473 60.2545 43.8922C60.234 43.6194 60.2872 43.2825 60.0526 43.1133C59.9967 43.1065 59.9257 43.1011 59.8466 43.1011Z" fill="#C92B2F"/>
<path fill-rule="evenodd" clip-rule="evenodd" d="M36.1143 52.5665C41.5242 52.5665 46.9356 52.5665 52.3496 52.5665C52.7193 52.6128 52.7684 52.7806 52.8816 52.9252C52.8816 53.3767 52.8816 53.8296 52.8816 54.2839C52.7957 54.2839 52.707 54.2852 52.6197 54.2852C52.4929 54.2866 52.321 54.1515 52.1941 54.1515C46.9083 54.172 41.8953 54.1611 36.6135 54.1843C36.5276 54.1843 36.2139 54.3534 36.1279 54.3534C35.9942 54.3548 35.8592 54.3548 35.7255 54.3548C35.7187 54.0861 35.5577 52.5665 36.1143 52.5665Z" fill="#C92B2F"/>
<path fill-rule="evenodd" clip-rule="evenodd" d="M35.454 35.8537H43.4612V37.8521H35.454V35.8537ZM42.505 36.0774H42.7096V37.6283H42.505V36.0774Z" fill="#C92B2F"/>
<path fill-rule="evenodd" clip-rule="evenodd" d="M35.454 33.5129H43.4612V35.5113H35.454V33.5129ZM42.505 33.7366H42.7096V35.2862H42.505V33.7366Z" fill="#C92B2F"/>
<path fill-rule="evenodd" clip-rule="evenodd" d="M35.454 31.1721H43.4612V33.1691H35.454V31.1721ZM42.505 31.3958H42.7096V32.9468H42.505V31.3958Z" fill="#C92B2F"/>
<path fill-rule="evenodd" clip-rule="evenodd" d="M46.3708 26.8043V37.8165H43.9864C43.9864 34.1622 43.9864 30.5064 43.9864 26.8507C43.9864 26.335 46.1498 26.2327 46.3708 26.8043Z" fill="#C92B2F"/>
<path fill-rule="evenodd" clip-rule="evenodd" d="M48.6993 27.5355V37.8166H46.7173C46.7173 34.4037 46.7173 30.9921 46.7173 27.5778C46.7173 27.0976 48.5165 27.0008 48.6993 27.5355Z" fill="#C92B2F"/>
<path fill-rule="evenodd" clip-rule="evenodd" d="M50.3349 29.0687L55.7544 37.4783L53.9347 38.6528C52.1355 35.8605 50.3363 33.0695 48.537 30.2773C48.2833 29.8844 49.8847 28.7399 50.3349 29.0687Z" fill="#C92B2F"/>
<path fill-rule="evenodd" clip-rule="evenodd" d="M26.7511 60.279H61.077C60.9324 60.4905 60.7837 60.7005 60.6337 60.9065C60.545 61.0279 60.455 61.1493 60.365 61.2693C60.3418 61.2994 60.3199 61.3294 60.2968 61.3594C60.2395 61.4344 60.1835 61.5081 60.1262 61.5817H27.7005C27.6582 61.5258 27.6146 61.4699 27.5709 61.4126C27.5205 61.3457 27.47 61.2789 27.4182 61.2107C27.3486 61.1179 27.2804 61.0252 27.2108 60.9297C27.0553 60.7155 26.9025 60.4986 26.7511 60.279Z" fill="#C92B2F"/>
<path fill-rule="evenodd" clip-rule="evenodd" d="M42.299 30.9771C41.5119 30.9771 40.7235 30.9471 39.9364 30.9362C39.1916 30.9362 38.4495 30.9362 37.7088 30.9362C37.5165 30.7916 37.4087 30.722 37.3473 30.5652C37.3337 30.5283 37.3228 30.5338 37.3637 30.5311C40.4206 30.2678 40.6539 30.2555 40.6416 30.1941C38.5477 30.1259 36.6667 30.3333 34.7119 30.9853C34.2945 31.0822 33.8594 31.2063 33.4256 31.1967C33.6193 30.6252 33.8989 30.5297 33.9508 29.8272C36.3202 29.332 38.5846 28.9405 41.0686 29.0988C41.943 27.7074 44.3328 28.6186 43.3002 30.4451C42.9728 30.8284 42.7819 30.8475 42.299 30.9771ZM41.7711 30.4247C41.8584 30.2623 42.0739 30.1614 42.1748 29.9895C42.2335 29.98 42.2908 29.9691 42.3481 29.965C42.2908 29.4739 42.2662 29.5312 42.093 29.1479C43.0588 29.3266 42.8937 29.894 42.3508 30.246C42.1026 30.4069 42.0043 30.3728 41.7711 30.4247Z" fill="#C92B2F"/>
<path fill-rule="evenodd" clip-rule="evenodd" d="M29.6662 56.6096C30.0536 55.5593 36.0351 39.3075 36.0037 39.3225L36.7253 39.6485C36.7253 39.6485 36.7853 39.6131 36.6012 40.2065C36.417 40.7998 34.4418 46.3039 34.4418 46.3039L30.6306 56.9752L29.6662 56.6096Z" fill="#C92B2F"/>
<path fill-rule="evenodd" clip-rule="evenodd" d="M30.7628 56.6983C31.3221 56.9193 31.8527 57.1307 32.2661 57.2971C32.2729 57.3544 32.2783 57.4117 32.2851 57.469C32.3438 57.5686 32.352 57.6818 32.4407 57.7432C32.5866 57.8469 32.8035 57.8782 32.7558 57.9955C32.4693 58.7062 32.1815 59.4156 31.8937 60.1262C31.8568 60.2204 31.6495 60.1085 31.4626 60.0826C31.3767 60.0717 31.3112 60.1153 31.2389 60.1399C31.1857 60.1726 31.1311 60.2054 31.0779 60.2381C29.9785 59.7934 28.0537 59.0418 26.9543 58.5971C26.9475 58.5466 26.942 58.4962 26.9352 58.4457C26.9106 58.3884 26.9065 58.2902 26.8656 58.252C26.6897 58.0842 26.3786 58.1129 26.4537 57.926C26.7388 57.2235 27.0225 56.5196 27.3076 55.8171C27.3471 55.7175 27.5436 55.8062 27.7345 55.8348C27.8205 55.8471 27.9078 55.8103 27.9746 55.8035C28.0251 55.7653 28.0933 55.6971 28.1438 55.6575C28.5953 55.8416 29.1873 56.0749 29.8039 56.3191L30.7628 56.6983Z" fill="#C92B2F"/>
<path fill-rule="evenodd" clip-rule="evenodd" d="M33.3165 54.5485H55.2646V59.7061H33.3165V54.5485ZM39.579 55.3301H38.8015C38.6964 55.8621 38.3404 56.1267 37.732 56.1267V56.8456H38.5477V58.8863H39.579V55.3301ZM42.6673 58.207C42.2908 58.2574 42.0903 58.121 42.0644 57.7977C42.0644 57.5004 42.2267 57.3517 42.5513 57.3517C42.8487 57.364 43.0042 57.514 43.0179 57.7977C43.0179 58.0446 42.9005 58.1797 42.6673 58.207ZM42.5322 56.7883C42.2458 56.7747 42.0971 56.6519 42.0848 56.4173C42.0971 56.1731 42.2526 56.0422 42.5513 56.0299C42.8242 56.0422 42.966 56.1731 42.9783 56.4173C42.966 56.6519 42.816 56.7747 42.5322 56.7883ZM41.5978 57.0598C41.1968 57.2153 41.0031 57.4745 41.0154 57.8373C41.0413 58.5371 41.5542 58.8999 42.5513 58.9258C43.5103 58.8999 44.0082 58.5371 44.0464 57.8373C44.0464 57.4608 43.8527 57.1894 43.4639 57.0202C43.7749 56.9043 43.9304 56.6642 43.9304 56.3013C43.8786 55.693 43.4257 55.3697 42.5704 55.3301C41.651 55.3697 41.1709 55.6984 41.1327 56.3218C41.119 56.6587 41.2759 56.9043 41.5978 57.0598ZM46.1075 57.0202C45.8347 57.0079 45.6928 56.8524 45.6792 56.5537C45.6928 56.2427 45.8415 56.0817 46.1266 56.0695C46.4117 56.0954 46.5672 56.2427 46.5931 56.5155C46.5931 56.8265 46.4308 56.9957 46.1075 57.0202ZM44.7271 58.0324C44.843 58.6271 45.3163 58.9258 46.1457 58.9258C47.1306 58.8999 47.6407 58.3106 47.6803 57.1566C47.6803 55.9399 47.1374 55.3301 46.0489 55.3301C45.1281 55.356 44.6561 55.7707 44.6302 56.5742C44.6957 57.2862 45.0899 57.6613 45.8156 57.7009C46.1266 57.7145 46.4035 57.6286 46.6504 57.4499C46.6504 57.9792 46.469 58.2452 46.1075 58.2452C45.8865 58.2452 45.7433 58.1538 45.6792 57.9724L44.7271 58.0324ZM49.8574 57.2739C50.1411 57.2862 50.2912 57.4431 50.3048 57.7391C50.2912 58.0515 50.1357 58.2124 49.8383 58.2261C49.5532 58.2002 49.3963 58.0446 49.3718 57.7596C49.3841 57.4349 49.5464 57.2739 49.8574 57.2739ZM51.2365 56.2631C51.1205 55.6411 50.6472 55.3301 49.8192 55.3301C48.8343 55.3697 48.3214 55.9712 48.2832 57.1375C48.2832 58.3297 48.8343 58.9258 49.9351 58.9258C50.8409 58.8999 51.3088 58.4975 51.3333 57.72C51.2692 57.0079 50.8736 56.6328 50.1479 56.5933C49.8383 56.581 49.5655 56.6642 49.3322 56.8456C49.3199 56.315 49.4945 56.0422 49.8574 56.0299C50.077 56.0299 50.2202 56.1267 50.2844 56.3218L51.2365 56.2631Z" fill="#C92B2F"/>
<path fill-rule="evenodd" clip-rule="evenodd" d="M59.1017 7.88306C58.5342 7.65253 57.8631 7.48338 57.473 7.99901C57.0733 8.63467 56.8823 9.22396 57.1074 9.41902C57.2411 9.56907 57.8904 9.91418 58.6788 10.2907L58.5329 10.6126L58.1318 10.4203C57.0965 10.0997 56.2057 10.6849 55.1622 11.828C54.4897 12.1404 53.4994 11.6316 53.9577 11.0546C54.5156 10.9318 54.813 10.7163 54.9753 10.2893C55.124 9.53088 55.1881 8.77926 55.6124 8.52827C57.1415 8.00037 56.8851 7.04278 56.1675 6.4003C55.5537 5.94469 54.9467 5.87921 55.0476 6.46168C55.2386 7.03323 55.5769 7.71528 54.6807 7.61706L52.1639 6.86545C51.4505 6.61855 51.0004 7.59933 51.9293 8.01947C52.434 8.2159 53.0029 8.24591 53.4503 8.31547C54.0819 8.36867 54.0368 8.97569 53.2839 8.85565L51.4628 8.69878C50.8353 8.66332 50.4888 9.59772 51.7711 9.70411C52.3317 9.74913 52.9374 9.61272 53.5103 9.46949C54.0082 9.46404 54.0696 9.85553 53.7258 10.1052C53.3603 10.3084 52.8651 10.3425 52.2935 10.3466C51.5856 10.3084 51.0181 10.4898 51.085 11.2183L50.5148 12.7365C50.1656 13.6572 50.4888 14.1197 51.0768 14.0174L52.7437 14.4061C56.1785 15.0213 58.1523 16.028 59.4441 18.2829C59.8424 18.9035 60.7945 19.0249 60.7468 18.156C60.6377 17.7536 60.4153 17.3839 60.092 17.0033C60.7331 16.058 61.2733 15.0309 61.583 14.0174C62.0345 12.5714 61.0346 11.9753 60.5108 11.5565L59.9815 11.3042L60.1411 10.9577C61.0278 11.3478 61.8217 11.6643 62.0495 11.7107C62.5242 11.8171 62.7002 11.3083 62.9825 10.4939C63.2049 9.84598 62.5678 9.51587 61.5516 8.98251L59.1017 7.88306ZM59.5982 11.9003C59.4073 11.7666 59.32 11.9167 59.2654 12.1554C59.2367 12.3682 59.6855 12.6205 59.9065 12.6846C60.1875 12.4241 59.8178 12.0967 59.5982 11.9003ZM57.7253 11.1828C57.5889 11.1964 57.4239 11.1951 57.4771 11.4993C57.5412 11.6766 58.0118 11.8212 58.0964 11.6248C58.2 11.3628 58.005 11.2333 57.7253 11.1828ZM58.9544 13.3599C58.9271 13.0025 59.515 13.2194 59.781 13.4567C59.9283 13.604 60.2257 13.8564 60.1643 14.0501C59.9188 14.5425 59.0553 13.9751 58.9544 13.3599ZM56.8578 12.1336C56.6995 12.1131 56.5618 12.2113 56.5359 12.5237C56.5577 12.7447 57.2711 13.0434 57.5425 12.8879C58.0636 12.5128 57.1156 12.1881 56.8578 12.1336ZM58.3474 14.3911C57.9559 14.2452 57.5071 14.6544 57.6148 15.2696C57.7444 15.6324 58.4974 15.8302 58.8807 16.0335C59.2299 16.0826 59.5478 15.5711 59.4891 15.2205C59.3159 14.9722 58.7539 14.683 58.3474 14.3911ZM55.4814 13.5004C55.1404 13.8196 55.2672 14.1115 55.596 14.4157C55.8511 14.6162 56.2398 14.7185 56.574 14.6298C56.8387 14.4798 56.9846 14.001 56.8687 13.7636C56.7077 13.4431 55.9138 13.1102 55.4814 13.5004ZM53.8963 12.7665C53.5676 12.7187 53.3589 12.9206 53.3425 13.2453C53.3398 13.574 53.7026 13.7909 54.0409 13.619C54.3588 13.3667 54.4324 12.9425 53.8963 12.7665ZM52.0153 11.8321L51.5733 12.9957C51.6415 13.3544 52.1408 13.3353 52.2322 13.098L52.6796 11.9426C52.6646 11.5184 52.2144 11.4774 52.0153 11.8321ZM58.7648 8.71242C58.4197 8.6183 58.2641 8.95523 58.3733 9.26351C58.5083 9.46813 60.3676 10.1911 61.3388 10.6058C61.9144 10.5294 61.6716 10.026 61.1492 9.78869L58.7648 8.71242Z" fill="#C92B2F"/>
<path fill-rule="evenodd" clip-rule="evenodd" d="M24.3108 11.9917C22.708 12.5401 22.8267 14.1102 24.7064 12.963C25.7499 12.3109 26.818 11.6957 27.8847 11.1583L27.8834 11.161C28.1385 11.2729 28.2599 11.4993 28.2872 11.7394C26.7785 12.993 25.0324 14.8331 24.5427 17.9883C24.4131 18.8995 25.6913 19.7002 25.9737 18.2283C26.1114 15.6816 27.4087 13.8905 28.4017 12.8879C29.1656 12.3068 30.2269 11.6384 31.7697 11.8458C33.5744 11.9031 34.5251 12.9275 35.8974 13.9151C36.6176 14.1961 37.3433 13.4199 36.293 12.3791C34.8716 11.0764 32.1134 10.3466 29.5871 10.9605C29.5871 10.9605 29.3484 10.6467 29.5026 10.4094H29.4998C30.6307 9.93333 31.7437 9.57048 32.8036 9.37133C34.1827 9.27311 34.4201 7.98132 32.82 8.03588C31.6728 8.03725 28.8573 10.4503 28.3062 8.91436C27.8452 7.63894 26.2492 7.95404 27.3036 9.51592C28.0839 10.6304 25.6736 11.1883 24.3108 11.9917Z" fill="#C92B2F"/>
<path fill-rule="evenodd" clip-rule="evenodd" d="M7.65664 27.1194C7.73303 26.8971 8.06178 26.2409 8.2623 26.1605C8.55694 26.0609 8.90205 26.2109 8.50783 26.8043C7.84216 27.8451 8.45327 28.7454 8.75746 27.8124C8.97026 26.6597 9.77098 26.2614 9.61547 27.3759C9.47088 28.017 9.66731 28.3621 9.92239 28.0347C10.0643 27.927 10.1666 27.3281 10.3971 27.1644C11.0587 26.8439 11.0532 27.871 10.5458 28.699C10.1707 29.512 9.29764 29.572 8.2432 29.0701C7.31426 28.5735 7.41656 27.9297 7.65664 27.1194ZM16.4168 25.2356C16.3663 23.6996 17.7891 24.8809 17.6281 25.5343C17.4112 26.4824 17.0156 27.3431 16.571 27.9815C17.0006 28.5394 17.1998 29.1996 16.9584 29.8858C16.5805 30.7206 15.7866 30.8529 15.8766 30.2404C16.2436 29.3388 15.7279 29.0796 15.2505 29.5079C14.9163 29.8462 14.5712 30.7424 13.7841 30.7083C12.8047 30.5774 13.6764 29.643 13.9669 29.2556L14.1183 29.1328C13.9451 29.2242 13.7009 29.246 13.3272 29.1042C12.6547 28.7604 13.023 27.736 13.4499 26.8657C13.9178 25.9177 14.2861 25.2015 14.769 25.0937C15.8439 25.0828 15.9135 25.949 15.5984 26.702C15.8998 27.9392 16.5532 26.1523 16.4168 25.2356ZM14.3107 28.9773L14.3134 28.9746C14.8604 28.9937 15.3842 28.1575 14.8672 28.0865L14.5125 28.6827C14.4566 28.7713 14.3952 28.8818 14.3107 28.9773ZM13.9805 27.088C13.8551 27.4318 13.7023 27.7878 13.851 27.9297C14.1879 28.1943 14.593 27.5 14.8658 26.7593C15.0459 25.6448 14.3884 26.17 13.9805 27.088ZM12.1854 32.7545C13.1239 33.6288 13.5413 32.5744 12.7065 31.7491C11.2578 29.703 12.2836 27.8806 13.1075 26.2791C14.0528 24.7009 15.4579 23.1063 17.3062 23.5196C18.8749 23.8742 18.924 22.236 17.5886 22.2169C15.5793 21.9441 14.4743 23.1745 13.1607 25.0678L12.877 24.8809L13.5959 23.6928C13.8114 23.1022 13.9737 22.341 13.023 21.423C12.435 20.9074 11.7803 20.5418 11.2128 20.9865C10.7245 21.5267 10.4148 22.2046 10.1625 22.8703C10.1625 22.9467 10.172 23.0012 10.1925 23.0381L9.99332 23.1513C9.83782 23.2781 9.5459 23.4323 9.51453 23.7842C9.57046 24.0639 9.69732 24.1962 9.62502 24.5617L9.16805 25.181C8.8775 25.5493 8.96344 25.9763 9.38221 25.8726C9.73278 25.7171 9.92375 25.7703 10.0643 25.8876L10.1816 26.346C10.2348 26.6829 10.3644 26.833 10.8459 26.5056C11.1187 26.4278 11.5989 26.6379 11.8812 27.0376C10.7804 29.0373 10.4844 31.0766 12.1854 32.7545ZM12.7365 25.6858L12.405 26.1768C12.3191 26.3064 12.2345 26.4387 12.1527 26.571C11.4515 25.8767 12.3041 25.3952 12.7365 25.6858ZM12.405 24.5727C12.1786 24.8305 11.6125 24.9928 11.4706 24.4867C11.5238 23.7774 11.1091 23.6151 10.8241 24.1716C10.6522 24.3899 10.247 24.248 10.3357 23.7692L10.6385 22.9439C10.7804 22.8512 10.9414 22.7352 11.0928 22.6507C11.4856 21.824 12.2154 21.6576 11.9358 22.5838C11.7189 23.1145 11.9576 23.7747 12.3518 23.2972C12.7351 22.8048 13.1184 22.9276 12.967 23.4323C12.6751 23.9179 12.5564 24.2275 12.405 24.5727Z" fill="#C92B2F"/>
<path fill-rule="evenodd" clip-rule="evenodd" d="M78.5304 25.8944C79.9204 25.2438 79.2793 23.922 77.7447 24.5331C76.9562 24.5686 74.6946 22.6602 73.7929 21.8308C73.1436 21.0438 72.1738 21.5566 72.9363 22.4297C73.9798 23.5278 75.4408 24.6286 76.8703 25.2274C77.33 25.4293 77.6301 26.0786 77.506 26.5915C77.2768 28.0565 77.6124 30.7915 77.8606 31.64C78.0393 32.2961 79.2288 32.453 78.9601 31.5786C78.4404 29.7275 78.454 26.3446 78.5304 25.8944Z" fill="#C92B2F"/>
<path fill-rule="evenodd" clip-rule="evenodd" d="M75.1845 24.5195C74.2542 24.2549 73.5885 23.9357 72.7537 23.1554C72.0771 22.5866 71.3282 22.9986 72.1249 23.9957C73.0565 24.967 74.4138 25.4253 75.3878 25.6026C76.0766 25.5794 76.0548 24.7678 75.1845 24.5195Z" fill="#C92B2F"/>
<path fill-rule="evenodd" clip-rule="evenodd" d="M77.2386 28.197C76.9399 29.1164 76.8362 29.8476 77.0204 30.9757C77.1172 31.8528 76.3588 32.247 75.9714 31.0303C75.6836 29.7153 76.0587 28.3335 76.4516 27.425C76.8526 26.8657 77.5169 27.3349 77.2386 28.197Z" fill="#C92B2F"/>
<path fill-rule="evenodd" clip-rule="evenodd" d="M75.0152 25.5248C74.1763 27.0212 75.2894 28.0702 76.2647 27.8997L75.936 29.1942C75.625 28.7932 75.0002 28.0347 74.7901 29.2447C74.7178 30.6947 74.5882 32.6795 74.0494 33.5688C73.4397 34.36 72.5394 33.9576 72.8463 33.0546C73.2746 31.6359 73.7275 30.2896 73.707 28.6022C73.6552 28.0607 73.572 27.4127 72.613 26.9189C71.4945 26.4033 70.3664 25.9286 69.1851 25.458C68.0515 24.9178 68.7118 23.9616 69.4115 24.203C70.586 24.6027 71.7223 25.2138 72.6403 25.9231C73.6307 26.6543 73.662 25.724 73.7602 25.106L75.0152 25.5248Z" fill="#C92B2F"/>
<path fill-rule="evenodd" clip-rule="evenodd" d="M75.5773 24.4758C75.4681 24.5945 75.2922 24.5563 75.063 24.484L75.0152 25.5248L75.5404 25.5821C75.9101 25.4743 76.1625 25.2342 76.2893 24.9573L75.5773 24.4758Z" fill="#C92B2F"/>
<path fill-rule="evenodd" clip-rule="evenodd" d="M77.4815 27.0021C77.2469 27.1221 76.7135 27.0212 76.4516 27.425L77.1869 28.3594C77.3315 28.1411 77.3342 27.9679 77.4979 27.8765L77.4815 27.0021Z" fill="#C92B2F"/>
</svg>
