<?xml version="1.0" encoding="UTF-8"?><svg id="b" xmlns="http://www.w3.org/2000/svg" viewBox="0 0 114.6127 114.6154"><g id="c"><path d="M40.8547,51.2934c.1443-.4912.3399-.5763.7274-.8631l1.6186-1.4063c1.0074-.8991,3.2559-2.3712,4.7304-2.7043,5.3708-1.2137,8.028,5.5917,13.5457,4.1225,2.1469-.5718,4.0161-2.9373,7.5206-4.4901,1.4536-.644,3.6439-.8941,4.8668.0057-.2883.5536-1.1721,1.1058-1.7172,1.5018-1.1277.8189-4.3135,3.6771-5.0392,4.5544-1.4284,1.7277-3.1175,3.4356-3.7431,5.8487-.2733,1.0542-.2209,1.5347-.6982,2.5024-.7007,1.4208-1.904,2.816-2.8789,3.604-1.7906,1.4479-1.76,1.4049-3.7253,2.6722-.6655.4289-4.517,2.5801-5.4947,2.5787-.5504-.0008-.6406-.3719-.915-.6732-.4507-.495-1.3365-1.0205-1.5046-1.6954.2302-.3881.7481-.6517,1.1418-1.0197,1.6393-1.5315,3.9013-3.8673,4.3138-6.2353.7395-4.2466-5.9605-6.4437-9.3895-7.3933-.3663-.1015-3.0892-.7172-3.3594-.9097h0ZM57.3118,36.1451c-.7965-.3266-2.061-2.1751-4.4637-3.2933-4.1629-1.9372-8.3628-2.2652-12.6731-.3379-3.0079,1.345-4.648,2.867-6.3006,5.2812-.6236.9111-.9221,1.3493-1.3476,2.5435-1.0077,2.827-1.3478,3.0008-1.2194,6.4611.142,3.8378,1.61,6.8649,4.0014,9.5567.3123.3515.6655.5405.8747.9873-.5717.75-1.2138,1.288-1.8076,2.0435-1.7521,2.228-2.9982,5.5182-3.0878,8.5011-.0808,2.6799.2585,4.4087,1.237,6.5494,1.4859,3.2505,2.7715,4.5346,5.2608,6.3216,2.4778,1.7784,5.7439,2.7927,8.9847,2.6073,3.57-.2044,5.9786-1.2036,8.5221-3.1485.3824-.2922.6307-.5972,1.0205-.8795.9612-.696.4807-.9638,1.0743-.8575.3575.064.0904-.0785.3113.2551.2313.3492,1.4524,1.3581,1.7781,1.5928.8246.5947,1.3286,1.0119,2.3834,1.508,1.7581.8263,3.8707,1.4947,6.099,1.5874,3.9923.1661,8.4283-1.732,11.0149-4.4181,2.9696-3.0838,4.3608-6.5863,4.3532-11.1189-.0057-3.1725-1.3805-6.1903-3.1238-8.5439-.2387-.3226-.6146-.7458-.8807-1.0199-1.2807-1.3189-1.2277-.7418.007-2.0406.3277-.345.5613-.5987.8734-1.0265.538-.737,1.0874-1.4907,1.5248-2.3663,1.9459-3.8965,2.1492-8.7137.3475-12.7009-1.2359-2.7352-2.9534-4.7594-5.2651-6.3204-4.7063-3.1777-9.9125-3.4419-15.1007-.9959-.9383.4422-2.7604,1.6864-3.4141,2.3766-.3945.4164-.3849.5956-.9839.8955Z" fill="#007dc3" fill-rule="evenodd" stroke="#007dc3" stroke-miterlimit="22.9256" stroke-width=".216"/><path d="M3.6911,59.2452c-.5425-11.8982,2.8276-22.1179,8.6678-31.4703,1.7388-2.7844,5.108-6.8862,7.5594-9.2072,2.2882-2.1665,3.1629-2.8091,5.4825-4.6312,1.2354-.9703,2.6042-1.7674,3.9733-2.6805,1.2221-.8146,2.9285-1.6812,4.3592-2.3833,13.9603-6.8511,29.7473-7.1842,44.1351-1.3848,3.3795,1.3624,8.0371,3.9289,10.7623,6.0041,1.1506.8765,2.7944,2.0631,3.7664,2.9755.6214.5831,1.1344,1.0058,1.7541,1.6163l2.4562,2.4687c.3997.3807.5465.5094.8473.8822l2.2595,2.7555c6.7929,8.9286,10.7501,18.8448,11.2362,30.7911.5321,13.0759-3.7672,25.5682-11.484,35.3548-1.127,1.4295-1.9542,2.2811-3.1493,3.5915-3.3828,3.7097-6.8774,6.319-11.0562,8.9978-7.0396,4.5127-16.6992,7.4177-25.8358,7.7938-8.4467.3475-15.7488-1.2838-22.6644-4.0419-2.1459-.8558-6.8545-3.2287-8.767-4.6315l-1.999-1.3712c-2.2865-1.6021-3.5391-2.7782-5.5432-4.57-2.8907-2.5852-5.3821-5.8277-7.6566-9.0232-.4731-.6647-.847-1.3598-1.3111-2.0597-.8662-1.3056-1.6132-2.8834-2.3865-4.3548-1.4768-2.8103-2.7456-6.4463-3.6479-9.7555-1.0003-3.6697-1.5752-7.6512-1.7583-11.6662h0ZM54.209.0892c-12.9679.7504-24.0281,5.3221-33.3969,13.0607-.6574.5428-1.3164,1.0454-1.9488,1.6829-.5868.591-1.2374,1.0922-1.8522,1.6917l-3.4429,3.7293C4.2325,31.3866-.7037,45.3537.0812,60.3688c.4771,9.1256,3.1952,17.8838,7.2167,24.9489.7696,1.3521,1.8661,3.1918,2.761,4.4138.5108.6979.947,1.4204,1.5134,2.1163,1.2685,1.5599,1.6787,2.2233,3.2612,3.9127.6214.6633,1.1138,1.2118,1.7181,1.8249.6185.6268,1.2592,1.1623,1.8491,1.7788.3299.345.5904.5043.9116.8178.3923.3829.5825.5389.947.8699,1.4814,1.3459,4.5162,3.4257,6.1725,4.5448,2.641,1.7842,6.1616,3.5544,9.4643,4.8819,16.1303,6.4836,34.4925,5.2917,49.4884-3.1941,3.1864-1.8031,7.7215-4.936,10.4102-7.4835,2.0483-1.9406,4.231-4.206,6.046-6.3984l3.7709-5.22c6.2499-10.089,9.5823-21.2099,8.9176-33.9511-.5349-10.2506-3.6715-19.2631-8.5675-27.2154-.968-1.5727-1.8757-2.8188-2.9333-4.2378-1.5054-2.0194-3.2076-3.9762-4.9504-5.7688-.6123-.6298-1.205-1.1849-1.8714-1.7597l-1.863-1.6787c-.1822-.1556-.2874-.2101-.4796-.3864-1.0956-1.006-4.5771-3.4758-5.684-4.1669-2.8848-1.8011-5.9012-3.4234-9.4652-4.8869C71.6285,1.2205,62.8411-.4102,54.209.0892Z" fill="#007dc3" fill-rule="evenodd" stroke-width="0"/><path d="M54.8304,21.4474c9.0499-.6757,17.1893,2.0821,24.1308,7.1592,1.5207,1.112,4.8381,4.1902,5.7767,5.4593.1848.2503.3039.3653.5182.6066,1.1318,1.2739,3.1277,4.3835,3.9945,6.1183,6.3519,12.7131,5.1177,26.8906-3.2408,38.1631-.1579.2129-.3186.4354-.4808.6443l-1.0034,1.2424c-2.9087,3.2003-6.0829,5.9956-10.6881,8.4147-8.8852,4.6675-20.0576,5.3198-29.4723,1.6041-7.3245-2.8908-12.0561-6.9052-16.4166-12.7962-.3274-.4422-.6165-.8671-.9099-1.3359-.6027-.963-1.0965-1.8068-1.6475-2.8474-4.6304-8.7435-5.3969-20.2487-1.6336-29.522,1.9933-4.9122,5.1868-9.974,9.0878-13.3829.3907-.3413.8082-.7061,1.1923-1.0537.4331-.392.8002-.6786,1.2365-1.0122,5.6146-4.2951,11.9083-6.8908,19.5562-7.4617h0ZM95.8806,59.8504c1.4445-22.089-15.6382-39.8801-35.9719-41.112-8.7985-.5332-17.7934,1.8961-24.63,6.8048-.2579.1851-.4839.3226-.7177.4932-.2345.1713-.4286.3586-.6803.5281-.9207.62-1.7462,1.4602-2.5872,2.1666-.8986.7545-1.6722,1.5207-2.4322,2.41-.7727.9045-1.4164,1.5335-2.2183,2.6209-1.414,1.9176-2.5382,3.5966-3.7506,5.9306-2.2501,4.3317-3.7845,9.4652-4.1615,15.0809-.8272,12.3225,4.248,22.2415,9.9924,28.5667l5.0289,4.648c1.8256,1.2764,3.71,2.6657,5.9429,3.7409,4.7463,2.2858,9.0153,3.7193,15.1101,4.1624,5.839.4243,11.7671-.6778,16.6087-2.5776,1.1648-.4569,2.2839-.9493,3.348-1.4919,1.8323-.9343,4.4578-2.5202,5.948-3.7343,2.8389-2.3122,4.9977-4.1987,7.2388-7.1943,4.5088-6.0276,7.3973-12.8691,7.9319-21.043Z" fill="#007dc3" fill-rule="evenodd" stroke-width="0"/><path d="M29.2823,96.6866c-.1531-.233-.1607-.1369-.2806-.4482.2372-.2421,1.0241-.4512,1.4887-.6341.6526-.2565,1.1926-.4402,1.4392.3257-.6157.3132-1.7346.8175-2.6473.7566h0ZM29.1304,94.6887c-.3359-.0113-1.5616.1545-1.1265.5916.1499.1508.8254-.0144,1.0125-.2018.2271-.2273.1454.0096.114-.3898h0ZM26.955,94.0175c.1092.1701.2058.2474.1596.5533-.3058.142-.4648.1828-.7741.0445-.0473-.2778.0176-.3781.2021-.6262l.4124.0284h0ZM29.7837,93.4208c.3099-.3056.6585-.7067,1.1433-.2075-.0531.3146.0022.0306-.11.3022-.2798.6769-.4964.5547-.8501.4674l-.1832-.5621h0ZM31.785,94.6609c.2268-.6902.1998-.2667.0249-.9779l-.0053-.0901c-.0187-.5154.9728.5414,1.4085-.12.4405-.7659-.7231-1.3186-1.2101-1.5715-.9522-.4952-1.118-.8572-1.8337-1.0171-.387-.0864-1.0197-.2335-1.0131.2325.0107.7614.2627.3994-.3079,1.0321-.5882.6525-.5644,1.2702-1.8023.7313l-.1238-.9986c-.0374-.2126-.004-.2081-.0179-.322-.0442-.3629-.5125-.6296-.8773-.3359-.6834.5496-.5618,1.4867-.8379,2.4525-.3019,1.0559-.2707,2.0313.7775,2.1883.7214.1078.6474.3172,1.1509.4853.4303.144.2735-.0258.5839.2846.1443.1443.2407.2625.3365.4683-.1846.2203-.1877.1417-.4125.3458.0638.0536.0562.0516.1792.1191.9442.5184,1.3068.5236,2.0208.1392,1.6951-.9122,1.5696-.1086,2.4749-.3768.5208-.1542,1.1095-1.0712-.007-1.743-.3538-.2126-.7183-.2871-.5083-.9261Z" fill="#007dc3" fill-rule="evenodd" stroke-width="0"/><path d="M81.4449,96.0272c-.1573-.2284-.2668-.6599.2338-.589l-.2338.589h0ZM81.8959,94.8718c.0555-.0399.0737-.0527.0748-.0535l-.0748.0535h0ZM83.2999,93.4678c-.1341-.1252-.11-.1085-.2189-.2562.1633-.1451.1653-.0927.4023-.1491.0011.1446.0391.1307-.0278.2749-.076.1639-.0173.036-.1556.1304h0ZM82.1915,93.2652c-.2928-.2588-.3322-.438-.1582-.8921.2855.2273.3498.4771.1582.8921h0ZM83.9799,90.2312c-.5868.0298-.4706.7716-.923,1.5052-.1692.2742-.1488.3243-.4529.2183-.5616-.3229.4946-1.2572-1.0044-2.092-.3721.3391-.3364.4561-.1011.944.2279.4719.1295.5437.2446,1.0094-.7407.4371-.5582-.1599-1.1843.1735-.2209.6128.2534.9717.5873,1.4139.3237.4292.7906.7067.8039,1.372-.3257-.0326-.5218-.1834-.5984-.4575-.2134-.7646.0505-.7538-.8988-.7161l-.4525.0255c-.0093-.0198-.0428.0108-.0601.0236-.2242.3019.2058.2868.6704.898l.4675.4793c.21.5485-1.0131,1.8252.0028,2.7357.6123-.1125.6523-1.0253.9714-1.5871.2296-.4039.1069.1528.4374-.862.1213-.373.2532-.5859.5715-.7087-.0077.8677-1.1438,2.7051.2149,2.3528.1732-.771.2131-1.5644.9306-1.7921-.0074.4969-.1919.6183-.0771.8816.1567.36.2894.4326-.0204.7963-.3286.3855-1.0222.5703-.9392,1.2795.2931.0142.9278-.1956,1.0846-.4498.0467-.0754.1312-.618.8538-.7833.9995,1.9041-.7659,2.1547-1.2184,3.0637.3615.2075.9304-.2395,1.1685-.4297.3044-.2432.7115-.5496,1.0015-.8141.731-.6667.1034-2.0866-.398-2.6204l.5811-.7398c.1885-.1205.7923-.2339.5043-.714-.3532-.5894-.9735.8138-1.5852.4835-.1369-.1162-.1355.1225-.0192-.6213.0578-.3697.1017-.6446-.2713-.6766-.4935-.0428-.5125.3441-.7747.6786-.1891.2409-.2265.1615-.4071.4549l-.3617.5369c-.1287-.2299-.0017-.445.0808-.731.2098-.7271.4643-1.4673,1.0519-1.5299.4955-.0527.317.0618.7518-.2092.4104-.2554,1.3008-.7271,1.3521-1.1568-.1825-.1559-.284-.241-.6701-.1525-.4535.104-.2545.2883-1.0446.6939-.646.3317-.5096.1086-.5488.0655-.3738-.5156-.0274-1.6829-.3214-2.2417Z" fill="#007dc3" fill-rule="evenodd" stroke-width="0"/><path d="M39.0082,100.9564c-.2106-.1658-.2471-.167-.3455-.487l.7722.1406-.4267.3464h0ZM40.7229,98.9177c.0224-.1006-.0193-.2114.3305-.3591.2166-.0916.2844-.0547.4337.0142-.0119.2588-.0161.3302-.2851.4084-.2886.0837-.2982.0559-.4791-.0635h0ZM36.3054,102.3114c2.1385.083,2.3329-.8935,2.9256.2525.1676.3238.2787.4729.5106.6999.2211.2169.4164.3558.6346.5749.3436.3455.2288.5077.7974.4634.1273-.4847-.0564-.5349-.2335-.8512-.3569-.6372-.0692-.1987-.6095-.5117-.2733-.1581-.7336-.8852-.8824-1.3419.5703-.3257,1.4046.3232,1.6617-.5624,1.0927.1681.7741.6815,1.3115.8552.5023.1625.9505-.4544.9066-.9844-.3938-.3762-.3283-.214-.8612-.2894-1.2163-.173-1.1588-.4269-1.6449-.5962-.2628-.0915-.6248-.1735-.8765-.2508-.0372-.542.2693-.6075.6239-.7589.1635.243.0408.1109.1477.387.4192.1165,1.2061.1482,1.6642.1326.1709-.341.4816-.6497.4311-1.2348-.3027-.0935-.6213-.119-.8268-.3282l.2146-.1559c.3087-.1732.1559-.0099.5709-.3617.0371-.4638-.2299-1.4066-.4984-1.4661-.3764-.0836-1.7093,2.0098-2.6365,2.0313.0655-.4691.3663-.3291.4451-.8504.064-.4238-.0922-.7951-.4014-.9255-.3022.1758-.6452.9828-.8691,1.2926-.3753.5193-.9961.4456-1.0188,1.141.3132.2749.758.3208,1.2155.1431-.1154.8476-1.057.517-1.6897.3912-.381-.0757-.5675-.0508-.9443-.1783-.4345-.1469-.3866-.241-.756-.4079-.5796-.0553-1.4689,1.2489.4349,1.1812,1.8266-.0652,1.4635.6619,1.684,1.0581.1775.3189.2175.1687.3138.5843-1.6656.6638-2.1619.0796-2.6008-.0751-.9442.551.1299.9144.8561.9425Z" fill="#007dc3" fill-rule="evenodd" stroke-width="0"/><path d="M61.6693,104.9575c.6519.0782.7798.3135,1.0794.6713-.1165.3242-.2466.4799-.5102.6188l-.5692-1.2901h0ZM63.9673,105.364c-.5726-.3351-.095-.6471.3345-.7129-.0167.1244-.0445.2738-.0802.3866-.1605.5069.0706.1551-.2543.3263h0ZM62.3541,104.4422c.0768-.326.3044-.2994.6633-.4224-.0108.4453-.2925.6367-.6633.4224h0ZM63.8312,103.6196l.4658-.042-.1245.805c-.0048.0012-.2165.0358-.2205.0358-.1389-.0003-.1307-.0312-.2245-.0584l.1037-.7404h0ZM61.6367,103.6686c.0025.3501.0328.542.2817.7897.1384-.3104.5077-.818.8051-1.046-.006-.3934.1097-.564-.0528-.8271-.049.0643-.0601.0598-.119.1803-.0865.1769-.1089.371-.2631.525-.1644.1644-.4677.2744-.6519.3781h0ZM63.8128,101.711c.239.0683.2038.0499.3861.2319-.1585.2327-.1585.2216-.5723.2613l.1862-.4932h0ZM63.9523,100.6406c.1119-.9405.7886-.3308.8121-1.04.0156-.4652-.7622-.6063-1.1707-.4569-.2069.0756-1.0055.5513-1.1563.6633-1.0904.8084-.7758.3143-1.1812.5802.235.7943.6736.3634,1.3771.4881l-.0669.4559-.8107.14c-.1749.4575-.2058.5561-.7271.739-.273-.2577-.0193-.4833-.862-.4417-.1752.4853-.275.4048-.2905,1.0335-.0102.4003-.0227.8082.121,1.1339l.5451-.0025c.3844-.4853.1582-1.8723,1.0259-1.5835.2573.3047.297.8204.0547,1.1361-.364.4737-.2724.2362-.5091.9723-.2002.6225.2279,1.0197.6647,2.069.5148.0477.7758-.0036,1.2039-.1326.7973.9626.051.699,1.5959,1.0771.2772.0681.7937.1849,1.0729.1231.3226-.0712.597-.4108.3523-.69-.1743-.1522-1.0352.059-1.4196.0196-.4135-.0423-.8302-.4598-.9113-.923.9986.0278,1.0687-.1414,1.2733-1.006.1497-.6321.3047-1.2498.2378-1.9409-.5244-.011-1.521.4246-1.5536-.1681-.0247-.4456.5488-.3243,1.2336-.7211-.0241-.4606-.8572-1.2056.9984-1.4159-.2055.7211-.5976.3605-.7767.8478.269.1786,2.702.1109,2.4894-1.1999-.4451-.2764-.9873-.1287-1.5426-.0187-1.2209.2424-.5386.0737-1.3734-.1304-.4485.2092-.1035.3269-.7064.3923Z" fill="#007dc3" fill-rule="evenodd" stroke-width="0"/><path d="M76.7405,97.4797c-.3501-1.2433-2.0548,1.0313-2.4038.9159-.2171-.4833-.0391-.8915-.0794-1.4153-.3883-.3586-.96-.603-1.5667-.4077-.0637.4556.6546,1.7884.6957,2.63l-1.9653,1.3575c-.0088,1.9392,1.5072-.087,2.0497-.1854.239,3.3761-1.3504,3.2766-1.5196,3.7418-.0167.4453.0371.4892.3138.6862.6899.0244,1.5009-1.0233,1.72-1.6565.3365-.9715.3155-1.8017.4179-2.8715.2537-.0298,1.7362.7228,2.1931.8813.4757.1649,2.4735.646,2.6649.0745.3061-.9156-1.6634-.8118-2.257-.9102-.8739-.1448-1.5363-.6403-2.139-.9714.4417-.8606,2.1662-.8385,1.8757-1.8692Z" fill="#007dc3" fill-rule="evenodd" stroke-width="0"/><path d="M49.4173,103.7582c.0182-.5023-.0226-.2566.4887-.4128.2019-.0615.3629-.1641.6463-.161-.136.794-.7679.7597-1.135.5738h0ZM48.601,103.2108c.0076-.1868.028-.2971.1034-.4535.1219-.2532.0896-.2129.3101-.262.2251.3603-.0394.6673-.4135.7155h0ZM48.9281,101.2419c.2925.0603.2662-.019.21.3067-.3143.0085-.3072-.0406-.21-.3067h0ZM50.3236,101.2515c-.0978.2602-.0454.167-.1942.3166-.195-.1318-.2636-.1278-.2259-.46.3158.0258.2639.0198.4201.1434h0ZM50.3973,99.4526c.2378.1574.2052.0168.1613.3966-.3844-.038-.4281-.1939-.1613-.3966h0ZM50.5827,104.2075c.0938-.3663.0329-.5324.2041-.8439.2386-.4337.2517-.1692.0765-.6321.0524-.0332.1641-.0978.2001-.127.1775-.1446.0046.0269.1466-.1531-.2977-.0116-.413.0315-.6441-.0762.1443-.5565.2634.0541.8425-1.0372-.7353-.8779-.089-.9851.0621-1.2966-.104-.2194-.1123-.1554-.1542-.2146-.093-.1315-.0831-.0397-.1548-.248.398-.3362.5273-.3507.0312-.7645-.7027-.5871-.4235-.6166-1.8153.1199-.4142.2188-.6951.0337-1.0939.3614.3314.3277.4524.1616.8609.3484-.5242.4957-.4068-.006-.8303.3846-.5151.4751.1658.1571-.9411.4337-.0533.5619.0595.3983.3095.7393.1959.2667.256.6681.0539.7393-.0119.0045-.0411.0224-.0564.0263-.3552.0944-.7719-.2446-.8342.2464-.0661.5204.7219.3359,1.0885.2917.1284.2973.407.4663.1108.8818-.197.2761-.4535.2435-.8456.2753-.498.0405-.5485.1468-.9587.2625-.4697.1323-.5589.045-.4487.5544.8045.341,2.1022-.9476,3.1244-.9771.197.7951-.4244.978-1.3575,1.5653-.4632.2914-.5471.0269-.7371.3328.1506.2693-.0479.0663.2702.2066.991.4371.7826-.3271,2.3802-1.1341.4108-.2075.6968-.1369,1.1104-.2653Z" fill="#007dc3" fill-rule="evenodd" stroke-width="0"/><path d="M15.9957,74.8799l.5769,1.3573c-.4212.0674-1.9018.2279-2.2022.123l1.6253-1.4803h0ZM11.3447,68.9008c-.2109.1015-.3104-.2398-.0202.8056.0437.1571.0734.3269.1219.4856.1401.4578-.0119.2455.2551.3611.4584-.4048-.5391-.54,1.2787-1.0187.6109-.161,1.3706-.4079,1.9752-.5046l-2.9571,3.1728.288,1.1274c.1457.3866-.0357.1916.2534.2922l.0516-.1389c.0043-.019.0151-.0496.0193-.0734l.0238-.4147c.4952-.2432,3.5453-1.1206,4.1185-1.0126.3827.6472.3705.8428-.1097,1.3051l-3.0728,2.9849.1778.5335c.6134.0005,4.5941-.3923,5.0028-.1633.3056.1715.1089.3645.4334.1352.0695-.0785-.2766-.8427-.3546-1.0054-.2211-.4621-.0102-.2469-.326-.2826-.1899.3628.2897.5527-.3551.659-.2838.0468-.9122.0675-1.2065.0581l-.7109-1.6772c.3047-.2546.7991-.7521,1.1489-.9134.4501.2449-.0099.3201.5187.3045-.0028-.3521-.4668-1.2544-.6227-1.6073-.1276-.2883-.1905-.5317-.2733-.8523-.1006-.3895-.0439-.6798-.4008-.6931-.3674.7625.7903.4388-1.7119,1.1117-.5255.1415-1.7543.5383-2.2297.5565l3.2768-3.3956c.2376-.2458.3382-.3045.2007-.7804-.7234.0986-2.8797.769-3.8622,1.0179-.9842.2494-.6216-.2319-.9311-.3776Z" fill="#007dc3" fill-rule="evenodd" stroke-width="0"/><path d="M53.3153,104.9484c-.3425-.0598-.076-.0093-.3663-.1981-.6185-.402-.3061-.1165-.3047-1.2569.6483.078.8813.7773.671,1.455h0ZM53.224,101.8567c-.0414.2996-.0354.2426-.2645.3631-.1012-.1468-.1292-.1925-.142-.4694l.4065.1063h0ZM53.4941,102.8074c.4116-.767.622-.5513,1.0894-1.089.1675-.1928.362-.4198.5272-.5939.1304-.1375.1642-.1375.2761-.2415.3215-.2985.1259.0317.2254-.328-2.1745-.4283-1.9749.9114-2.7576.4071-.2914-.188-.2466-.3524-.6429-.4794-1.2061,2.1365-.7251,1.5818-.6267,2.0909l-.3971,4.6445c-.0649.7787-.5942.8575.0737,1.1781,1.0125-.3699.6962-2.5942,1.1236-3.2371.4065.1241.1681.3636.5111.6806.205.1893.557.3333.881.1913.2662-.1792.0885.0125.2517-.3654.3354-.7767.5698-.8079-.104-2.1506-.2177-.434-.3138-.4179-.4309-.7076Z" fill="#007dc3" fill-rule="evenodd" stroke-width="0"/><path d="M16.6242,81.9246c.0074-.0181.0102-.0692.0105-.0584l.0059-.1885c-.0099-.1525-.049-.1627-.0462-.4195.4609-.309,1.2342-.7146,1.8097-1.0225,1.0221-.5468,2.8808-2.0112,1.9882.8615-.1605.5167-.3833,1.3512-.5922,1.798l-2.3743-.1959c-.466-.1701-.2038-.4008-.5774-.22-.0054.0153-.0065.0264-.0059.0488.0056.2208.0484.2579.2043.4697.142.193.2305.3002.3722.5012.6852.9722.328-.0964.3456-.2705l1.8927.0562-.5656,1.8198c-.4731-.157-.1196-.0663-.4569-.3155l-.1783.1536c.1604.315.3328.5332.5576.8442.1567.2171.4272.8186.6463.5539.1919-.1857-.1024-.017-.0329-.6307l.7778-2.3051c.6027-.0176,1.2266.0773,1.8173.1227.2444.019.6477.0286.8541.1032.4116.1491.25.3163.5448.2769.2086-.3719-.7696-1.3518-.8677-1.3878-.3957.5536,1.1225.7809-2.2555.4929l.6642-2.1152c.6037.0944.1672.2106.4852.2376.4261.036-.386-.8873-.648-1.3077l-.8109-1.5253c-.1616-.2951-.1143-.3192-.3646-.3529-.2798.3841.3209.3744-.1468.7872-.1273.1122-3.1533,1.8518-3.4206,1.832-.2174-.0162-1.2359-1.1667-.2092.6661.4303.7682.2931.7532.5766.69Z" fill="#007dc3" fill-rule="evenodd" stroke-width="0"/><path d="M100.5297,37.5788c.0091-.0062.0278.006.0278.017,0,.0046.0116.0071.0113.0068-.0023-.0014-.1749.0664-.0391-.0238h0ZM100.6969,37.0306c-.7319.2965-3.2374,1.4689-3.9109,1.4689-.2268-.2327-.1242-.3447-.4065-.4303-.0972.1361-.1213-.1105-.0564.3067.002.0117.1156.3082.1193.3172.1503.3544.366,1.1126.5729,1.0299.2197-.0879.0094-.2878.0819-.6866.3756-.2443,2.9381-1.3017,3.4458-1.4082l-2.5582,2.393c-.7076.5998-.7509.4685-.618.9555.8671.1897,3.4486-.1295,4.5601-.0842l-3.1229,1.3428c-.8382.2974-.453-.3481-.8918-.3141-.1389.2849.1905.8754.3948,1.3935.1205.3048.1061.3119.3198.381.1151-.1752.0414-.4031.0431-.5802.3404-.2957,3.3786-1.573,3.9744-1.5897.2316.2968.0431.3438.385.4042.1349-.1788.127.0303.0315-.3308-.006-.0224-.1466-.3512-.156-.373-.1218-.288-.206-.4876-.282-.779l-4.1902.14c.2033-.3894,2.6677-2.4159,3.0368-2.8431-.0981-.3353-.4034-1.4267-.7297-1.4448-.2021.252.0465.1967-.0428.7313Z" fill="#007dc3" fill-rule="evenodd" stroke-width="0"/><path d="M97.1344,31.5019l.0331.0238c-.0025-.0017-.0436-.0153-.0331-.0238h0ZM97.2613,30.9407c-.4835.3276-1.2257.7098-1.7903,1.0338-.4992.2863-1.3765.9504-1.98.9235-.131-.182-.1931-.4949-.398-.2945-.1142.1119-.1216.0501.1692.5419.1389.235.4748.9052.6854,1.0069.2623-.3022-.0158-.1556.0216-.76.2724-.212,2.844-1.7356,3.1836-1.8218-.1029.3331-.4521.6214-.6832.887l-1.8258,2.2379c-.8008.9159.5301.546.9791.4655l3.5002-.5987c-.5969.4141-1.309.7991-1.9666,1.1713-.3413.193-.6503.3773-.9896.5714-.1656.0947-.3305.2146-.5139.146-.5488-.2049.11-.3821-.565-.2698.0355.2415.7453,1.4536.807,1.5125.1613.1542-.0022.0749.2251.1304l.0343-.3064c-.0105-.2058-.0686-.04-.0221-.3946.8175-.5371,1.8252-1.0814,2.7159-1.5973,1.491-.8637.8719.1196,1.3683-.089.2214-.0933-.1089-.5077-.1956-.663-.1264-.2268-.2696-.4916-.4434-.6954l-4.0348.6815c.2571-.665,2.1249-2.4543,2.5546-3.2593-.1032-.2574-.2376-.4646-.3847-.7274-.1919-.3427-.2282-.6335-.595-.5218.025.2917.131.2197.1437.6894Z" fill="#007dc3" fill-rule="evenodd" stroke-width="0"/><path d="M66.1301,14.3002c-1.2991,1.1313-2.9582-.493-2.0284-1.6799.1947-.2483.9669-.917,1.4388-.1547.1619.2613.5465,1.4896.5896,1.8346h0ZM65.2148,10.3407c-.2639.167-.5289.4476-.3367.9695.1292.3506.5935.5278.9878.3095.6767-.3744.2056-1.821-.6511-1.279h0ZM64.7638,11.7938c-.54.2851-.9374.2823-1.288.7194-.3473.4328-.3915,1.1205-.1262,1.6279.214.4094.622.7223,1.2359.8465.8663.1751,1.1231-.1015,1.7255-.3286.3084.4536.826,1.1722,1.7045.6656.8382-.4836.2497-1.9896-.296-1.4199-.5091.487.434.256.1636,1.1143-1.0313.3067-1.0471-.7778-.991-.9045.0779-.1775.3696-.4079.8016-1.4448l.6775-.0649c-.0218-.3362.2336-.2296-.7537-.3952-.2869-.0479-.6486-.1712-.8688-.07.0181.3753.0878.2129.479.3716.0496.4853-.2183.9479-.4946,1.1818-.1418-.2625-.2268-.6293-.3858-.9077-.2146-.3759-.4162-.4535-.6503-.7503,1.6404-.5,1.0729-1.8346.2032-2.0855-.6301-.1814-1.2089.0576-1.4575.4176-.4411.6378.106,1.1333.3211,1.4267Z" fill="#007dc3" fill-rule="evenodd" stroke-width="0"/><path d="M13.0463,40.6859c.2112-.8479.6857-2.3386,1.7456-1.9358,1.1211.4258.2826,1.7864.0005,2.6107l-1.7461-.6749h0ZM12.2807,41.7704c.396-.0093.1624-.0275.4263-.3991.5505-.0088,3.5507,1.2733,3.9569,1.5506.0292.4807-.152.405.0323.6497.2574-.0584.1689-.0159.3019-.351l.4272-1.0573c.1394-.362.1632-.2792-.0553-.4297-.2194.1037-.1931.233-.2934.4249-.6381.0051-1.3414-.4601-1.9528-.6307.1613-.8184.3563-.6659,1.9361-1.1098,1.1548-.3248,1.1148-.106,1.4334-.8957.046-.1134.1871-.4162.0916-.5094-.2747-.2687.0054.2531-1.271.6398-.4675.1414-1.2.4178-1.6478.4804.6106-2.4834-1.3142-2.5415-2.0053-1.7186-.2673.318-1.5397,3.0447-1.3801,3.3559Z" fill="#007dc3" fill-rule="evenodd" stroke-width="0"/><path d="M9.774,56.9046c.3784-.1434.0439.0692.2185-.3002.1826-.3864.1885-.3464,1.1625-.358.7143-.0085,1.455-.0468,2.1657-.0232l-2.6742,1.7336c-.3651.2106-.6228.4303-.9536.5967.0057.5987-.0916,1.4085.1675,1.55.3246-.1494.0321-.0459.2648-.589l3.8047-.1117c.7574.0638.2545.4328.6842.6182.0159-.0173.0338-.0717.0383-.0595.0045.0125.0289-.0457.0343-.0621.0978-.2917.0561-.3648.0488-.7407-.0068-.3441.0501-.6344-.1214-.8447-.2826.0932-.1287.1247-.3302.5865-.5712.1105-3.3744.1635-3.9699.0864l3.9475-2.5143c.3699-.2154.392-.1369.4088-.5981-.1106-.0737-.0369-.0533-.2311-.0964-.7747-.1723-4.0254.2764-4.3798-.0992-.1882-.1998-.0436-.3161-.2854-.4603l-.1389.3926c-.0301.2653-.0179,1.1009.1389,1.2934Z" fill="#007dc3" fill-rule="evenodd" stroke-width="0"/><path d="M85.194,18.0728c-.1545.4413.176.1063.2324.5641.0286.2299-2.3301,3.2034-2.4797,3.255-.5752.197-.271-.3214-.7282-.0652.1014.3991,2.0023,1.7427,2.3825,2.0052.305.2107.5828.4867.8881.6758l1.1545-.6735c.3172-.2506.212-.0184.1942-.341-.3753-.2764-.889.5474-1.9193.0198-.3819-.1956-1.1983-.8226-1.3921-1.0882.1235-.3036.9379-1.3646,1.1846-1.5619.2298.0922.748.5636.8104.7467.2216.6511-.4867.4969-.1174.9776.3396-.1148,1.2694-1.4261,1.4293-1.6928-.0987-.0884-.1063-.0901-.2206-.1735-.1023.0712-.6704.9882-1.6492-.1976.2648-.4796.7685-.9167,1.0143-1.4076.3018.106,1.629,1.0508,1.7932,1.6276.1675.5882-.1146.6613.0515.9984.2705.0051.1962.216.4252-.5324.0831-.2713.1718-.4918.2152-.8044-.2276-.1092-.6055-.3997-.8175-.5692l-1.9959-1.5526c-.1548-.1165-.2752-.2557-.4555-.2103Z" fill="#007dc3" fill-rule="evenodd" stroke-width="0"/><path d="M11.8716,43.0134c-.1315.4065-1.1477,3.4552-1.0057,3.9087.0051.0162.017.0462.0317.0655.1917-.0831.0723.0062.1936-.1692.0658-.0953.0805-.1942.1185-.2929.2597-.0175,3.9391.8312,4.1091,1.2028.1046.229-.0425.3297.0734.5476.3192-.047.1344.1718.2948-.3118l1.0296-3.7859c-.288-.1194-.4059-.2262-.684-.4402-.1296-.0998-.5301-.5157-.7262-.2954-.2781.3124.6165.4266.7012,1.455.0491.5973-.2735,1.4803-.4322,1.9913-.5613,0-1.4089-.3489-1.9576-.4671.0388-.2432.0756-.4261.1454-.65.371-1.1962.9983.0045,1.1959-.809-.4068-.1083-1.8538-.6568-2.1342-.4975-.0249.4453-.1273.1367.284.3821.5364.3201.398.8969.1225,1.4134l-1.696-.4499c-.0122-.3311.2906-1.9363,1.033-2.355.4623-.2605.7024-.0093.703-.4601-.2563-.1445-1.0562-.0099-1.3998.0176Z" fill="#007dc3" fill-rule="evenodd" stroke-width="0"/><path d="M95.4055,78.0332c.5049.1366.1542-.6248,1.0083-.157l3.0523,1.7399-5.2092.2282-.1939.3823c.2753.1523,3.7814,2.0271,3.894,2.2522.1428.2857.038.1122.0317.3296-.0096.3445-.1805.0692.0493.3493.2319-.0768.1576-.0301.4088-.4955.1103-.2044.5329-.7203.4428-.9275-.1228-.2815-.2444-.0213-.2481-.0193-.2814.1624-.1471.3997-.6919.1687-.3804-.1613-2.2467-1.2082-2.4956-1.4267l4.2596-.1749.6282-1.0145c.2307-.47.0969-.2849-.0128-.402-.1928-.0794-.1777.1877-.4921.3495-.3813-.0878-1.7507-.9034-2.1543-1.1347-.3487-.1995-.6718-.3552-1.0539-.589-.7144-.4371-.1568-.559-.3581-.9272-.3245.0025-.3931.3551-.5343.6199-.157.2945-.4263.5919-.3308.8487Z" fill="#007dc3" fill-rule="evenodd" stroke-width="0"/><path d="M76.679,13.263c-.1273.3225.0845.2415.3342.5187-.0235.6171-1.4811,3.0033-1.7816,3.7344-.074.0085-1.3765-.1647-.462.3211.6542.3476,3.0605,1.6081,3.4591,1.715l1.0876-1.1699c.0009-.0124-.0008-.0431-.007-.0632-.0842-.0329-.0352-.0524-.201-.0229-.3013.0535-.6503.631-1.6427.4064-.4796-.1085-1.1968-.5383-1.6106-.7208.0864-.6707.6131-1.2631.8152-1.8678.9541.2379,1.1137.6112.989,1.1699-.1057.4725.0933.5873.3572.0964l.7299-1.4522c.0317-.3637.0765-.1185-.1049-.2962-.3617.1162-.2764.5062-.7653.5363-.3728.023-.7759-.2767-.9839-.4258.1992-.432.5411-1.2166.8271-1.584.6137.2648,1.7427.6869,2.0123,1.3184.3303.7733-.155.6874.3121.9383.2429-.167.1769-.2242.2197-.5865.03-.254.0607-.4961.0731-.7503-.4515-.3963-1.2226-.6738-1.8181-.9811-.3674-.1899-1.5809-.9249-1.8394-.8342Z" fill="#007dc3" fill-rule="evenodd" stroke-width="0"/><path d="M98.7033,73.0386c1.2266-.3436,2.4018.4631,2.8398,1.095.6914.9981.0465,2.3706-.9428,2.5608-1.3283.2557-2.4134-.5366-2.8579-1.1792-.7194-1.04-.0037-2.2065.9609-2.4766h0ZM98.9533,72.3421c-3.3267.8966-1.9366,5.8856,1.3831,5.0312,3.2794-.8442,1.9851-5.9389-1.3831-5.0312Z" fill="#007dc3" fill-rule="evenodd" stroke-width="0"/><path d="M99.9234,49.0512c-.0902.2191-.0046.5131.0362.8138.0179.1321.0326.3561.0539.4692.0972.5207-.011.2815.2554.3852l.1406-.5947c.4669-.1936,3.2786-.5596,3.9833-.6112-.0964.1304-.7784.7096-.9772.8632l-2.1843,1.7935c-.1851.1596-.328.2874-.5193.43-.5545.413-.3918.7115.2534.6185.2429-.0349.4552-.0717.6928-.1054.5088-.072,3.0336-.5559,3.3429-.3272.1219.0899.068.0905.1425.1917.1534.2072-.0068.142.2248.2355.1534-.1973.04.0726.0845-.2072l-.0658-.6916c-.1403-1.0248-.0391-.6713-.278-.7662-.4088.5017.3781.5864-1.4227.8393-.5451.0765-1.495.2653-1.9877.2418.3257-.1639,2.5807-2.2717,3.3318-2.6938-.0192-.3206-.0637-.5782-.102-.8892-.0556-.4538.0397-.6568-.3379-.652-.3183.7745.7651.5256-2.2036.9442-.4663.0658-.9171.1361-1.3604.1954-1.3025.174-.4541-.4289-1.1032-.4828Z" fill="#007dc3" fill-rule="evenodd" stroke-width="0"/><path d="M28.6544,19.6531c1.1024-.3044,2.0872.8711,2.3964,1.5466.5505,1.2036.0871,2.3848-1.0289,2.6328-2.1445.4762-4.0998-3.4242-1.3675-4.1794h0ZM28.7261,19.2083c-1.1505.2651-2.3638,1.5747-1.9397,3.1513.3053,1.1356,1.599,2.3774,3.1779,1.9367,1.1554-.3226,2.3162-1.5962,1.8544-3.1766-.3364-1.1517-1.5052-2.2773-3.0926-1.9114Z" fill="#007dc3" fill-rule="evenodd" stroke-width="0"/><path d="M42.5575,13.7817c-.2939-2.7785,3.3863-3.1263,3.6278.0831.2115,2.8119-3.3058,2.9605-3.6278-.0831h0ZM43.9045,11.2353c-1.2557.2622-2.3729,1.4485-2.0523,3.0513.2588,1.2934,1.4196,2.4006,3.0612,2.052,3.3086-.7033,2.2759-5.7901-1.0089-5.1033Z" fill="#007dc3" fill-rule="evenodd" stroke-width="0"/><path d="M95.2065,28.8209c-.6389,2.5878-4.7239,2.7278-4.1791.0184.1774-.8832,1.2217-1.8314,2.1861-1.9709,1.1837-.1712,2.2632.8583,1.993,1.9525h0ZM92.6959,26.3012c-3.6037.7268-2.3882,5.8133.9031,5.1055,1.1789-.2537,2.3737-1.5117,2.0713-3.0901-.2163-1.1273-1.5296-2.3065-2.9744-2.0154Z" fill="#007dc3" fill-rule="evenodd" stroke-width="0"/><path d="M16.0312,34.124c-.7243.2148-1.6648,1.6194-1.0177,2.683.2206.3622.8107.6448,1.4256.4118.7804-.2953,1.5854-1.6557,2.2107-1.8592.7132-.2324,1.0539.3118,1.0145.9825-.0623,1.0587-1.0542,1.5026-2.0259,1.5576l-.4419.0831c.0008.4121-.1993.1508.2656.3415l1.4856.3901c-.0399-.4249-.0805-.2537-.2539-.5587,2.6804-1.3915,1.2132-5.0298-1.1546-2.865-.3767.3444-.6449.6968-1.031,1.0429-.4529.4065-1.1273.3784-1.2486-.2855-.2954-1.6177,1.976-1.7223,2.1966-1.8683.0005-.4028.2432-.1893-.9658-.5077-.7968-.21-.6741-.0947-.4592.4519Z" fill="#007dc3" fill-rule="evenodd" stroke-width="0"/><path d="M50.1379,10.2237c-2.6881-.6968-3.5337,1.5338-2.1849,2.285.4606.2568,1.0992.278,1.6591.3362,2.4432.2542,1.3005,1.5397.7685,1.7858-1.442.6661-2.3551-1.0284-2.6232-1.0562-.1865.1531-.2024-.0332-.0828.4031.0879.3203.4278,1.2509.6483,1.3768.2871-.1956.0856-.133.2594-.4658.6477.1848.8472.4031,1.6673.2109.6163-.1445.9309-.4195,1.2022-.7809.6196-.8255.3756-1.8598-1.3666-2.1178-.5134-.0759-1.2869-.0904-1.7221-.2747-1.2841-.5439.4369-2.4139,2.1025-.8917.2849.2602.2339.4634.5426.3466.18-.1423.159-.1017-.1679-.8067-.2573-.5553-.1564-.5621-.443-.6928-.3042.1908-.0598.0516-.2594.3422Z" fill="#007dc3" fill-rule="evenodd" stroke-width="0"/><path d="M56.316,12.5305l.2614,1.8085c.593-.1001.1063-.0683.4754-.4212,1.222,1.2376,4.0566.1499,3.2136-1.5341-.4116-.8221-2.2212-.9542-2.8596-1.3765-.5125-.3391-.4425-.9857.1253-1.2411.7322-.3291,1.6597.0485,2.1022.7416.1664.2602.2253.5632.4898.4181.1516-.1219.1661.1142-.0439-.7818-.0993-.4224-.0582-.5431-.2617-.7741-.4255.1184-.0323.1224-.4756.286-.6676-.7824-2.4908-.377-2.8222.4813-.7767,2.0103,2.9046,1.7269,3.1881,2.7247.1735.6105-.3597,1.0698-.8603,1.1636-.8853.1661-1.7164-.4669-2.0092-1.0675-.1871-.3844-.066-.5083-.5233-.4275Z" fill="#007dc3" fill-rule="evenodd" stroke-width="0"/><path d="M94.6844,82.2211c.1973-.0014.1386.0286.2874-.0737-.0102-.311-.0419-.2537-.4192-.4178-.2169-.0941-.4006-.1681-.6021-.2636-.8734-.4142-.7175-.3048-.4822.3787-2.6949.7049-1.9239,4.9311.7841,2.9333.2253-.1664.3773-.2543.5955-.4423.6415-.5519,1.7048-1.1279,1.7771-.0164.0581.8941-.8326,1.4491-1.5599,1.5228-.2466.0252-.6557-.0326-.8612.1108.0153.3753-.1522.1477.2718.3473.1205.0564.2622.0884.3856.134.3092.1146.5003.216.8535.2566l.0039-.5383c2.1388-1.0367,1.5066-3.6556-.2392-3.0884-.451.1466-.8677.5689-1.1736.8144-.2962.2376-.8461.7648-1.3841.7305-.6075-.0388-.779-.6381-.6012-1.2455.403-1.378,1.8754-1.139,2.3638-1.1424Z" fill="#007dc3" fill-rule="evenodd" stroke-width="0"/><path d="M38.161,13.9546c.1797-.1627.9652-.4909,1.2274-.5462.9431-.1982,2.4735,1.4692-.3892,2.4188-.2299-.3773-.6985-1.4417-.8382-1.8726h0ZM36.8519,14.3002c.7353.3024.1446-1.0891,1.3476,1.4794.2018.4305.9207,1.9196.9349,2.3238-.309.2965-.5241.1803-.3047.5105.1346.0669.6173-.2021.8716-.316.7469-.3342.7722-.2041.8226-.5403-.2591-.1619-.2211.0272-.6599-.0159-.2129-.3631-.5771-1.1069-.6973-1.563.5743-.2237,1.4275-.5942,1.7759-.9613.521-.549.4533-1.5307-.0935-2.0015-.6616-.5703-1.4828-.263-2.2065.0468l-1.4386.6361c-.4232.1786-.3784.0646-.3521.4014Z" fill="#007dc3" fill-rule="evenodd" stroke-width="0"/><path d="M104.2748,47.1412c.2166.3297.0244.3923.4023.4094.1097-.1965-.1542-.9885-.254-1.2844-.144-.4283-.0173-.2549-.2648-.3181-.3682.4856.286.576-.7557.8734-1.6245.4632-2.9466,1.1341-3.668-.0941-.2413-.4105-.2665-.9536-.0519-1.3811.1868-.3724.5494-.5471,1.0332-.695.4865-.1491,2.2221-.6971,2.6275-.6596.2415.3163.14.5839.4555.3699.0978-.0987-.2251-1.0676-.3144-1.3734-.1051-.362-.0226-.3243-.2769-.4204-.4076.4876.5442.5034-.9573.9366-1.8329.5289-3.4222.642-3.1785,2.5965.1304,1.0446.8723,1.8975,2.0387,1.7935.955-.0853,2.2428-.7946,3.1643-.7532Z" fill="#007dc3" fill-rule="evenodd" stroke-width="0"/><path d="M10.1198,62.4032l.1381-.5998c.6695-.1848,3.4245-.7741,4.0393.0034.2024.2557.411.7336.3603,1.2116-.1429,1.3453-1.739,1.2424-3.3848,1.4575-1.2524.1642-.4709-.3427-1.0664-.5025-.1239.2644.0419,1.7841.259,1.9244.3345-.1573.0346.0541.2146-.631,1.9046-.464,4.6381.1468,4.4368-2.4707-.0734-.955-.7118-1.7433-1.6268-1.8249-1.0261-.0916-2.2867.3827-3.3103.2653-.1522-.2874-.0388-.3985-.3192-.5003-.1953.2035-.1165.0142-.106.4062.0029.1091.0479.3546.0624.4686.0164.1304.0312.379.053.4887.0672.3333.0147.261.25.3035Z" fill="#007dc3" fill-rule="evenodd" stroke-width="0"/><path d="M102.3614,64.0896l.1599-1.491,1.9644.9479-2.1243.5431h0ZM100.4418,62.2187c.3107-.1015.1211-.095.3663-.4343.4135.0182.9663.4227,1.3733.5664-.1224,2.2306-.1247,1.7736-1.6925,2.1336-.1573-.4405.0796-.4011-.22-.5754-.2055.1086-.1307-.1392-.2387.792l-.0207.9746c.2549-.0695.0652.0087.2328-.146.269-.2489.0317-.254.8484-.4465.7543-.178,3.7516-.8359,4.0694-.9975l.0726-.6103c-.2569-.0938-3.9065-1.9244-4.2154-2.2127-.3751-.3501-.0083-.3821-.4026-.5338-.1797.199-.1366.2968-.1814.669l-.0493.606c.0349.2776.0028.1046.0578.2149Z" fill="#007dc3" fill-rule="evenodd" stroke-width="0"/><path d="M90.2878,27.1788c-.4269-.2716-1.7529.229-2.4142-1.0012-.514-.9561-.0236-2.0758.4966-2.6002,1.3586-1.37,3.6768-.5406,3.2003,1.3898-.1468.595-.2517.6262-.0023.7149.2512.0893.2875-.2282.5015-.6511.1579-.3127.341-.5457.413-.8799-.3005-.1369-.1468-.0652-.4975.0012-.4314-2.2794-3.5869-2.3854-4.6856-.4352-1.4001,2.4857,1.574,4.2171,2.8102,3.7545.3229-.1204.1987.0508.178-.2928Z" fill="#007dc3" fill-rule="evenodd" stroke-width="0"/><path d="M101.8447,60.9267c.1049-.4453-.0899-.1162-.6372-1.065-.7209-1.2489.0034-2.9806,2.0891-2.8755,2.0378.1027,2.8565,2.4662.9283,3.3639-.7132.3319-.3855.5278.0151.4578.3112-.0544,1.1137-.246,1.3356-.4391-.064-.1814-.0617-.1068-.1445-.2299-.0989-.1474-.0658-.0011-.1177-.1746,1.3028-1.9655-.7718-4.3475-3.0489-3.6536-2.9713.9057-1.5015,4.7574-.4198,4.616Z" fill="#007dc3" fill-rule="evenodd" stroke-width="0"/><path d="M30.4799,17.7576c.1341.4354.1806.0527.7351.0921.6307.9179,1.1863,1.9403,1.8331,2.9103.1381.2072.3796.4975.1959.7651-.0485.0706-.6307.6026.0295.3844l1.1455-.6806c.3991-.2687.2089-.0502.2568-.3909l-.6741.1125c-.2174-.2735-.9125-1.2716-1.0128-1.6668.3013-.1043.5964-.3928.9093-.422.5655-.053.4935.3418.8258.4997l.1885-.125-.8652-1.4666c-.2211-.3552-.1173-.4306-.4439-.3087-.0073.019-.0099.0312-.0096.0603l.0057.1815c.036.1828.4595.9306-.8343,1.3053-.2418-.3427-.8688-1.2628-.9677-1.5965.2069-.1921,1.0406-.7174,1.341-.841.9737-.4005,1.1444.4306,1.5925.1381-.0144-.3425-.1184-.2591-.4217-.4958-.2696-.2106-.3158-.3223-.5933-.4629l-3.2361,2.0075Z" fill="#007dc3" fill-rule="evenodd" stroke-width="0"/><path d="M10.5518,48.8457c.3342-.0411.1976-.0471.2974-.4405.5876.0417,2.1194,1.1699,2.7019,1.5313.3317.2058.599.3126.8235.5873l-3.3911.599c-.2112.0388-.441.1128-.5581-.0533-.0099-.0145-.0196-.04-.0278-.057l-.0859-.3529c-.0042-.0167-.0074-.0485-.0193-.0692-.2874.0715-.1519-.1661-.2755.3422-.0711.2934-.2818,1.2515-.1565,1.442.3875-.0284.1123-.3669,1.061-.5352l4.2166-.7929.0782-.4442c-.1531-.1975-1.8774-1.3141-2.2598-1.54l-1.7231-1.1302c-.404-.3623.0388-.436-.4221-.6163-.1469.1919-.4156,1.2907-.2594,1.5299Z" fill="#007dc3" fill-rule="evenodd" stroke-width="0"/><path d="M104.0753,67.975c-.3172.1471-2.8789-.4975-3.591-.6434-1.0105-.2075-.3886-.2917-.6474-.7841-.3464.0085-.1973-.0814-.4147.9235-.2001.9258-.273.8181-.0176.9729.4108-.1511-.0734-.6463.7968-.4899.4026.0723.8164.1735,1.209.2589.7881.1717,1.7643.3276,2.4738.553-.0297,1.2325-.9575,1.2523-1.3283,1.4561.0405.4471.3566.3099,1.5834.084.04-.9604-.1448-.1973.2055-1.7992l.3028-1.3439c.1695-.396.0771.0394.2222-.398-.193-.2197-1.0548-.7724-1.383-.777-.1341.6775.0391.0837.5182.8433.2267.3598.2066.7402.0703,1.1438Z" fill="#007dc3" fill-rule="evenodd" stroke-width="0"/><path d="M51.8846,9.4798c-.0649.1911-.3741,1.1438-.3475,1.3536.0317.2492-.0558.0184.0703.1973.347-.0496.1383.0623.3586-.3487.4232-.79,1.2075-.8586,1.3742-.7098.248.4555.1973,1.7989.2404,2.4242.0286.4164.089.9048.0947,1.3048.013.8892-.4096.2894-.5797.7719.199.1803.0212.1071.4068.1097.7007.0048,1.3478-.1009,1.5199-.1962-.1959-.4521-.565.0819-.6764-.6826l-.229-3.2071c-.0252-.3767-.0159-.5601.0848-.6321.0436-.0312.947-.2376,1.4419.576.2169.3563.0715.3603.3907.2613.1065-.2386-.059-.4864-.1752-.7389-.1162-.2523-.2064-.5137-.3623-.7257-.201.0241-.1335.0439-.1803.0629-.0156.0065-.0414.0187-.0586.0261l-.1185.0527c-.3016.1074-1.9545.1758-2.3956.2098-.6517.0502-.4742-.0879-.8592-.1092Z" fill="#007dc3" fill-rule="evenodd" stroke-width="0"/><path d="M17.7317,30.3769c.1034.2491.3177.5116.4651.7381.2056.3158.2642.5559.5987.485.1267-.6225-.7061-.5859.11-2.0254.3852.0536,2.4103,1.5534,2.9254,1.9667.2239.1797.549.3535.5312.6387-.0051.0847-.3569.9411.2049.3773l.889-1.4327c-.4709-.1797-.0491.0593-.5091.222-.2214.0782-.3753-.0907-.5315-.2118-.5735-.4444-2.7718-1.898-2.9498-2.2274.6908-1.2382,1.4151-.542,1.8434-.8643-.0876-.2931.1522-.1485-.6848-.3821-.3031-.0845-.5032-.1676-.8093-.2001-.1766.4285.0598.231-.3376.7758l-1.3556,1.8493c-.1803.1746-.0082.0128-.2009.1497-.1279.091-.0202-.0683-.1891.1412Z" fill="#007dc3" fill-rule="evenodd" stroke-width="0"/><path d="M22.3448,24.8221l.1607.1599c.3521-.2282-.0448-.192.5238-.2611l.7597,2.2535c-.6086-.0799-1.8754-.2647-2.2847-.5524-.0655-.4009.3254-.2197.0757-.5919-.2486.0266-.2889.129-.6157.523-1.2523,1.5108-.4212.7931.0309.7724.1979-.0091,2.7238.4663,3.1164.7554,1.2543.9239.7753.9457.7336,1.3051l.0236.1922c.3478.0493.1045-.0128.7143-.6511.2024-.212.443-.6579.6361-.7121l-.1868-.2024c-.5437.4913-.5647.3277-1.124-.1253-.8906-.7214-.8237-1.072-1.2934-2.5115-.4853-1.4867-.0544-.9819-.1497-1.4074-.0391-.0133.0255-.2304-.3226.0856l-.7979.9681Z" fill="#007dc3" fill-rule="evenodd" stroke-width="0"/><path d="M71.4496,12.7811l.1219.0119c.5644-.1063.4933-.8921,1.9058-.4011-.0457.5241-1.1022,3.6584-1.3278,4.0351-.4686.0638-.4377-.1511-.6361.1139.1114.2492,1.6401.7297,1.8564.6118-.0224-.3983-.0073-.1557-.4331-.3887-.0079-.7251.9762-3.2828,1.2234-4.1003,1.2161.0831,1.1838,1.0168,1.2646,1.2186.1029.2569-.0258.1659.2109.2673.1978-.1071.1743-.0912.1508-.7117-.0451-1.1818.2641-.5775-1.8219-1.2654-.3498-.1154-1.1248-.3178-1.3975-.5088-.341-.2393.0406-.1052-.3339-.2087l-.7835,1.3261Z" fill="#007dc3" fill-rule="evenodd" stroke-width="0"/><path d="M81.2827,15.7883c.0771.2469.1863.2203.3654.4346-.0416.4224-1.4743,2.554-1.8555,3.1847-.5667.9372-.605.0615-.9961.3833.0187.2746.0941.2282.5986.517l2.3772,1.474c.297-.1584,1.0618-.731,1.3079-.9507l-.1378-.2687c-.4578.0612-1.3141,1.0304-2.7983-.2982.0379-.2577,1.8413-3.1496,2.1339-3.5377.4524.0054.5167.2617.6905.0712.1519-.1667-.2489-.3436-.4017-.4383-.557-.3449-1.1012-.8305-1.2841-.5712Z" fill="#007dc3" fill-rule="evenodd" stroke-width="0"/><path d="M105.1085,54.1417c-.4232.1281-2.9069.3373-3.6349.3849-.2939.0193-.4376.0632-.6012-.1199-.0814-.091-.0575-.1463-.1083-.2429-.1111-.2115.0681-.0842-.1494-.1984-.2378.2599-.0836,1.106-.0337,1.493.0564.4399-.0414.3044.2066.4271.4275-.3013-.2565-.6222.8584-.7132l2.8587-.2514c1.15-.089.5318.4292,1.0029.5536.2231-.1964.1134-.2021.0488-.9839-.0139-.1669-.017-.4257-.0372-.5641-.0751-.5113.021-.2936-.2372-.3705-.1208.1557-.1055.3887-.1735.5857Z" fill="#007dc3" fill-rule="evenodd" stroke-width="0"/><path d="M98.4539,71.4299c.2069-.068.0609.0122.1964-.1474.0406-.0476.1316-.2305.1559-.2685.5134-.0547,1.8278.4621,2.3687.6361,2.4205.7782,1.3646.4618,1.7294,1.2558.3104-.0955.121.2214.4787-.8691.0576-.176.1276-.3626.1755-.5258.1386-.4729.0204-.413-.0366-.4644-.2168.0621-.2097.2121-.4008.4352-.4563.0226-3.4855-1.0086-3.9977-1.2266l-.0646-.6548c-.3189.0782-.1125-.2081-.453.8572-.081.254-.2679.5856-.2066.8515.0039.0168.0207.0474.0249.0607.0043.0136.0165.0422.0298.0601Z" fill="#007dc3" fill-rule="evenodd" stroke-width="0"/><path d="M16.9836,32.3322c.5667.0088,3.3401,1.9023,3.6683,2.1875.0014.4079-.0723.1627-.0921.5808-.0003.0077-.0011.032.004.0471.2548.1238.1193.2641.6426-.5984.1173-.1936.4765-.7047.4932-.9607-.6454-.0462.0207.1043-.5386.248-.2531.0652-.4065-.0521-.5814-.1749l-.9943-.6505c-.601-.4076-1.5069-.9102-1.948-1.3096-.0111-.4045.273-.76-.0547-.682-.1503.0357-.178.1272-.2894.305l-.7132,1.1046c-.1438.6874.3466-.0124.4036-.0969Z" fill="#007dc3" fill-rule="evenodd" stroke-width="0"/><path d="M9.8604,54.5944c.2832-.1151.1327-.1157.3164-.5366.7004-.0729,3.5189.2007,4.1972.3444.1559.4005-.0535.4566.2401.6097.2381-.1414.1412-.0706.2132-.8864.0142-.1584.042-.3495.0513-.5012l-.0916-.5314c-.2919.1184-.1445.2236-.3274.5365-.6077.0701-3.6215-.2049-4.1575-.3588-.2274-.4941.0584-.4337-.2688-.5927-.2415.1403-.138.0807-.2123.9221-.0124.1423-.0399.3177-.0493.4634l.0887.531Z" fill="#007dc3" fill-rule="evenodd" stroke-width="0"/><path d="M14.5033,79.4706l.2863.5766c.4564-.1817.9893-.5989,1.4675-.8303l-.1721-.4379-1.3614.5383c-.1843.1006-.1131.0598-.2203.1533Z" fill="#007dc3" fill-rule="evenodd" stroke-width="0"/><path d="M40.7229,98.9177c.1809.1194.1905.1472.4791.0635.269-.0782.2732-.1496.2851-.4084-.1493-.0689-.2171-.1058-.4337-.0142-.3498.1477-.3081.2585-.3305.3591Z" fill="#007dc3" fill-rule="evenodd" stroke-width="0"/></g></svg>